<?xml version="1.0" standalone="no"?>
<!DOCTYPE svg PUBLIC "-//W3C//DTD SVG 20010904//EN"
 "http://www.w3.org/TR/2001/REC-SVG-20010904/DTD/svg10.dtd">
<svg version="1.0" xmlns="http://www.w3.org/2000/svg"
 width="124.000000pt" height="112.000000pt" viewBox="0 0 124.000000 112.000000"
 preserveAspectRatio="xMidYMid meet">

<g transform="translate(0.000000,112.000000) scale(0.100000,-0.100000)"
fill="#000000" stroke="none">
<path d="M37 1100 l-27 -21 0 -515 c0 -501 1 -515 20 -534 20 -20 33 -20 590
-20 l569 0 21 22 c20 21 20 32 20 529 0 484 -1 508 -19 530 l-19 24 -564 3
c-560 2 -565 2 -591 -18z m449 -194 c58 -27 106 -80 123 -135 6 -21 11 -72 11
-113 0 -351 240 -512 468 -312 56 49 68 51 58 10 -9 -38 -73 -94 -146 -129
-58 -28 -73 -31 -160 -31 -212 1 -314 93 -352 318 l-13 74 -82 -32 c-139 -56
-159 -78 -150 -170 4 -40 11 -55 36 -78 36 -32 71 -35 125 -13 31 13 36 13 36
1 0 -67 -57 -100 -162 -94 -75 4 -101 18 -152 82 -27 33 -31 46 -31 100 0 48
5 68 24 94 29 41 112 83 232 118 52 14 102 31 112 36 23 12 22 80 -3 135 -58
129 -245 104 -305 -40 -18 -43 -38 -44 -43 -4 -8 63 77 164 163 195 56 20 155
14 211 -12z m476 3 l90 -21 23 22 c14 13 31 20 40 16 13 -5 15 -23 13 -123 -3
-102 -5 -118 -20 -118 -10 0 -29 24 -50 65 -26 50 -44 71 -81 94 -95 59 -213
44 -282 -37 -19 -22 -37 -39 -39 -36 -2 2 -11 19 -21 38 l-18 35 29 23 c35 29
135 62 188 62 21 1 79 -8 128 -20z"/>
</g>
</svg>
