<svg width="203" height="194" viewBox="0 0 203 194" fill="none" xmlns="http://www.w3.org/2000/svg">
<path d="M20.9803 32.2578C21 32.2985 21.0144 32.3415 21.023 32.3858L21.1272 32.7649C21.1798 32.9739 21.2447 33.1797 21.3215 33.381C21.4068 33.618 21.4969 33.8976 21.6343 34.1961L21.8428 34.6701L22.113 35.1819C22.2057 35.3699 22.3101 35.552 22.4257 35.7269C22.5442 35.907 22.6485 36.106 22.7907 36.2956C24.1219 38.2425 25.9861 39.7645 28.1601 40.6793C28.8196 40.9554 29.5034 41.1695 30.2026 41.319C30.9463 41.4666 31.6979 41.571 32.4537 41.6318C34.0034 41.7835 35.681 41.8688 37.2876 42.5133C38.9103 43.2327 40.349 44.3101 41.4959 45.6648C42.7098 46.952 43.6911 48.44 44.3963 50.0627C44.715 50.8461 44.9101 51.6743 44.9745 52.5176C45.0296 53.3232 44.9786 54.1327 44.8228 54.925C44.5059 56.3774 44.0782 57.8033 43.5432 59.1902C43.0871 60.3934 42.7475 61.6376 42.5291 62.9057C42.3519 63.9516 42.3923 65.0228 42.6475 66.0525C42.8405 66.8292 43.1905 67.5582 43.6759 68.1946C43.9825 68.5983 44.3579 68.9448 44.7849 69.2182C45.074 69.403 45.2588 69.4741 45.2588 69.4836C45.0943 69.4184 44.9357 69.3392 44.7849 69.2466C44.348 68.9796 43.9627 68.6361 43.6475 68.2325C43.1453 67.5961 42.7821 66.8615 42.5812 66.0762C42.3131 65.0345 42.2631 63.9487 42.4343 62.8867C42.6506 61.6115 42.987 60.3595 43.439 59.1476C43.9651 57.7593 44.3865 56.3336 44.6996 54.8824C44.8468 54.1017 44.8946 53.3055 44.8418 52.5128C44.7783 51.6867 44.5848 50.8758 44.2683 50.1101C43.5681 48.5043 42.5966 47.031 41.3964 45.7548C40.2647 44.4188 38.8455 43.356 37.245 42.646C35.6763 42.0062 34.0129 41.9209 32.4585 41.7645C31.6981 41.6976 30.942 41.5901 30.1932 41.4422C29.4801 41.299 28.782 41.0896 28.1079 40.8167C25.9156 39.8871 24.0427 38.337 22.7196 36.3572C22.5774 36.1676 22.4684 35.9686 22.3547 35.7837C22.2422 35.6045 22.1394 35.4194 22.0466 35.2293L21.7812 34.7174L21.5774 34.2435C21.4605 33.9748 21.3592 33.6994 21.2741 33.4189C21.2029 33.2158 21.1444 33.0085 21.0988 32.7981C21.0609 32.6322 21.0277 32.5043 21.0087 32.4142C20.9953 32.3629 20.9858 32.3106 20.9803 32.2578Z" fill="#455A64"/>
<path d="M30.6149 27.2344L30.7192 27.3292L31.013 27.6135C31.141 27.7415 31.2831 27.9121 31.4869 28.0874C31.6907 28.2628 31.8471 28.5234 32.0367 28.8078C32.5154 29.4901 32.9085 30.2286 33.2072 31.0067C33.6128 32.0353 33.8542 33.1211 33.9228 34.2246C33.955 34.8652 33.9312 35.5074 33.8517 36.1439C33.7548 36.8334 33.6059 37.5146 33.4063 38.1817C33.0129 39.5656 32.4584 40.9873 32.0414 42.5465C31.8365 43.3415 31.7205 44.1569 31.6954 44.9776C31.677 45.8334 31.7645 46.6882 31.9561 47.5225C32.3561 49.2918 33.1571 50.9456 34.2972 52.3564C35.4407 53.7552 36.8542 54.9092 38.4534 55.7496C39.9375 56.543 41.5365 57.0994 43.1925 57.3988C44.7754 57.6927 46.3109 57.7685 47.7326 57.9865C49.0637 58.1454 50.3566 58.5368 51.5523 59.1428C53.2587 60.0991 54.594 61.6013 55.3436 63.408C55.5467 63.8935 55.7053 64.3963 55.8175 64.9103C55.846 65.0857 55.8649 65.2184 55.8839 65.3179C55.8871 65.3637 55.8871 65.4096 55.8839 65.4553C55.8839 65.4553 55.8839 65.4079 55.8507 65.3179C55.8175 65.2279 55.8033 65.0904 55.7701 64.9198C55.6532 64.4116 55.4947 63.9139 55.2962 63.4317C54.9639 62.6756 54.5285 61.9691 54.0025 61.3323C53.3055 60.4888 52.4527 59.7873 51.4907 59.266C50.3022 58.6732 49.0191 58.293 47.6994 58.1429C46.2777 57.9296 44.747 57.8585 43.1499 57.5695C41.4785 57.2663 39.864 56.7068 38.3634 55.9108C36.7445 55.0611 35.3133 53.8942 34.155 52.4796C33.0077 51.0535 32.1977 49.3864 31.7855 47.6031C31.5979 46.7554 31.512 45.8883 31.5296 45.0203C31.5552 44.1884 31.6728 43.3619 31.8803 42.5559C32.2831 40.9825 32.866 39.5608 33.2641 38.1865C33.4726 37.528 33.631 36.8547 33.738 36.1723C33.8226 35.5442 33.8495 34.9097 33.8186 34.2767C33.7097 32.3499 33.079 30.489 31.994 28.8931C31.8092 28.604 31.6149 28.3765 31.4585 28.1632C31.3021 27.95 31.1457 27.7936 31.0225 27.6893L30.7429 27.3908C30.6956 27.3426 30.6528 27.2903 30.6149 27.2344Z" fill="#455A64"/>
<path d="M54.1636 61.1949C54.0517 61.3189 53.9279 61.4316 53.7939 61.5314C53.5475 61.7446 53.1826 62.0384 52.7229 62.3891C51.5305 63.3102 50.2903 64.1676 49.0074 64.9577C47.7234 65.7475 46.3994 66.4704 45.0408 67.1235C44.5195 67.3747 44.093 67.569 43.7991 67.6922C43.6481 67.769 43.4892 67.8294 43.3252 67.8723C43.4663 67.783 43.6136 67.7038 43.766 67.6353L44.9887 67.024C46.017 66.5027 47.4198 65.7444 48.9174 64.8203C50.4149 63.8962 51.7229 62.9815 52.6518 62.2991L53.7465 61.484C53.8778 61.3769 54.0172 61.2802 54.1636 61.1949Z" fill="#455A64"/>
<path d="M51.6187 59.2044C51.5017 59.2911 51.3763 59.3657 51.2443 59.4272L50.2112 59.9864C49.3392 60.4603 48.1449 61.1333 46.8511 61.9247C45.5574 62.7161 44.42 63.4839 43.6048 64.0478L42.657 64.7208C42.5412 64.807 42.4193 64.8846 42.2921 64.953C42.3919 64.8481 42.5014 64.7529 42.6191 64.6686C42.8371 64.4933 43.1594 64.2516 43.5669 63.9578C44.3678 63.3654 45.5052 62.5882 46.799 61.792C48.0928 60.9958 49.3013 60.3371 50.1875 59.8963C50.633 59.6689 50.9931 59.4935 51.249 59.3798C51.3673 59.3115 51.4909 59.2528 51.6187 59.2044Z" fill="#455A64"/>
<path d="M47.9696 58.4367C47.7408 58.6363 47.495 58.8155 47.235 58.9722C46.7611 59.2803 46.1213 59.6973 45.3915 60.1381C44.6617 60.5788 43.9935 60.9532 43.4959 61.2186C43.2362 61.3733 42.9634 61.5049 42.6807 61.6119C42.92 61.4334 43.1737 61.2749 43.439 61.138L45.3062 60.0196L47.1734 58.8964C47.4241 58.7191 47.6907 58.5652 47.9696 58.4367Z" fill="#455A64"/>
<path d="M44.5669 54.4084C44.398 54.5634 44.212 54.6986 44.0124 54.8113L42.6428 55.7307L41.2827 56.6785C41.1038 56.8208 40.9099 56.9432 40.7045 57.0434C40.8523 56.8625 41.0246 56.703 41.2163 56.5695C41.5481 56.3041 42.0172 55.9581 42.5528 55.5932C43.0883 55.2283 43.5859 54.9203 43.9745 54.7118C44.1582 54.5857 44.3572 54.4838 44.5669 54.4084Z" fill="#455A64"/>
<path d="M44.2967 50.8162C44.2967 50.8399 43.8939 51.0579 43.2447 51.4323C42.5954 51.8067 41.7092 52.3517 40.7756 53.0057C39.842 53.6597 39.0268 54.3137 38.4534 54.7971C38.1512 55.0724 37.8348 55.3319 37.5056 55.5743C37.5702 55.4854 37.6432 55.4028 37.7236 55.3279C37.8705 55.1762 38.0932 54.9677 38.3728 54.7118C39.8326 53.3937 41.448 52.259 43.183 51.3328C43.5148 51.1574 43.7896 51.0247 43.9792 50.9347C44.0794 50.8814 44.1861 50.8415 44.2967 50.8162Z" fill="#455A64"/>
<path d="M42.5196 48.0296C42.5433 48.0675 40.8798 49.2665 38.8041 50.7167C36.7284 52.1669 35.0128 53.3043 35.0128 53.2711C35.0128 53.2379 36.6478 52.0294 38.7235 50.584C40.7993 49.1386 42.4911 47.9917 42.5196 48.0296Z" fill="#455A64"/>
<path d="M41.1026 44.8876C41.004 44.9779 40.8959 45.0573 40.7803 45.1245C40.5434 45.2857 40.2448 45.4894 39.8846 45.7264C39.1264 46.2335 38.0838 46.9444 36.9511 47.75C35.8185 48.5557 34.8138 49.3139 34.1076 49.8636L33.2451 50.5176C33.1442 50.6031 33.0346 50.6777 32.9181 50.7404C33.0035 50.6379 33.1005 50.5456 33.2072 50.4655C33.3968 50.2996 33.6811 50.0627 34.0366 49.7736C34.7474 49.2002 35.7426 48.4277 36.88 47.622C38.0174 46.8164 39.0695 46.115 39.842 45.6316C40.2306 45.3899 40.5481 45.2004 40.7898 45.0724C40.8874 45.0002 40.9923 44.9383 41.1026 44.8876Z" fill="#455A64"/>
<path d="M38.1786 43.1483C38.207 43.1815 36.7947 44.2052 35.0318 45.4326C33.2688 46.66 31.8139 47.6173 31.7855 47.5841C31.7571 47.551 33.174 46.5226 34.937 45.2999C36.6999 44.0772 38.1549 43.1104 38.1786 43.1483Z" fill="#455A64"/>
<path d="M35.1123 41.3949C34.6102 41.9033 34.0682 42.3708 33.4916 42.7929C32.9503 43.2596 32.3753 43.6857 31.7713 44.0677C32.2755 43.5542 32.8172 43.079 33.392 42.646C33.9341 42.1875 34.5091 41.7693 35.1123 41.3949Z" fill="#455A64"/>
<path d="M33.0461 36.9922C32.835 37.2257 32.6035 37.4399 32.3542 37.632C31.9134 38.0064 31.2879 38.5135 30.577 39.0537C29.8661 39.594 29.2074 40.0395 28.7193 40.357C28.4653 40.5411 28.1939 40.6999 27.9089 40.8309C28.1434 40.6209 28.3938 40.4292 28.6577 40.2575C29.1316 39.9163 29.7761 39.4471 30.4822 38.921C31.1883 38.395 31.8234 37.9021 32.2831 37.5467C32.5222 37.3418 32.7773 37.1564 33.0461 36.9922Z" fill="#455A64"/>
<path d="M33.937 33.9971C33.8402 34.0903 33.7338 34.1729 33.6195 34.2435C33.4157 34.3952 33.1077 34.6037 32.7286 34.8549C31.9656 35.362 30.8945 36.0397 29.686 36.7505C28.4776 37.4614 27.3544 38.0396 26.5345 38.4471C26.127 38.6509 25.7905 38.812 25.5583 38.921C25.4412 38.9854 25.3172 39.0363 25.1886 39.0727C25.2958 38.9943 25.41 38.9261 25.5298 38.8689L26.4777 38.3523C27.2833 37.9211 28.3733 37.3145 29.6007 36.6131C30.8282 35.9117 31.885 35.2577 32.6622 34.7743L33.5816 34.2056C33.6917 34.1227 33.8109 34.0527 33.937 33.9971Z" fill="#455A64"/>
<path d="M32.5153 30.7982C32.4075 30.8946 32.2917 30.9818 32.1694 31.0588C31.9419 31.22 31.6101 31.4474 31.1931 31.7271C30.3638 32.2768 29.2074 33.0256 27.9136 33.8265C26.6199 34.6274 25.4398 35.3288 24.5963 35.8216C24.165 36.0681 23.8143 36.2671 23.5679 36.3998C23.4435 36.4732 23.3136 36.5366 23.1793 36.5894C23.2897 36.4962 23.4087 36.4137 23.5347 36.3429L24.5394 35.7221L27.8568 33.689L31.1741 31.6323L32.1788 31.0067C32.2841 30.9267 32.3968 30.8569 32.5153 30.7982Z" fill="#455A64"/>
<path d="M157.211 125.272C157.187 125.296 156.836 124.945 156.154 124.363C155.813 124.073 155.391 123.723 154.879 123.348C154.302 122.924 153.694 122.544 153.059 122.211C152.693 122.023 152.313 121.865 151.922 121.737C151.512 121.587 151.079 121.51 150.642 121.51C150.427 121.509 150.214 121.56 150.022 121.656C149.833 121.754 149.683 121.913 149.595 122.107C149.503 122.319 149.46 122.549 149.467 122.78C149.471 123.029 149.503 123.277 149.562 123.519C149.689 124.033 149.873 124.53 150.112 125.002C150.361 125.504 150.641 125.99 150.95 126.457C152.278 128.418 153.94 130.129 155.86 131.514C156.314 131.839 156.789 132.133 157.282 132.395C157.747 132.65 158.24 132.85 158.751 132.992C158.991 133.059 159.237 133.099 159.486 133.111C159.715 133.124 159.945 133.087 160.159 133.002C160.359 132.922 160.526 132.777 160.632 132.59C160.734 132.399 160.79 132.189 160.798 131.974C160.812 131.536 160.748 131.1 160.609 130.685C160.48 130.289 160.321 129.904 160.135 129.533C159.819 128.89 159.456 128.27 159.05 127.68C158.689 127.159 158.358 126.732 158.073 126.377C157.514 125.68 157.173 125.315 157.197 125.291C157.22 125.268 157.301 125.362 157.476 125.528C157.652 125.694 157.893 125.941 158.192 126.277C158.559 126.684 158.905 127.11 159.23 127.552C159.664 128.14 160.051 128.761 160.386 129.41C160.579 129.793 160.745 130.189 160.884 130.594C161.043 131.051 161.118 131.533 161.106 132.016C161.101 132.283 161.033 132.544 160.907 132.779C160.771 133.031 160.554 133.23 160.291 133.343C160.031 133.452 159.749 133.502 159.467 133.49C159.19 133.482 158.915 133.442 158.647 133.372C158.109 133.225 157.589 133.018 157.097 132.756C156.583 132.473 156.089 132.157 155.619 131.808C153.65 130.403 151.952 128.653 150.609 126.642C150.29 126.163 150.003 125.662 149.751 125.144C149.506 124.644 149.317 124.118 149.188 123.576C149.123 123.307 149.091 123.032 149.093 122.756C149.085 122.473 149.144 122.192 149.263 121.936C149.385 121.676 149.59 121.464 149.846 121.334C150.085 121.218 150.348 121.158 150.614 121.159C151.091 121.164 151.562 121.254 152.007 121.424C152.409 121.573 152.799 121.752 153.173 121.96C153.811 122.313 154.42 122.717 154.993 123.168C155.5 123.566 155.912 123.931 156.239 124.244C156.566 124.557 156.808 124.808 156.964 124.983C157.121 125.159 157.22 125.263 157.211 125.272Z" fill="#455A64"/>
<path d="M152.666 126.41C152.694 126.41 152.557 126.884 152.377 127.727C152.287 128.154 152.187 128.675 152.107 129.282C152.015 129.968 151.977 130.66 151.993 131.353C152.002 131.752 152.043 132.15 152.116 132.542C152.185 132.959 152.328 133.36 152.538 133.727C152.645 133.907 152.791 134.06 152.965 134.177C153.138 134.29 153.341 134.346 153.548 134.338C153.773 134.332 153.995 134.277 154.197 134.177C154.411 134.067 154.612 133.932 154.794 133.774C155.181 133.439 155.53 133.061 155.832 132.647C156.151 132.21 156.441 131.752 156.699 131.277C157.776 129.256 158.474 127.056 158.761 124.784C158.822 124.248 158.849 123.708 158.841 123.168C158.833 122.656 158.768 122.145 158.647 121.647C158.585 121.414 158.499 121.189 158.391 120.974C158.291 120.775 158.148 120.601 157.974 120.462C157.811 120.335 157.612 120.262 157.405 120.254C157.196 120.25 156.989 120.292 156.799 120.377C156.416 120.555 156.068 120.799 155.77 121.097C155.485 121.378 155.222 121.681 154.983 122.002C154.565 122.555 154.191 123.139 153.865 123.751C153.581 124.291 153.363 124.775 153.192 125.173C152.851 125.974 152.694 126.429 152.666 126.419C152.67 126.301 152.694 126.184 152.737 126.073C152.799 125.851 152.898 125.528 153.045 125.126C153.192 124.723 153.396 124.22 153.666 123.661C153.973 123.024 154.333 122.414 154.742 121.837C154.98 121.498 155.248 121.18 155.543 120.889C155.861 120.553 156.239 120.278 156.656 120.078C156.89 119.973 157.144 119.919 157.4 119.922C157.678 119.929 157.946 120.022 158.168 120.187C158.384 120.355 158.562 120.567 158.689 120.808C158.816 121.046 158.914 121.297 158.983 121.557C159.118 122.081 159.191 122.618 159.201 123.159C159.218 123.717 159.194 124.276 159.13 124.832C158.854 127.157 158.138 129.408 157.021 131.466C156.754 131.961 156.451 132.436 156.116 132.888C155.796 133.324 155.425 133.72 155.012 134.068C154.807 134.24 154.583 134.388 154.344 134.509C154.1 134.635 153.831 134.707 153.557 134.718C153.281 134.724 153.01 134.646 152.78 134.495C152.568 134.347 152.391 134.157 152.258 133.936C152.034 133.531 151.885 133.09 151.818 132.632C151.747 132.224 151.712 131.81 151.714 131.395C151.71 130.687 151.769 129.98 151.889 129.282C151.974 128.758 152.087 128.239 152.225 127.727C152.339 127.306 152.448 126.983 152.524 126.779C152.548 126.649 152.596 126.523 152.666 126.41Z" fill="#455A64"/>
<path d="M154.221 124.225C154.221 124.258 153.747 124.382 152.946 124.675C152.538 124.822 152.045 125.012 151.481 125.263C150.849 125.546 150.241 125.879 149.661 126.258C149.325 126.474 149.008 126.718 148.714 126.988C148.395 127.264 148.13 127.597 147.932 127.969C147.835 128.154 147.78 128.358 147.771 128.566C147.766 128.774 147.828 128.978 147.946 129.149C148.068 129.331 148.23 129.483 148.42 129.595C148.626 129.718 148.846 129.818 149.074 129.893C149.564 130.043 150.07 130.138 150.581 130.177C151.121 130.213 151.662 130.213 152.202 130.177C153.342 130.11 154.474 129.934 155.581 129.651C156.69 129.375 157.77 128.994 158.808 128.514C159.298 128.284 159.773 128.023 160.23 127.732C160.662 127.464 161.061 127.146 161.419 126.784C161.588 126.612 161.734 126.419 161.855 126.211C161.973 126.023 162.047 125.81 162.073 125.59C162.095 125.385 162.053 125.178 161.955 124.998C161.848 124.811 161.703 124.649 161.528 124.524C161.174 124.298 160.783 124.137 160.372 124.05C159.984 123.954 159.59 123.889 159.192 123.855C158.501 123.801 157.807 123.801 157.116 123.855C156.505 123.903 155.979 123.969 155.547 124.031C154.694 124.163 154.225 124.272 154.216 124.239C154.32 124.183 154.432 124.143 154.548 124.121C154.766 124.054 155.092 123.969 155.524 123.879C155.955 123.789 156.472 123.704 157.097 123.637C157.801 123.563 158.509 123.547 159.216 123.59C159.629 123.615 160.04 123.675 160.443 123.77C160.897 123.862 161.33 124.039 161.718 124.291C161.932 124.433 162.112 124.621 162.244 124.841C162.384 125.08 162.446 125.357 162.419 125.633C162.395 125.906 162.309 126.17 162.168 126.405C162.035 126.636 161.876 126.85 161.694 127.045C161.319 127.437 160.899 127.784 160.443 128.078C159.975 128.384 159.488 128.658 158.983 128.898C157.918 129.394 156.807 129.786 155.666 130.068C154.534 130.357 153.377 130.533 152.211 130.594C151.654 130.625 151.094 130.616 150.538 130.566C149.998 130.523 149.465 130.417 148.951 130.249C148.695 130.166 148.45 130.053 148.221 129.912C147.988 129.769 147.787 129.579 147.633 129.353C147.483 129.122 147.407 128.851 147.415 128.576C147.427 128.317 147.497 128.064 147.619 127.836C147.843 127.432 148.138 127.073 148.491 126.775C148.804 126.502 149.138 126.255 149.491 126.035C150.095 125.667 150.729 125.35 151.387 125.088C151.878 124.885 152.379 124.708 152.889 124.557C153.306 124.434 153.638 124.353 153.86 124.306C153.975 124.26 154.097 124.232 154.221 124.225Z" fill="#455A64"/>
<path d="M156.609 126.96C156.67 127.203 156.657 127.46 156.573 127.696C156.488 127.932 156.335 128.139 156.133 128.288C155.931 128.438 155.689 128.524 155.439 128.536C155.188 128.548 154.939 128.486 154.723 128.357C154.508 128.227 154.336 128.037 154.228 127.81C154.121 127.583 154.084 127.329 154.121 127.081C154.158 126.832 154.267 126.6 154.436 126.414C154.605 126.228 154.825 126.096 155.069 126.035C155.396 125.955 155.741 126.007 156.029 126.18C156.318 126.353 156.526 126.633 156.609 126.96Z" fill="#455A64"/>
<path d="M182.499 105.202L182.357 105.136L181.944 104.927L180.357 104.103L174.523 101.037H174.575L156.604 107.904L156.443 107.965L156.491 107.799L157.04 105.814C158.296 101.283 159.486 96.9941 160.528 93.2218V93.1934L170.48 85.734L173.324 83.6298L174.077 83.0754L174.272 82.9379C174.313 82.9032 174.336 82.889 174.343 82.8953L174.281 82.9474L174.092 83.0991L173.352 83.6677L170.547 85.8051L160.623 93.3166L160.651 93.2739C159.609 97.0652 158.429 101.33 157.178 105.875C156.988 106.553 156.803 107.231 156.628 107.861L156.514 107.757L174.523 100.937H174.551L180.357 104.051L181.925 104.899L182.333 105.126L182.499 105.202Z" fill="#FF5138"/>
<path d="M158.912 107.686L157.836 108.003L157.491 109.069L156.855 108.145H155.732L156.415 107.254L156.069 106.188L157.126 106.562L158.031 105.904L158.002 107.027L158.912 107.686Z" fill="#FF5138"/>
<path d="M162.016 92.8759L161.339 93.1223L161.154 93.8237L160.708 93.255L159.983 93.2977L160.391 92.6958L160.125 92.0228L160.822 92.2219L161.381 91.7622L161.405 92.4873L162.016 92.8759Z" fill="#FF5138"/>
<path d="M175.622 82.4356L175.129 83.1796L175.456 84.0042L174.599 83.7625L173.916 84.3312L173.878 83.4403L173.13 82.9664L173.964 82.6583L174.182 81.7958L174.736 82.4925L175.622 82.4356Z" fill="#FF5138"/>
<path d="M183.589 104.264L183.091 105.008L183.423 105.833L182.565 105.591L181.878 106.16L181.845 105.269L181.091 104.795L181.925 104.487L182.148 103.624L182.698 104.321L183.589 104.264Z" fill="#FF5138"/>
<path d="M175.229 100.61L174.911 101.084L175.125 101.61L174.575 101.454L174.139 101.819L174.12 101.25L173.637 100.947L174.172 100.748L174.31 100.198L174.665 100.648L175.229 100.61Z" fill="#FF5138"/>
<path d="M128.828 25.2856C129.638 20.326 126.273 15.6491 121.314 14.8396C116.354 14.0301 111.677 17.3945 110.868 22.3541C110.058 27.3138 113.422 31.9906 118.382 32.8002C123.342 33.6097 128.019 30.2453 128.828 25.2856Z" fill="#FF5138"/>
<g opacity="0.3">
<path d="M118.653 26.6657C118.653 26.9591 118.566 27.2459 118.403 27.4898C118.24 27.7337 118.009 27.9238 117.738 28.0361C117.467 28.1484 117.168 28.1778 116.881 28.1205C116.593 28.0633 116.329 27.922 116.121 27.7146C115.914 27.5071 115.773 27.2428 115.715 26.9551C115.658 26.6673 115.687 26.3691 115.8 26.098C115.912 25.827 116.102 25.5953 116.346 25.4323C116.59 25.2693 116.877 25.1823 117.17 25.1823C117.564 25.1823 117.941 25.3386 118.219 25.6168C118.497 25.895 118.653 26.2723 118.653 26.6657Z" fill="white"/>
</g>
<g opacity="0.3">
<path d="M116.568 22.3815C116.568 22.5521 116.518 22.7189 116.423 22.8607C116.328 23.0026 116.193 23.1131 116.036 23.1784C115.878 23.2437 115.705 23.2608 115.537 23.2275C115.37 23.1942 115.216 23.112 115.096 22.9914C114.975 22.8708 114.893 22.7171 114.86 22.5498C114.826 22.3825 114.844 22.2091 114.909 22.0515C114.974 21.8939 115.085 21.7591 115.227 21.6644C115.368 21.5696 115.535 21.519 115.706 21.519C115.934 21.519 116.154 21.6099 116.316 21.7716C116.477 21.9334 116.568 22.1528 116.568 22.3815Z" fill="white"/>
</g>
<path d="M111.028 26.0401C111.071 26.1965 103.242 33.708 105.261 35.3098C107.28 36.9117 115.767 32.8028 123.004 26.9595C130.241 21.1162 136.847 14.017 135.037 12.1403C133.226 10.2636 124.189 15.8226 124.189 15.8226L125.288 16.5098C125.288 16.5098 130.752 13.0028 132.482 14.3629C134.212 15.7231 129.283 21.0451 122.326 26.1254C115.369 31.2058 108.644 34.7696 107.602 33.3763C106.559 31.983 111.483 27.3434 111.483 27.3434L111.028 26.0401Z" fill="#FF5138"/>
<g opacity="0.3">
<path d="M111.028 26.0401C111.071 26.1965 103.242 33.708 105.261 35.3098C107.28 36.9117 115.767 32.8028 123.004 26.9595C130.241 21.1162 136.847 14.017 135.037 12.1403C133.226 10.2636 124.189 15.8226 124.189 15.8226L125.288 16.5098C125.288 16.5098 130.752 13.0028 132.482 14.3629C134.212 15.7231 129.283 21.0451 122.326 26.1254C115.369 31.2058 108.644 34.7696 107.602 33.3763C106.559 31.983 111.483 27.3434 111.483 27.3434L111.028 26.0401Z" fill="black"/>
</g>
<g opacity="0.3">
<path d="M114.862 17.415C114.933 17.505 114.317 18.0263 113.621 19.0784C112.695 20.4269 112.184 22.017 112.151 23.6524C112.118 25.2878 112.565 26.8971 113.436 28.2817C114.094 29.3575 114.687 29.9073 114.611 29.9926C114.535 30.0779 113.834 29.6324 113.023 28.5708C112.554 27.9393 112.182 27.2413 111.919 26.4998C111.247 24.6563 111.287 22.6281 112.033 20.8129C112.324 20.0829 112.724 19.4008 113.218 18.7893C114.052 17.7467 114.801 17.3533 114.862 17.415Z" fill="white"/>
</g>
<path d="M133.62 31.8455C133.644 30.8007 133.978 29.7866 134.579 28.9315C135.18 28.0764 136.021 27.4188 136.996 27.0419C137.971 26.6649 139.036 26.5854 140.056 26.8136C141.076 27.0418 142.005 27.5673 142.726 28.3237C143.448 29.0801 143.928 30.0334 144.108 31.0631C144.287 32.0928 144.157 33.1525 143.734 34.1083C143.312 35.0641 142.615 35.873 141.732 36.4327C140.849 36.9925 139.821 37.2779 138.776 37.2529C137.375 37.2193 136.045 36.6309 135.078 35.6168C134.111 34.6028 133.587 33.2463 133.62 31.8455Z" fill="#FF5138"/>
<g opacity="0.4">
<path d="M140.624 29.9499C140.628 29.7792 140.682 29.6134 140.78 29.4736C140.878 29.3339 141.016 29.2264 141.175 29.1648C141.334 29.1031 141.508 29.0902 141.675 29.1275C141.842 29.1649 141.993 29.2509 142.111 29.3746C142.229 29.4983 142.307 29.6542 142.336 29.8224C142.365 29.9907 142.344 30.1638 142.274 30.3199C142.205 30.4759 142.091 30.6078 141.946 30.6988C141.802 30.7899 141.634 30.836 141.463 30.8314C141.35 30.8289 141.238 30.8041 141.135 30.7584C141.031 30.7127 140.938 30.647 140.86 30.5651C140.782 30.4832 140.721 30.3867 140.681 30.2811C140.64 30.1755 140.621 30.0629 140.624 29.9499Z" fill="black"/>
</g>
<g opacity="0.4">
<path d="M142.349 31.9593C142.352 31.8594 142.385 31.7627 142.443 31.6815C142.501 31.6003 142.582 31.5383 142.676 31.5035C142.77 31.4686 142.871 31.4625 142.969 31.4859C143.066 31.5093 143.154 31.5611 143.221 31.6347C143.289 31.7083 143.333 31.8004 143.348 31.8992C143.363 31.998 143.348 32.099 143.305 32.1893C143.262 32.2796 143.194 32.3551 143.108 32.4062C143.022 32.4572 142.923 32.4815 142.823 32.4759C142.693 32.4673 142.571 32.4089 142.482 32.3127C142.394 32.2164 142.346 32.0898 142.349 31.9593Z" fill="black"/>
</g>
<g opacity="0.4">
<path d="M141.671 33.4995C141.721 33.5007 141.768 33.5212 141.802 33.5567C141.837 33.5921 141.856 33.6396 141.856 33.689C141.856 33.7133 141.85 33.7372 141.84 33.7594C141.83 33.7816 141.816 33.8016 141.799 33.8184C141.781 33.8351 141.76 33.8482 141.738 33.8569C141.715 33.8656 141.691 33.8698 141.667 33.8691C141.642 33.8692 141.618 33.8642 141.595 33.8546C141.573 33.8449 141.553 33.8308 141.536 33.8131C141.519 33.7953 141.506 33.7744 141.497 33.7514C141.489 33.7284 141.485 33.704 141.487 33.6796C141.488 33.6314 141.508 33.5856 141.542 33.5519C141.577 33.5183 141.623 33.4995 141.671 33.4995Z" fill="black"/>
</g>
<path d="M155.438 71.2655C155.391 71.2655 155.358 64.5739 155.358 56.3231C155.358 48.0723 155.391 41.3806 155.438 41.3806C155.486 41.3806 155.519 48.0675 155.519 56.3231C155.519 64.5786 155.481 71.2655 155.438 71.2655Z" fill="#263238"/>
<path d="M156.329 41.6366C155.948 41.0846 155.609 40.5048 155.315 39.902H155.457V39.94C155.213 40.5806 154.923 41.203 154.59 41.8024C154.777 41.1424 155.018 40.4988 155.311 39.8784V39.8404L155.377 39.6888L155.453 39.831C155.793 40.4084 156.086 41.0122 156.329 41.6366Z" fill="#263238"/>
<path d="M155.273 37.85C155.244 37.8832 154.998 37.722 154.799 37.4235C154.6 37.1249 154.552 36.8358 154.595 36.8263C154.638 36.8169 154.751 37.0633 154.931 37.3382C155.111 37.613 155.301 37.8168 155.273 37.85Z" fill="#263238"/>
<path d="M154.803 38.7125C154.893 38.3451 155.02 37.9878 155.183 37.6462C155.291 37.2842 155.437 36.9347 155.619 36.6036C155.59 36.9846 155.492 37.3571 155.329 37.7031C155.218 38.069 155.039 38.4112 154.803 38.7125Z" fill="#263238"/>
<path d="M153.296 45.3141C153.404 45.0128 153.496 44.7059 153.571 44.3947C153.587 44.079 153.587 43.7626 153.571 43.4469C153.739 43.7465 153.789 44.0985 153.709 44.4326C153.686 44.7675 153.539 45.0817 153.296 45.3141Z" fill="#263238"/>
<path d="M153.59 44.0677C153.59 44.0677 153.552 44.1957 153.363 44.2431C153.25 44.2669 153.133 44.2466 153.036 44.1862C152.978 44.1447 152.93 44.0907 152.896 44.0283C152.862 43.9659 152.843 43.8967 152.839 43.8257C152.835 43.7547 152.848 43.6838 152.875 43.6182C152.903 43.5526 152.945 43.4941 152.998 43.4469C153.091 43.3804 153.206 43.3501 153.32 43.3616C153.514 43.3616 153.581 43.5038 153.562 43.5132C153.543 43.5227 153.462 43.4659 153.315 43.4753C153.271 43.4745 153.227 43.483 153.187 43.5001C153.146 43.5172 153.109 43.5427 153.079 43.5748C153.049 43.6069 153.025 43.645 153.01 43.6866C152.996 43.7282 152.99 43.7725 152.993 43.8165C152.995 43.8608 153.006 43.9042 153.025 43.9442C153.044 43.9841 153.071 44.0198 153.104 44.0491C153.137 44.0783 153.176 44.1005 153.218 44.1143C153.26 44.1281 153.304 44.1332 153.349 44.1293C153.495 44.1341 153.571 44.0488 153.59 44.0677Z" fill="#263238"/>
<path d="M178.703 69.1424C178.703 69.185 172.978 69.2229 165.907 69.2229C158.836 69.2229 153.112 69.185 153.112 69.1424C153.112 69.0997 158.832 69.0618 165.907 69.0618C172.983 69.0618 178.703 69.0997 178.703 69.1424Z" fill="#263238"/>
<path d="M178.963 69.1092C178.592 69.0513 178.231 68.9396 177.892 68.7775C177.54 68.6666 177.205 68.5071 176.897 68.3036C177.263 68.3629 177.617 68.4763 177.949 68.64C178.308 68.7462 178.65 68.9042 178.963 69.1092Z" fill="#263238"/>
<path d="M179.243 69.204C178.703 69.5108 178.112 69.7179 177.499 69.8153C177.76 69.6448 178.046 69.5169 178.347 69.4362C178.63 69.3073 178.933 69.2287 179.243 69.204Z" fill="#263238"/>
<path d="M154.235 69.9528C154.323 70.0138 154.399 70.0924 154.456 70.1837C154.513 70.275 154.55 70.3771 154.566 70.4835C154.623 70.7154 154.605 70.9593 154.514 71.1802C154.462 71.3166 154.373 71.4362 154.258 71.5261C154.188 71.5718 154.106 71.5962 154.021 71.5962C153.937 71.5962 153.855 71.5718 153.784 71.5261C153.664 71.4369 153.567 71.3193 153.503 71.1837C153.438 71.0482 153.408 70.8989 153.415 70.7489C153.411 70.6278 153.435 70.5075 153.484 70.3967C153.534 70.286 153.607 70.1878 153.699 70.1092C153.761 70.056 153.832 70.0156 153.909 69.9903C153.987 69.9651 154.068 69.9556 154.149 69.9622C154.263 69.9622 154.315 70.0144 154.311 70.0191C154.306 70.0238 154.249 70.0191 154.149 70.0191C154.009 70.0318 153.877 70.0919 153.775 70.1897C153.702 70.2606 153.645 70.3464 153.608 70.4413C153.571 70.5361 153.556 70.6379 153.562 70.7395C153.559 70.8631 153.585 70.9857 153.637 71.0975C153.69 71.2094 153.768 71.3075 153.865 71.384C153.912 71.414 153.966 71.4299 154.021 71.4299C154.077 71.4299 154.131 71.414 154.178 71.384C154.272 71.3125 154.345 71.2177 154.391 71.1091C154.474 70.9151 154.501 70.7014 154.467 70.493C154.418 70.3021 154.339 70.12 154.235 69.9528Z" fill="#263238"/>
<path d="M175.049 70.2892C175.049 70.2892 175.139 70.2371 175.262 70.3414C175.299 70.373 175.327 70.4124 175.346 70.4568C175.365 70.5011 175.374 70.5491 175.371 70.5973C175.359 70.7203 175.306 70.8356 175.22 70.9243C175.039 71.1233 174.708 71.1991 174.556 71.4408C174.521 71.504 174.503 71.5749 174.503 71.647C174.503 71.7191 174.521 71.79 174.556 71.8531C174.595 71.9193 174.653 71.9727 174.722 72.0072C174.791 72.0416 174.868 72.0556 174.945 72.0474C175.022 72.041 175.095 72.0113 175.156 71.9622C175.216 71.9131 175.259 71.847 175.281 71.7726C175.304 71.7035 175.309 71.6296 175.294 71.5582C175.28 71.4868 175.248 71.4202 175.201 71.365C175.105 71.2543 174.989 71.1626 174.859 71.0949C174.789 71.0686 174.725 71.0268 174.672 70.9727C174.62 70.9186 174.58 70.8535 174.556 70.7821C174.542 70.7206 174.542 70.6568 174.556 70.5952C174.57 70.5337 174.597 70.4761 174.637 70.4267C174.693 70.3556 174.766 70.3002 174.85 70.2655C174.987 70.2182 175.068 70.2276 175.073 70.2371C175.077 70.2466 174.997 70.2371 174.878 70.3224C174.809 70.3596 174.751 70.4134 174.708 70.4788C174.681 70.5185 174.663 70.5638 174.655 70.6114C174.648 70.659 174.651 70.7076 174.665 70.7537C174.712 70.9575 175.092 70.9859 175.314 71.275C175.378 71.3494 175.422 71.4389 175.442 71.5351C175.462 71.6313 175.457 71.731 175.428 71.8247C175.396 71.9278 175.333 72.0188 175.249 72.0863C175.164 72.1539 175.062 72.1947 174.954 72.2038C174.848 72.2153 174.74 72.1959 174.644 72.148C174.549 72.1001 174.469 72.0257 174.414 71.9337C174.365 71.847 174.339 71.749 174.339 71.6494C174.339 71.5497 174.365 71.4518 174.414 71.365C174.511 71.2292 174.641 71.1213 174.793 71.0522C174.91 70.9955 175.019 70.9255 175.12 70.8437C175.195 70.7771 175.245 70.6868 175.262 70.5878C175.266 70.5514 175.262 70.5147 175.252 70.4797C175.241 70.4447 175.224 70.4122 175.201 70.384C175.144 70.2892 175.049 70.3035 175.049 70.2892Z" fill="#263238"/>
<path d="M174.983 69.6921C174.874 69.2245 174.874 68.738 174.983 68.2704C175.092 68.738 175.092 69.2245 174.983 69.6921Z" fill="#263238"/>
<path d="M181.821 69.1708C181.681 69.2208 181.533 69.2433 181.385 69.2371L180.911 69.2656C180.876 69.2775 180.838 69.2775 180.802 69.2656C180.779 69.2507 180.761 69.229 180.751 69.2035C180.741 69.1781 180.739 69.1501 180.745 69.1234C180.762 69.0636 180.796 69.0105 180.845 68.9718L181.053 68.7538C181.195 68.6433 181.289 68.4818 181.314 68.3035C181.318 68.2394 181.301 68.1757 181.265 68.1225C181.229 68.0693 181.176 68.0296 181.115 68.0097C181.019 67.9981 180.921 68.0163 180.835 68.0619C180.764 68.0903 180.726 68.1092 180.717 68.0998C180.707 68.0903 180.741 68.0571 180.802 68.0097C180.894 67.9308 181.013 67.8901 181.134 67.896C181.228 67.915 181.313 67.9668 181.373 68.0423C181.433 68.1178 181.464 68.212 181.461 68.3083C181.443 68.5235 181.341 68.7229 181.177 68.8628L180.959 69.076C180.921 69.1092 180.892 69.1424 180.892 69.1566H180.921H181.395C181.537 69.1374 181.681 69.1422 181.821 69.1708Z" fill="#263238"/>
<path d="M158.841 69.1424C158.841 69.1424 158.841 68.9812 158.841 68.7016C158.841 68.422 158.841 68.0097 158.817 67.5311C158.817 66.5358 158.789 65.1615 158.784 63.5881L158.86 63.6687H157.377L157.457 63.5881V65.2326C157.457 65.7586 157.457 66.261 157.457 66.7349C157.457 67.6827 157.457 68.4884 157.434 69.1376L157.386 69.0902L158.467 69.1139C158.723 69.1139 158.865 69.1139 158.87 69.1376C158.745 69.1456 158.62 69.1456 158.495 69.1376L157.386 69.1613H157.339V69.1139C157.339 68.4647 157.339 67.6495 157.339 66.7112C157.339 66.2373 157.339 65.7349 157.339 65.2089V63.5644L157.419 63.4839H158.936V63.5597C158.936 65.1662 158.936 66.5643 158.898 67.5548C158.898 68.0287 158.898 68.4173 158.898 68.7111C158.891 68.8562 158.872 69.0005 158.841 69.1424Z" fill="#263238"/>
<path d="M172.987 69.1424C172.982 69.0856 172.982 69.0285 172.987 68.9718C172.987 68.8485 172.987 68.6969 172.987 68.4978C172.987 68.0713 172.987 67.4932 172.964 66.7775C172.964 65.3274 172.935 63.318 172.931 61.0385L173.011 61.1143H171.523L171.604 61.0385V62.2896C171.604 62.7019 171.604 63.1047 171.604 63.4981C171.604 64.2895 171.604 65.0336 171.604 65.7302C171.604 67.1045 171.58 68.2704 171.575 69.1234L171.532 69.0808H172.618H172.912H173.021C172.896 69.0895 172.771 69.0895 172.646 69.0808L171.532 69.1045H171.49V69.0618C171.49 68.2088 171.49 67.0429 171.461 65.6686C171.461 64.9719 171.461 64.2469 171.461 63.4365C171.461 63.0431 171.461 62.6403 171.461 62.228V60.9769L171.542 60.8963H173.106V60.9769C173.106 63.2896 173.106 65.3274 173.073 66.7728C173.073 67.4789 173.073 68.0524 173.049 68.4741C173.049 68.6542 173.049 68.8059 173.049 68.9481C173.049 69.0902 172.987 69.1471 172.987 69.1424Z" fill="#263238"/>
<path d="M162.419 69.1424C162.414 69.073 162.414 69.0032 162.419 68.9338C162.419 68.7822 162.419 68.5879 162.419 68.3462C162.419 67.8296 162.419 67.1045 162.395 66.2041C162.395 64.389 162.395 61.882 162.362 59.0528L162.443 59.1333H160.955C161.116 58.9722 160.997 59.0907 161.035 59.0575V60.6593C161.035 61.1854 161.035 61.6972 161.035 62.1996C161.035 63.1995 161.035 64.1426 161.035 65.0099C161.035 66.7349 161.012 68.1566 161.002 69.1424L160.964 69.1044H162.059H162.348H162.452H162.362H162.078H160.964H160.926V69.0665C160.926 68.0808 160.926 66.6591 160.898 64.934C160.898 64.0668 160.898 63.1237 160.898 62.1237C160.898 61.6214 160.898 61.1096 160.898 60.5835V58.9817C160.936 58.9438 160.817 59.0575 160.978 58.8964H162.542V58.9722C162.542 61.8157 162.519 64.3511 162.509 66.1804C162.509 67.0714 162.509 67.7917 162.486 68.3035C162.486 68.5405 162.486 68.7301 162.486 68.8722C162.486 69.0144 162.419 69.1471 162.419 69.1424Z" fill="#263238"/>
<path d="M165.917 69.1092C165.915 69.0824 165.915 69.0555 165.917 69.0286V68.7775C165.917 68.5595 165.917 68.2562 165.917 67.8723C165.917 67.0809 165.917 65.9482 165.893 64.5549C165.893 61.7399 165.869 57.8491 165.855 53.4796L165.936 53.5602H164.433L164.509 53.4843V58.4936C164.509 60.0765 164.509 61.5645 164.509 62.9199C164.509 65.6117 164.481 67.768 164.471 69.0808L164.443 69.0523H165.538H165.926C165.926 69.0523 165.898 69.0523 165.836 69.0523H165.571H164.457H164.424V69.0192C164.424 67.6827 164.424 65.5264 164.391 62.8583C164.391 61.5029 164.391 60.0148 164.391 58.432C164.391 57.6358 164.391 56.8207 164.391 55.9819V53.4227C164.424 53.3848 164.31 53.4986 164.471 53.3374H166.035V53.418C166.035 57.8064 166.035 61.7209 166.002 64.5502C166.002 65.9435 166.002 67.0714 165.978 67.8676C165.978 68.2467 165.978 68.5453 165.978 68.7585V68.986C165.921 69.0903 165.921 69.1139 165.917 69.1092Z" fill="#263238"/>
<path d="M169.504 69.1092C169.504 69.1092 169.504 69.0618 169.504 68.9718C169.504 68.8817 169.504 68.7395 169.504 68.5689C169.504 68.2135 169.504 67.6969 169.504 67.0382C169.504 65.7065 169.504 63.7824 169.48 61.4081C169.48 56.669 169.48 50.0674 169.447 42.7218L169.528 42.8024H168.04C168.196 42.646 168.087 42.7645 168.12 42.7313V47.2666C168.12 48.7452 168.12 50.1859 168.12 51.5745C168.12 54.3563 168.12 56.9344 168.12 59.2424C168.12 63.8393 168.087 67.332 168.078 69.1092H169.191H169.566C169.566 69.1092 169.537 69.1092 169.476 69.1092H169.206H168.078H168.054V69.0808C168.054 67.3036 168.03 63.8109 168.016 59.2139C168.016 56.906 168.016 54.3279 168.016 51.546C168.016 50.1575 168.016 48.7026 168.016 47.2382V42.7123C168.054 42.6744 167.935 42.7834 168.097 42.6223H169.661V42.7123C169.661 50.0817 169.661 56.6832 169.627 61.4555C169.627 63.8251 169.627 65.7207 169.604 67.0666C169.604 67.7206 169.604 68.2277 169.604 68.5832C169.604 68.749 169.604 68.877 169.604 68.9718C169.604 69.0665 169.504 69.1139 169.504 69.1092Z" fill="#263238"/>
<path d="M10.4121 70.6731L11.6774 92.8664L48.8084 90.748L10.4121 70.6731ZM16.6156 79.2841L32.5864 87.8145L17.1511 88.6817L16.6156 79.2841Z" fill="#FF5138"/>
<path d="M14.0991 72.6114C13.9807 73.1004 13.7822 73.5664 13.5115 73.9905C13.3116 74.4556 13.0344 74.8834 12.6916 75.2558C12.8076 74.7616 13.0063 74.2905 13.2792 73.8625C13.4816 73.4031 13.7587 72.9803 14.0991 72.6114Z" fill="#263238"/>
<path d="M19.7955 75.5544C19.6769 76.0374 19.4783 76.4971 19.2079 76.9145C19.0117 77.368 18.7374 77.7834 18.3975 78.1419C18.5122 77.6584 18.7094 77.1983 18.9804 76.7818C19.1757 76.3267 19.4518 75.9109 19.7955 75.5544Z" fill="#263238"/>
<path d="M25.4872 78.4974C25.322 78.9634 25.0784 79.3977 24.7669 79.7817C24.5235 80.2159 24.2022 80.6014 23.819 80.9191C23.9836 80.4513 24.2273 80.0153 24.5394 79.63C24.7853 79.199 25.1062 78.8154 25.4872 78.4974Z" fill="#263238"/>
<path d="M31.0888 81.5731C30.929 82.0429 30.6849 82.4797 30.3685 82.8621C30.1195 83.2924 29.799 83.677 29.4207 83.9995C29.5805 83.5296 29.8246 83.0928 30.141 82.7104C30.3899 82.2802 30.7105 81.8955 31.0888 81.5731Z" fill="#263238"/>
<path d="M36.9369 84.5729C36.7982 85.0633 36.5771 85.5264 36.2829 85.9425C36.0631 86.3991 35.7683 86.8156 35.4109 87.1747C35.7628 86.2245 36.2793 85.3438 36.9369 84.5729Z" fill="#263238"/>
<path d="M43.0077 87.7339C42.8957 88.1984 42.6998 88.6385 42.4295 89.0324C42.2323 89.4672 41.9595 89.8635 41.6239 90.203C41.7383 89.7371 41.9358 89.2956 42.2068 88.8997C42.3991 88.4648 42.6707 88.0695 43.0077 87.7339Z" fill="#263238"/>
<path d="M15.8763 73.5403C15.9379 73.5782 15.8336 73.9004 15.6393 74.2701C15.445 74.6397 15.2365 74.9004 15.1654 74.8672C15.0943 74.834 15.2081 74.507 15.4024 74.1421C15.5967 73.7772 15.8147 73.5166 15.8763 73.5403Z" fill="#263238"/>
<path d="M17.7387 74.4644C17.8051 74.4976 17.6961 74.8246 17.5018 75.1895C17.3075 75.5544 17.1037 75.8245 17.0279 75.7914C16.952 75.7582 17.0753 75.4312 17.2648 75.0615C17.4544 74.6919 17.6771 74.436 17.7387 74.4644Z" fill="#263238"/>
<path d="M21.895 76.6681C21.9566 76.706 21.8523 77.0282 21.658 77.3979C21.4637 77.7675 21.2552 78.0329 21.1841 77.995C21.113 77.9571 21.2267 77.6349 21.4211 77.2699C21.6154 76.905 21.8334 76.6349 21.895 76.6681Z" fill="#263238"/>
<path d="M23.7622 77.6017C23.8238 77.6349 23.7195 77.9619 23.5252 78.3268C23.3309 78.6917 23.1224 78.9618 23.0513 78.9286C22.9802 78.8955 23.0939 78.5685 23.2882 78.1988C23.4825 77.8292 23.6958 77.5685 23.7622 77.6017Z" fill="#263238"/>
<path d="M27.5203 79.7059C27.5866 79.739 27.4776 80.066 27.2833 80.4309C27.089 80.7959 26.8852 81.066 26.8094 81.0328C26.7336 80.9996 26.8521 80.6726 27.0464 80.303C27.2407 79.9333 27.4587 79.6774 27.5203 79.7059Z" fill="#263238"/>
<path d="M29.3022 80.6252C29.3685 80.6584 29.2595 80.9854 29.0652 81.3503C28.8709 81.7152 28.6671 81.9854 28.5913 81.9522C28.5155 81.919 28.634 81.5873 28.8283 81.2224C29.0226 80.8575 29.2406 80.6252 29.3022 80.6252Z" fill="#263238"/>
<path d="M33.1456 82.6346C33.2072 82.6726 33.103 82.9948 32.9087 83.3645C32.7144 83.7341 32.5106 83.9948 32.4348 83.9616C32.3589 83.9284 32.4774 83.6014 32.6717 83.2365C32.866 82.8716 33.084 82.6015 33.1456 82.6346Z" fill="#263238"/>
<path d="M35.2119 83.7294C35.2735 83.7673 35.1692 84.0895 34.9749 84.4592C34.7806 84.8289 34.5721 85.0942 34.501 85.0563C34.4299 85.0184 34.5436 84.6962 34.7379 84.3312C34.9322 83.9663 35.1502 83.6962 35.2119 83.7294Z" fill="#263238"/>
<path d="M38.9273 85.6866C38.9889 85.7198 38.8847 86.0468 38.6904 86.4117C38.4961 86.7766 38.2875 87.0467 38.2164 87.0136C38.1454 86.9804 38.2591 86.6534 38.4534 86.2838C38.6477 85.9141 38.861 85.6534 38.9273 85.6866Z" fill="#263238"/>
<path d="M41.0694 86.7861C41.131 86.824 41.0267 87.151 40.8324 87.5159C40.6381 87.8808 40.4296 88.1509 40.3585 88.113C40.2874 88.0751 40.4012 87.7529 40.5955 87.388C40.7898 87.023 41.0078 86.7529 41.0694 86.7861Z" fill="#263238"/>
<path d="M73.9162 39.793C73.9162 39.793 73.9162 39.7646 73.9162 39.7125C73.9162 39.6604 73.9162 39.575 73.9162 39.4755C73.9162 39.267 73.9162 38.9637 73.9162 38.5704C73.9162 37.7742 73.9162 36.6178 73.9162 35.1487C73.9162 32.2105 73.8925 28.04 73.8783 22.9976L73.9494 23.064H57.1539L57.2298 22.9834C57.2298 29.1443 57.2298 34.8975 57.2298 39.7788L57.1634 39.7077L69.3145 39.7457H72.7362H72.7646H69.3619L57.1634 39.7788H57.045V39.7077C57.045 34.8265 57.045 29.0637 57.045 22.9123V22.8318H57.1255H73.9209H73.9873V22.9028C73.9873 27.9453 73.9636 32.1489 73.9541 35.1013C73.9541 36.561 73.9541 37.7126 73.9541 38.504C73.9541 38.8926 73.9541 39.1864 73.9541 39.395V39.6983L73.9162 39.793Z" fill="#FF5138"/>
<path d="M73.9162 39.793C73.9567 39.7601 73.9995 39.73 74.0442 39.703L74.428 39.4566L75.9161 38.5087L81.3851 35.1297L81.3566 35.1819C81.3566 30.7982 81.3566 24.9928 81.3566 18.6376L81.4324 18.7182H81.3898H64.8313H64.8598L59.206 21.8602L57.661 22.7227L57.2582 22.9407L57.1208 23.0118C57.162 22.9813 57.2047 22.9528 57.2487 22.9265L57.6468 22.6896L59.1728 21.8033L64.7839 18.5807H81.3424H81.4656V18.6613C81.4656 25.0165 81.4656 30.8219 81.4656 35.2056V35.2387H81.4372L75.9398 38.5988L74.4375 39.5087L74.0442 39.7409L73.9162 39.793Z" fill="#FF5138"/>
<path d="M81.4135 18.6187C81.4372 18.6566 79.7785 19.666 77.7075 20.8745C75.6365 22.083 73.9162 23.0355 73.9162 22.9976C73.9162 22.9597 75.5512 21.9503 77.6269 20.7371C79.7027 19.5239 81.3945 18.5808 81.4135 18.6187Z" fill="#FF5138"/>
<path d="M57.917 39.1011C57.917 39.139 57.7748 39.2765 57.5568 39.3997C57.3388 39.5229 57.1397 39.5987 57.1208 39.5608C57.1018 39.5229 57.2582 39.3902 57.4762 39.2623C57.6942 39.1343 57.8933 39.0632 57.917 39.1011Z" fill="#FF5138"/>
<path d="M59.5093 38.1865C59.533 38.2244 59.3719 38.3618 59.1491 38.485C58.9264 38.6083 58.7321 38.6841 58.7131 38.6462C58.6942 38.6083 58.8506 38.4756 59.0733 38.3476C59.296 38.2197 59.4856 38.1486 59.5093 38.1865Z" fill="#FF5138"/>
<path d="M61.1016 37.2718C61.1253 37.3098 60.9642 37.4472 60.7462 37.5704C60.5282 37.6936 60.3292 37.7694 60.3055 37.7315C60.2818 37.6936 60.4429 37.5609 60.6656 37.433C60.8884 37.305 61.0827 37.2339 61.1016 37.2718Z" fill="#FF5138"/>
<path d="M62.6987 36.3572C62.6987 36.3951 62.5566 36.5278 62.3386 36.6557C62.1206 36.7837 61.9215 36.8548 61.8978 36.8169C61.8741 36.7789 62.04 36.6463 62.258 36.5183C62.476 36.3903 62.675 36.3193 62.6987 36.3572Z" fill="#FF5138"/>
<path d="M64.2911 35.4425C64.2911 35.4804 64.1536 35.6131 63.9309 35.7411C63.7082 35.869 63.5139 35.9401 63.4949 35.9022C63.4759 35.8643 63.6323 35.7316 63.8503 35.6037C64.0683 35.4757 64.2674 35.4046 64.2911 35.4425Z" fill="#FF5138"/>
<path d="M64.6939 33.836C64.7365 33.836 64.7697 34.0397 64.7697 34.3099C64.7697 34.58 64.7318 34.7838 64.6844 34.7838C64.637 34.7838 64.6086 34.58 64.6086 34.3099C64.6086 34.0397 64.6512 33.8312 64.6939 33.836Z" fill="#FF5138"/>
<path d="M64.7081 31.9972C64.7508 31.9972 64.7887 32.201 64.7839 32.4711C64.7792 32.7412 64.746 32.945 64.7034 32.945C64.6607 32.945 64.6228 32.7365 64.6228 32.4711C64.6228 32.2057 64.6655 31.9972 64.7081 31.9972Z" fill="#FF5138"/>
<path d="M64.7223 30.1584C64.765 30.1584 64.8029 30.3669 64.7982 30.6323C64.7934 30.8977 64.7602 31.1062 64.7176 31.1062C64.6749 31.1062 64.637 30.8977 64.637 30.6323C64.637 30.3669 64.6797 30.1584 64.7223 30.1584Z" fill="#FF5138"/>
<path d="M64.7365 28.3196C64.7792 28.3196 64.8171 28.5282 64.8124 28.7936C64.8076 29.0589 64.7745 29.2675 64.7318 29.2675C64.6892 29.2675 64.6512 29.0637 64.656 28.7936C64.6607 28.5234 64.6939 28.3196 64.7365 28.3196Z" fill="#FF5138"/>
<path d="M64.7508 26.4856C64.7934 26.4856 64.8313 26.6894 64.8266 26.9595C64.8219 27.2296 64.7887 27.4334 64.746 27.4334C64.7034 27.4334 64.6655 27.2296 64.6702 26.9595C64.6749 26.6894 64.7081 26.4856 64.7508 26.4856Z" fill="#FF5138"/>
<path d="M64.765 24.6468C64.8124 24.6468 64.8456 24.8506 64.8408 25.1207C64.8361 25.3909 64.8029 25.5946 64.7603 25.5946C64.7176 25.5946 64.6797 25.3861 64.6844 25.1207C64.6892 24.8553 64.7223 24.6468 64.765 24.6468Z" fill="#FF5138"/>
<path d="M64.7792 22.808C64.8266 22.808 64.8597 23.0166 64.855 23.282C64.8503 23.5473 64.8171 23.7559 64.7744 23.7559C64.7318 23.7559 64.6939 23.5473 64.6986 23.282C64.7034 23.0166 64.7365 22.808 64.7792 22.808Z" fill="#FF5138"/>
<path d="M64.7934 20.9693C64.8408 20.9693 64.874 21.1778 64.8692 21.4432C64.8645 21.7086 64.8313 21.9171 64.7887 21.9171C64.746 21.9171 64.7081 21.7133 64.7128 21.4432C64.7176 21.1731 64.7508 20.9693 64.7934 20.9693Z" fill="#FF5138"/>
<path d="M64.8076 19.1352C64.855 19.1352 64.8882 19.339 64.8834 19.6091C64.8787 19.8793 64.8455 20.083 64.8029 20.083C64.7602 20.083 64.7223 19.8793 64.7271 19.6091C64.7318 19.339 64.765 19.1352 64.8076 19.1352Z" fill="#FF5138"/>
<path d="M80.4988 35.1676C80.4988 35.1297 80.7026 35.0966 80.9728 35.0966C81.2429 35.0966 81.4467 35.1297 81.4467 35.1676C81.4467 35.2056 81.2429 35.2435 80.9728 35.2435C80.7026 35.2435 80.4988 35.2103 80.4988 35.1676Z" fill="#FF5138"/>
<path d="M78.6601 35.1676C78.6601 35.1297 78.8638 35.0966 79.134 35.0966C79.4041 35.0966 79.6079 35.1297 79.6079 35.1676C79.6079 35.2056 79.3994 35.2435 79.134 35.2435C78.8686 35.2435 78.6601 35.2103 78.6601 35.1676Z" fill="#FF5138"/>
<path d="M76.8213 35.1676C76.8213 35.1297 77.0251 35.0966 77.2952 35.0966C77.5653 35.0966 77.7691 35.1297 77.7691 35.1676C77.7691 35.2056 77.5653 35.2435 77.2952 35.2435C77.0251 35.2435 76.8213 35.2103 76.8213 35.1676Z" fill="#FF5138"/>
<path d="M74.9825 35.1676C74.9825 35.1297 75.191 35.0966 75.4564 35.0966C75.7218 35.0966 75.9303 35.1297 75.9303 35.1676C75.9303 35.2056 75.7266 35.2435 75.4564 35.2435C75.1863 35.2435 74.9825 35.2103 74.9825 35.1676Z" fill="#FF5138"/>
<path d="M73.158 35.1676C73.158 35.1297 73.3617 35.0966 73.6319 35.0966C73.902 35.0966 74.1058 35.1297 74.1058 35.1676C74.1058 35.2056 73.902 35.2435 73.6319 35.2435C73.3617 35.2435 73.158 35.2103 73.158 35.1676Z" fill="#FF5138"/>
<path d="M71.3097 35.1676C71.3097 35.1297 71.5135 35.0966 71.7836 35.0966C72.0537 35.0966 72.2575 35.1297 72.2575 35.1676C72.2575 35.2056 72.049 35.2435 71.7836 35.2435C71.5182 35.2435 71.3097 35.2103 71.3097 35.1676Z" fill="#FF5138"/>
<path d="M69.4709 35.1676C69.4709 35.1297 69.6747 35.0966 69.9448 35.0966C70.215 35.0966 70.4187 35.1297 70.4187 35.1676C70.4187 35.2056 70.215 35.2435 69.9448 35.2435C69.6747 35.2435 69.4709 35.2103 69.4709 35.1676Z" fill="#FF5138"/>
<path d="M67.6321 35.1676C67.6321 35.1297 67.8407 35.0966 68.1061 35.0966C68.3714 35.0966 68.58 35.1297 68.58 35.1676C68.58 35.2056 68.3762 35.2435 68.1061 35.2435C67.8359 35.2435 67.6321 35.2103 67.6321 35.1676Z" fill="#FF5138"/>
<path d="M65.7981 35.1676C65.7981 35.1297 66.0019 35.0966 66.272 35.0966C66.5421 35.0966 66.7459 35.1297 66.7459 35.1676C66.7459 35.2056 66.5421 35.2435 66.272 35.2435C66.0019 35.2435 65.7981 35.2103 65.7981 35.1676Z" fill="#FF5138"/>
<path d="M64.6844 35.1676C64.6844 35.1297 64.7271 35.0966 64.7792 35.0966C64.8313 35.0966 64.8787 35.1297 64.8787 35.1676C64.8787 35.2056 64.8361 35.2435 64.7792 35.2435C64.768 35.2448 64.7566 35.2439 64.7458 35.2408C64.7349 35.2376 64.7248 35.2324 64.716 35.2254C64.7072 35.2183 64.6998 35.2096 64.6944 35.1997C64.689 35.1898 64.6856 35.1789 64.6844 35.1676Z" fill="#FF5138"/>
<path d="M83.4466 29.5708C83.5868 29.5844 83.7281 29.5844 83.8683 29.5708C84.0525 29.5301 84.2257 29.4501 84.3762 29.3365C84.5266 29.2228 84.6508 29.078 84.7403 28.912C84.8588 28.6609 84.9162 28.3854 84.908 28.1078C84.8997 27.8303 84.8261 27.5586 84.6929 27.315C84.6621 27.248 84.6161 27.1891 84.5585 27.143C84.5009 27.0969 84.4333 27.0649 84.3612 27.0496C84.2097 27.0306 84.0567 27.0714 83.9347 27.1633C83.6818 27.4087 83.4973 27.7158 83.3992 28.0543C83.2665 28.4218 83.1867 28.8064 83.1622 29.1964H83.0058C83.0058 27.9784 82.9821 26.9169 82.9821 26.1586C82.9821 25.8032 82.9821 25.5046 82.9821 25.2677C82.9692 25.1606 82.9692 25.0524 82.9821 24.9454C83.0039 25.0514 83.015 25.1594 83.0153 25.2677C83.0153 25.5046 83.0153 25.8032 83.0532 26.1586C83.0817 26.9169 83.1101 27.9784 83.1338 29.1964H82.9774C83.0028 28.7918 83.0858 28.3928 83.2238 28.0116C83.289 27.8334 83.365 27.6593 83.4513 27.4903C83.5372 27.3185 83.6602 27.1679 83.8115 27.0496C83.8891 26.9906 83.9777 26.9476 84.0721 26.9232C84.1664 26.8988 84.2647 26.8934 84.3612 26.9074C84.453 26.9296 84.5387 26.9716 84.6124 27.0306C84.6861 27.0895 84.746 27.164 84.7877 27.2486C84.928 27.5153 85.0013 27.8121 85.0013 28.1135C85.0013 28.4149 84.928 28.7117 84.7877 28.9784C84.6898 29.1527 84.5537 29.3025 84.3895 29.4166C84.2253 29.5307 84.0374 29.6061 83.8399 29.6371C83.7332 29.6546 83.6244 29.6546 83.5176 29.6371C83.4904 29.6191 83.4664 29.5967 83.4466 29.5708Z" fill="#FF5138"/>
<path d="M36.8658 108.221C36.8658 108.221 36.9322 108.221 37.0601 108.278C37.1881 108.335 37.3776 108.378 37.6193 108.477C38.3272 108.756 39.0038 109.109 39.6382 109.529C40.6489 110.194 41.5451 111.018 42.2921 111.97C43.2947 113.228 43.9747 114.711 44.2731 116.292C44.6117 118.218 44.3554 120.202 43.5385 121.979C43.0888 122.968 42.4625 123.868 41.6902 124.633C41.286 125.033 40.8431 125.391 40.368 125.704C40.1168 125.846 39.8941 125.998 39.6098 126.13C39.3254 126.263 39.0885 126.391 38.8089 126.49C36.6004 127.367 34.0697 127.405 31.5296 127.163C30.2595 127.04 28.9799 126.855 27.6767 126.652C26.353 126.462 25.0481 126.159 23.7764 125.746C22.4904 125.338 21.3017 124.67 20.2837 123.784C19.7957 123.338 19.3658 122.831 19.0041 122.277C18.6611 121.723 18.3858 121.13 18.1842 120.51C17.8024 119.303 17.6749 118.029 17.8098 116.77C17.9432 115.569 18.2933 114.402 18.843 113.325C19.9254 111.358 21.5595 109.75 23.5442 108.7C25.2542 107.776 27.122 107.182 29.051 106.946C30.6372 106.758 32.2394 106.747 33.828 106.913C35.0245 107.04 36.2127 107.235 37.3871 107.496C38.3349 107.714 39.0932 107.913 39.5955 108.051L40.1642 108.216L40.3585 108.283L40.1595 108.235L39.5861 108.088C39.0837 107.96 38.3397 107.771 37.3729 107.567C36.1978 107.318 35.0095 107.137 33.8138 107.022C32.237 106.863 30.6473 106.882 29.0747 107.079C27.1664 107.323 25.3201 107.919 23.6295 108.837C21.6778 109.878 20.072 111.466 19.0088 113.406C18.472 114.467 18.1331 115.616 18.0089 116.799C17.8793 118.032 18.0051 119.279 18.3785 120.462C18.5725 121.068 18.8398 121.647 19.1747 122.187C19.5249 122.727 19.9421 123.221 20.4163 123.656C21.4169 124.523 22.5824 125.177 23.8427 125.58C25.107 125.989 26.4039 126.289 27.7193 126.476C29.0131 126.68 30.2974 126.865 31.558 126.988C34.0697 127.23 36.5862 127.197 38.7567 126.334C40.8265 125.535 42.4972 123.951 43.4058 121.927C44.2151 120.178 44.4762 118.225 44.1546 116.325C43.8615 114.768 43.1966 113.305 42.2163 112.06C41.4822 111.113 40.6024 110.289 39.6098 109.619C38.9808 109.196 38.3127 108.834 37.6146 108.539C37.3729 108.439 37.1881 108.378 37.0601 108.325L36.8658 108.221Z" fill="#263238"/>
<path d="M24.2124 120.467C24.087 120.499 23.958 120.515 23.8285 120.514L22.7717 120.566H22.421C22.2873 120.585 22.1518 120.585 22.0182 120.566C21.9336 120.54 21.8624 120.483 21.8191 120.405C21.7833 120.335 21.7623 120.257 21.7575 120.178L21.7291 119.747C21.6959 119.149 21.658 118.505 21.6201 117.851C21.5822 117.197 21.5395 116.529 21.5348 115.927C21.5268 115.632 21.5954 115.339 21.7338 115.079C21.8709 114.863 22.0735 114.697 22.312 114.605C22.654 114.486 23.0185 114.445 23.3783 114.486C23.5092 114.49 23.6387 114.514 23.7622 114.557C23.6329 114.569 23.5028 114.569 23.3735 114.557C23.0292 114.542 22.6856 114.599 22.3641 114.723C22.1612 114.817 21.9947 114.976 21.8902 115.173C21.7717 115.411 21.7147 115.675 21.7243 115.941C21.7243 116.519 21.7954 117.178 21.8239 117.837C21.8523 118.496 21.8902 119.159 21.9234 119.732C21.9518 120.012 21.8902 120.363 22.0845 120.41C22.2024 120.427 22.3221 120.427 22.4399 120.41H23.8617C23.9805 120.414 24.0984 120.433 24.2124 120.467Z" fill="#263238"/>
<path d="M23.6816 117.363C23.3626 117.46 23.0286 117.498 22.6959 117.477C22.3638 117.513 22.0281 117.487 21.7054 117.401C22.0238 117.301 22.3583 117.262 22.6911 117.287C23.0231 117.251 23.359 117.276 23.6816 117.363Z" fill="#263238"/>
<path d="M28.6103 116.481C28.1128 116.551 27.61 116.577 27.108 116.557C26.6096 116.597 26.1088 116.597 25.6104 116.557C26.0928 116.405 26.5977 116.336 27.1032 116.353C27.6092 116.314 28.1183 116.357 28.6103 116.481Z" fill="#263238"/>
<path d="M28.9041 118.747C28.4165 118.858 27.9145 118.893 27.416 118.851C26.9186 118.871 26.4211 118.812 25.9422 118.676C26.4339 118.628 26.929 118.628 27.4208 118.676C27.9164 118.654 28.4128 118.678 28.9041 118.747Z" fill="#263238"/>
<path d="M36.8706 120.107C36.8706 120.107 36.8706 119.903 36.8706 119.529C36.8478 119 36.7521 118.477 36.5862 117.974C36.5103 117.622 36.3164 117.306 36.0365 117.079C35.9564 117.033 35.865 117.012 35.7733 117.018C35.6816 117.024 35.5935 117.057 35.5199 117.112C35.3527 117.236 35.2178 117.398 35.1266 117.586C34.7474 118.518 34.5854 119.524 34.6527 120.529H34.4678C34.522 119.802 34.5125 119.073 34.4394 118.349C34.4133 118.054 34.3721 117.762 34.3162 117.472C34.2693 117.204 34.1281 116.962 33.9181 116.789C33.8173 116.717 33.6963 116.678 33.5721 116.678C33.448 116.678 33.327 116.717 33.2262 116.789C33.0134 116.929 32.8585 117.141 32.7902 117.387C32.7223 117.633 32.6778 117.885 32.6575 118.14C32.6291 118.391 32.6054 118.638 32.5959 118.879C32.5698 119.329 32.5698 119.78 32.5959 120.23H32.449C32.4111 119.164 32.3779 118.292 32.3542 117.652C32.3542 117.368 32.3542 117.135 32.3542 116.951C32.3439 116.869 32.3439 116.786 32.3542 116.704C32.3731 116.785 32.3842 116.868 32.3874 116.951L32.4442 117.652C32.4821 118.287 32.539 119.159 32.6054 120.221H32.4585C32.4343 119.766 32.4343 119.31 32.4585 118.856C32.4585 118.614 32.4869 118.382 32.5153 118.107C32.5346 117.841 32.5807 117.577 32.6528 117.32C32.7306 117.034 32.9089 116.785 33.1551 116.619C33.2968 116.53 33.4615 116.483 33.629 116.486C33.7996 116.487 33.9655 116.542 34.1029 116.643C34.3508 116.841 34.519 117.122 34.5768 117.434C34.6373 117.731 34.6816 118.032 34.7095 118.334C34.7732 119.071 34.7732 119.811 34.7095 120.548H34.5247C34.4621 119.518 34.6406 118.487 35.046 117.538C35.1538 117.32 35.3173 117.133 35.5199 116.998C35.617 116.928 35.7321 116.888 35.8515 116.882C35.9709 116.876 36.0894 116.905 36.1929 116.965C36.4991 117.212 36.7087 117.56 36.7853 117.946C36.9418 118.462 37.0217 118.999 37.0222 119.538C37.0222 119.728 37.0222 119.875 36.9985 119.969C36.9635 120.022 36.9203 120.068 36.8706 120.107Z" fill="#263238"/>
<path d="M41.022 119.808C41.022 119.808 40.9557 119.889 40.7946 119.969C40.5653 120.081 40.3149 120.142 40.06 120.149C39.675 120.161 39.2952 120.057 38.97 119.851C38.5712 119.587 38.2871 119.181 38.1746 118.716C38.0621 118.251 38.1295 117.761 38.3634 117.344C38.5597 117.013 38.85 116.747 39.1975 116.581C39.4269 116.47 39.6774 116.411 39.932 116.406C40.0253 116.399 40.119 116.411 40.2069 116.443C39.8781 116.471 39.557 116.557 39.2591 116.699C38.9495 116.869 38.6934 117.122 38.5198 117.429C38.3211 117.812 38.2673 118.253 38.3684 118.672C38.4694 119.091 38.7184 119.459 39.0695 119.709C39.3653 119.904 39.7105 120.011 40.0647 120.017C40.3942 120.008 40.719 119.938 41.022 119.808Z" fill="#263238"/>
<path d="M42.1404 114.439C41.4261 114.482 40.7189 114.605 40.0315 114.804L39.714 114.908L39.951 114.666C40.4073 114.25 40.803 113.771 41.1263 113.245C41.3789 112.804 41.4663 112.289 41.3727 111.79C41.3206 111.567 41.1879 111.392 41.0078 111.387C40.8204 111.39 40.6366 111.439 40.4723 111.529C40.2209 111.658 39.9985 111.837 39.8183 112.055C39.6903 112.211 39.6382 112.316 39.624 112.306C39.6434 112.198 39.6907 112.097 39.7614 112.012C39.9248 111.762 40.148 111.557 40.4107 111.415C40.5931 111.301 40.8023 111.238 41.0173 111.23C41.0833 111.232 41.1482 111.248 41.2078 111.277C41.2674 111.305 41.3203 111.346 41.3632 111.396C41.4482 111.496 41.5083 111.615 41.5386 111.742C41.6557 112.285 41.5679 112.852 41.2921 113.335C40.9621 113.884 40.548 114.378 40.0647 114.799L39.9841 114.657C40.4888 114.505 41.0117 114.422 41.5386 114.41C41.7393 114.384 41.9431 114.394 42.1404 114.439Z" fill="#263238"/>
<path d="M73.8783 108.832L83.9773 106.885L103.351 111.33L113.17 113.377L113.312 126.794L91.4083 130.827L76.627 126.448L71.0396 118.225L73.8783 108.832Z" fill="#FFBE9D"/>
<path d="M66.7033 110.169L76.2336 107.923C76.2336 107.923 82.9726 128.775 99.6022 127.86C113.156 127.125 113.17 113.377 113.17 113.377L123.08 115.126C123.08 115.126 127.236 140.286 122.682 157.934C118.89 172.626 115.526 192.757 115.526 192.757H49.6946L66.7033 110.169Z" fill="#FF5138"/>
<path d="M163.272 174.635C163.272 174.635 136.122 127.069 131.236 120.965C125.885 114.282 121.615 115.055 121.615 115.055L118.743 147.096L141.828 179.848L147.33 181.834L163.272 174.635Z" fill="#FF5138"/>
<path d="M67.8407 109.903C67.8407 109.903 52.4101 111.136 46.8748 136.443C44.3726 147.878 41.1879 161.28 40.2969 170.285C39.6335 176.82 43.6664 183.616 50.1827 184.45L58.3624 185.966C60.5234 186.367 62.756 185.925 64.6003 184.729C66.4447 183.534 67.7605 181.676 68.2767 179.54L71.0396 168.1L63.6797 165.626L65.3811 131.547L67.8407 109.903Z" fill="#FF5138"/>
<path d="M124.34 132.812C124.377 132.926 124.4 133.044 124.411 133.163C124.454 133.419 124.502 133.76 124.568 134.182C124.601 134.405 124.634 134.656 124.677 134.921C124.72 135.187 124.734 135.485 124.762 135.803C124.829 136.433 124.904 137.153 124.938 137.954C125.052 139.827 125.065 141.705 124.975 143.58C124.865 145.874 124.637 148.161 124.293 150.432C123.938 152.849 123.492 155.134 123.042 157.2C122.592 159.266 122.141 161.119 121.758 162.674C121.374 164.228 121.037 165.474 120.81 166.337C120.696 166.749 120.606 167.081 120.535 167.327C120.506 167.443 120.47 167.557 120.426 167.669C120.436 167.55 120.456 167.433 120.487 167.318C120.544 167.062 120.625 166.73 120.72 166.313L121.592 162.612C121.957 161.053 122.393 159.2 122.824 157.133C123.255 155.067 123.701 152.788 124.056 150.376C124.411 147.963 124.653 145.636 124.753 143.546C124.852 141.456 124.862 139.537 124.753 137.945C124.753 137.149 124.667 136.428 124.615 135.793C124.592 135.48 124.568 135.187 124.549 134.912C124.53 134.637 124.487 134.4 124.464 134.172C124.416 133.751 124.383 133.409 124.355 133.154C124.342 133.04 124.338 132.926 124.34 132.812Z" fill="#263238"/>
<path d="M71.7599 169.322C71.7272 169.255 71.7002 169.186 71.6793 169.114C71.6319 168.958 71.5656 168.759 71.485 168.503L71.1817 167.522C71.0963 167.075 70.9081 166.655 70.632 166.294C70.2261 165.905 69.7412 165.607 69.2102 165.422C68.5859 165.186 67.9421 165.005 67.2862 164.882C65.7224 164.592 64.1372 164.434 62.5471 164.408H62.4191V164.285L63.8124 155.2C64.7081 149.48 65.5232 144.3 66.1156 140.509C66.4237 138.651 66.6701 137.139 66.8454 136.068C66.9307 135.561 67.0018 135.158 67.054 134.86C67.054 134.736 67.0966 134.632 67.1156 134.547C67.1189 134.511 67.1285 134.475 67.144 134.443C67.1513 134.479 67.1513 134.516 67.144 134.552C67.144 134.637 67.144 134.741 67.1061 134.869C67.0682 135.168 67.0113 135.571 66.945 136.082C66.7886 137.158 66.5658 138.675 66.2957 140.537C65.7175 144.328 64.9308 149.499 64.0588 155.228C63.547 158.498 63.0684 161.593 62.6371 164.309L62.5281 164.181C64.1375 164.222 65.7405 164.401 67.3193 164.716C67.9844 164.849 68.6363 165.041 69.2671 165.29C69.8199 165.492 70.3203 165.816 70.7315 166.237C70.9009 166.428 71.027 166.652 71.1012 166.896L71.2765 167.526C71.3855 167.91 71.4755 168.242 71.5514 168.517C71.6272 168.792 71.6746 168.991 71.7125 169.138C71.734 169.198 71.7499 169.26 71.7599 169.322Z" fill="#263238"/>
<path d="M50.505 173.19C50.5201 172.974 50.5615 172.76 50.6282 172.555C50.7772 171.983 50.9771 171.427 51.2253 170.891C52.0335 169.101 53.2934 167.552 54.8812 166.397C56.469 165.241 58.3301 164.518 60.2818 164.299C60.8666 164.228 61.4565 164.209 62.0447 164.242C62.2619 164.245 62.4781 164.272 62.6892 164.323C61.8973 164.327 61.1062 164.376 60.3197 164.47C58.4124 164.733 56.5997 165.463 55.0428 166.596C53.4859 167.728 52.2332 169.228 51.3959 170.962C51.0594 171.688 50.762 172.432 50.505 173.19Z" fill="#263238"/>
<path d="M54.0735 160.593C54.1942 160.562 54.319 160.551 54.4432 160.56C54.7835 160.554 55.1238 160.569 55.4621 160.607C56.5811 160.72 57.6778 160.994 58.7179 161.422C59.7577 161.853 60.731 162.429 61.6087 163.133C61.8748 163.344 62.1265 163.572 62.3622 163.816C62.5281 163.991 62.6181 164.091 62.6039 164.105C62.5897 164.119 62.1869 163.773 61.5045 163.271C59.7149 161.959 57.6329 161.104 55.4384 160.778C54.5996 160.655 54.0735 160.636 54.0735 160.593Z" fill="#263238"/>
<path d="M70.0443 127.86C70.0133 127.636 70.0022 127.409 70.0112 127.182C70.0112 126.746 69.9827 126.121 69.9259 125.348C69.7836 123.333 69.4375 121.337 68.8927 119.391C68.3403 117.449 67.5957 115.566 66.6701 113.771C66.3099 113.083 66.0066 112.534 65.7839 112.164C65.659 111.975 65.5511 111.775 65.4616 111.567C65.6128 111.735 65.7477 111.918 65.8644 112.112C66.1156 112.472 66.4426 113.008 66.8123 113.69C68.7846 117.269 69.9037 121.256 70.0822 125.339C70.1154 126.116 70.1107 126.761 70.0822 127.182C70.092 127.409 70.0793 127.636 70.0443 127.86Z" fill="#263238"/>
<g opacity="0.3">
<path d="M123.639 154.039C127.572 147.371 127.658 138.708 124.222 131.765C125.327 139.162 125.089 146.698 123.521 154.01" fill="black"/>
</g>
<g opacity="0.3">
<path d="M88.6169 161.579C85.6313 162.456 81.5083 162.669 78.5842 161.579C80.8637 164.816 85.2569 165.986 89.0672 164.934C92.8774 163.882 96.3938 160.067 96.6876 156.119C94.8441 158.612 91.6073 160.716 88.6169 161.579Z" fill="black"/>
</g>
<path d="M99.6022 150.812C99.5884 150.902 99.5645 150.991 99.5311 151.077C99.4742 151.248 99.4079 151.508 99.2752 151.821C98.9297 152.727 98.4997 153.598 97.9909 154.423C97.2407 155.653 96.3343 156.781 95.2943 157.778C92.7429 160.262 89.4493 161.843 85.9156 162.28C84.4872 162.465 83.0409 162.465 81.6125 162.28C80.6478 162.16 79.696 161.952 78.769 161.659C78.4373 161.56 78.1956 161.451 78.025 161.389C77.9384 161.36 77.8544 161.323 77.7738 161.28C78.1181 161.358 78.4581 161.453 78.7927 161.565C82.8053 162.68 87.0844 162.326 90.8585 160.565C94.5948 158.728 97.5466 155.61 99.1757 151.778C99.4505 151.162 99.5785 150.802 99.6022 150.812Z" fill="#263238"/>
<path d="M66.3147 183.99C66.3147 183.99 66.2815 184.042 66.1962 184.118C66.0769 184.237 65.9485 184.346 65.8123 184.445C65.3166 184.815 64.7667 185.106 64.1821 185.308C63.3129 185.597 62.4059 185.756 61.4903 185.781C60.3831 185.817 59.2748 185.777 58.1729 185.663C55.8033 185.459 53.6991 185.113 52.1779 184.843C51.4149 184.706 50.7988 184.587 50.377 184.497C50.1524 184.467 49.9316 184.413 49.7183 184.336C49.9441 184.339 50.1692 184.362 50.3913 184.402L52.2063 184.668C53.7323 184.9 55.846 185.213 58.1966 185.417C59.2985 185.53 60.4064 185.576 61.5139 185.554C62.4109 185.535 63.3009 185.392 64.1584 185.127C64.9301 184.859 65.657 184.475 66.3147 183.99Z" fill="#263238"/>
<path d="M119.838 59.2992L121.786 57.4036C124.378 58.5315 125.577 61.5408 126.018 64.3369C126.459 67.133 126.392 70.0712 127.582 72.6398C128.492 74.616 130.146 76.4311 129.951 78.6158C129.767 80.6774 127.899 82.3455 127.89 84.4165C127.89 86.4117 129.549 87.9424 130.515 89.6864C132.473 93.217 133.743 107.662 132.719 111.572C124.108 110.828 108.858 109.908 100.242 107.927C102.512 93.0843 112.071 72.1375 119.838 59.2992Z" fill="#263238"/>
<path d="M123.691 72.5308C124.288 62.4412 116.962 53.2094 106.749 51.9915C95.9104 50.7025 86.3232 58.4651 85.4228 69.0239L82.8826 111.647C82.8362 112.471 83.0664 113.287 83.5366 113.965C86.0388 117.623 90.5694 120.486 94.6214 121.05C98.5406 121.595 102.517 120.576 105.853 118.718C106.407 118.405 106.868 117.953 107.192 117.405C107.515 116.858 107.689 116.236 107.697 115.6L107.872 106.06C107.871 106.052 107.872 106.043 107.875 106.036C107.878 106.028 107.883 106.021 107.888 106.015C107.894 106.009 107.901 106.004 107.909 106.002C107.917 105.999 107.925 105.998 107.934 105.998C108.826 106.066 109.724 106.04 110.611 105.923C113.132 105.307 119.563 102.833 121.724 93.3924C122.445 90.2646 123.165 81.3787 123.691 72.5308Z" fill="#FFBE9D"/>
<path d="M109.673 86.4686C109.673 86.3738 110.73 86.2695 112.44 86.1747C112.872 86.1747 113.284 86.1036 113.388 85.8193C113.452 85.3846 113.379 84.9408 113.18 84.5492L112.118 81.2318C110.649 76.5306 109.616 72.6777 109.806 72.6256C109.995 72.5735 111.346 76.3316 112.815 81.0328C113.166 82.1939 113.502 83.2981 113.824 84.3502C113.957 84.8241 114.199 85.4023 113.938 86.0231C113.865 86.1678 113.761 86.2939 113.632 86.3917C113.503 86.4895 113.353 86.5563 113.194 86.587C112.952 86.6351 112.705 86.6527 112.459 86.6392C110.734 86.6297 109.678 86.5633 109.673 86.4686Z" fill="#263238"/>
<path d="M120.905 76.0994C120.72 76.3032 119.601 75.3648 117.999 75.3174C116.398 75.27 115.203 76.1089 115.033 75.8909C114.947 75.7913 115.142 75.4169 115.663 75.0283C116.352 74.5333 117.185 74.2801 118.033 74.308C118.879 74.3372 119.692 74.6492 120.341 75.1942C120.838 75.6207 121.023 76.0093 120.905 76.0994Z" fill="#263238"/>
<path d="M104.63 76.5069C104.412 76.7107 103.247 75.6539 101.498 75.5023C99.7491 75.3506 98.389 76.1515 98.2136 75.9146C98.1283 75.8056 98.3653 75.4407 98.9577 75.052C99.7515 74.5817 100.674 74.3759 101.593 74.4644C102.512 74.5459 103.38 74.9234 104.066 75.5402C104.583 75.9999 104.735 76.4169 104.63 76.5069Z" fill="#263238"/>
<path d="M107.872 105.994C107.872 105.994 101.341 106.065 93.5314 100.7C93.5314 100.7 95.5503 109.316 107.82 109.046L107.872 105.994Z" fill="#EB996E"/>
<path d="M108.701 90.402C108.404 89.9825 108.006 89.6442 107.544 89.4182C107.082 89.1922 106.571 89.0856 106.057 89.1082C105.686 89.1137 105.32 89.1937 104.98 89.3435C104.641 89.4933 104.335 89.7098 104.081 89.9802C103.838 90.2392 103.682 90.5676 103.636 90.9194C103.589 91.2712 103.653 91.6289 103.82 91.9422C104.232 92.601 105.171 92.8142 105.991 92.6436C106.802 92.4215 107.563 92.0414 108.227 91.5252C108.425 91.3989 108.598 91.2384 108.739 91.0513C108.806 90.9639 108.845 90.8587 108.852 90.749C108.859 90.6393 108.833 90.5301 108.777 90.4352" fill="#EB996E"/>
<path d="M104.649 87.26C104.924 87.26 104.815 89.0609 106.294 90.4447C107.772 91.8285 109.73 91.7622 109.73 92.0133C109.73 92.1318 109.256 92.3356 108.45 92.2977C107.382 92.2383 106.367 91.8114 105.578 91.0892C104.827 90.4019 104.374 89.4475 104.318 88.4306C104.294 87.677 104.526 87.26 104.649 87.26Z" fill="#263238"/>
<path d="M104.91 69.9006C104.711 70.3366 103.048 70.0001 101.062 70.0807C99.0762 70.1613 97.4412 70.5546 97.2042 70.1518C97.1047 69.948 97.408 69.5499 98.0857 69.1613C98.9869 68.6919 99.9821 68.4312 100.998 68.3983C102.013 68.3655 103.023 68.5615 103.953 68.9718C104.64 69.313 104.976 69.6921 104.91 69.9006Z" fill="#263238"/>
<path d="M121.25 70.2561C120.909 70.6352 119.559 70.2561 117.933 70.2561C116.308 70.2561 114.943 70.5262 114.616 70.1328C114.474 69.9433 114.687 69.5641 115.284 69.185C116.111 68.7518 117.034 68.535 117.967 68.5549C118.9 68.5748 119.813 68.8307 120.62 69.2988C121.208 69.6826 121.402 70.0712 121.25 70.2561Z" fill="#263238"/>
<path d="M108.227 49.8589C107.346 48.3613 105.711 47.6789 103.882 47.404C96.4128 46.2714 88.0814 50.7688 83.8968 57.0529C79.7122 63.3369 79.4894 72.7156 82.5509 79.6158L87.2094 76.706C96.5597 72.8483 103.161 63.8393 109.175 54.5317C110.014 53.2663 109.009 51.1622 108.227 49.8589Z" fill="#263238"/>
<path d="M119.734 53.9677C116.611 50.4134 114.341 46.859 107.858 49.3423C106.91 51.1574 108.806 53.5127 110.436 54.8871C112.805 56.906 114.838 58.2661 116.383 59.7115C119.502 62.6261 123.047 72.4313 123.355 77.7817C123.355 78.1182 123.947 73.1895 124.302 73.1374C124.738 73.0711 126.497 70.9195 126.255 67.9813C125.421 57.9391 122.857 57.5173 119.734 53.9677Z" fill="#263238"/>
<path d="M103.901 47.404C104.388 47.309 104.891 47.3517 105.355 47.5273C106.503 47.8791 107.526 48.5516 108.303 49.4656C108.525 49.7225 108.722 50.0002 108.891 50.2949C109.038 50.5796 109.153 50.8801 109.232 51.1906C109.401 51.6912 109.53 52.2047 109.616 52.7261C109.744 53.6407 109.526 54.1952 109.479 54.181C109.431 54.1668 109.502 53.6218 109.303 52.7829C109.172 52.2867 109.013 51.7978 108.829 51.3186C108.745 51.0384 108.634 50.767 108.498 50.5082C108.337 50.2366 108.153 49.9796 107.948 49.7404C107.214 48.8903 106.286 48.2302 105.242 47.8164C104.436 47.5273 103.891 47.4799 103.901 47.404Z" fill="#455A64"/>
<path d="M119.426 79.2035C119.426 79.567 119.288 79.9169 119.038 80.1814C118.789 80.4458 118.448 80.6046 118.085 80.6252C117.904 80.6421 117.723 80.6228 117.55 80.5685C117.377 80.5143 117.217 80.426 117.079 80.3091C116.941 80.1921 116.828 80.0487 116.745 79.8874C116.663 79.726 116.614 79.5499 116.601 79.3694C116.592 79.0002 116.727 78.6419 116.977 78.3703C117.228 78.0988 117.574 77.9353 117.943 77.9145C118.126 77.8969 118.31 77.9168 118.485 77.9729C118.66 78.0289 118.822 78.12 118.961 78.2406C119.1 78.3612 119.212 78.5087 119.292 78.6743C119.372 78.8398 119.418 79.0199 119.426 79.2035Z" fill="#263238"/>
<path d="M103.815 79.2793C103.824 79.6485 103.69 80.0068 103.439 80.2784C103.189 80.5499 102.843 80.7134 102.474 80.7342C102.294 80.7518 102.112 80.7331 101.94 80.6794C101.767 80.6256 101.607 80.5379 101.469 80.4213C101.33 80.3047 101.217 80.1616 101.135 80.0005C101.053 79.8394 101.004 79.6635 100.991 79.4831C100.98 79.1131 101.115 78.7536 101.365 78.481C101.615 78.2084 101.962 78.0443 102.332 78.0235C102.512 78.0059 102.694 78.0247 102.867 78.0788C103.04 78.1328 103.201 78.221 103.339 78.338C103.477 78.4551 103.591 78.5988 103.672 78.7604C103.754 78.9221 103.803 79.0985 103.815 79.2793Z" fill="#263238"/>
<path d="M60.8599 91.1413C61.7414 89.6912 62.7556 88.3263 64.3669 87.7244C65.9782 87.1226 67.8075 86.7766 69.0728 85.6013C71.0585 83.7767 70.9685 80.7437 70.7884 78.0993C70.6083 75.4549 70.5609 72.4123 72.5893 70.6352C74.2859 69.1518 76.9824 69.0191 78.4515 67.3178C79.4325 66.1851 79.6268 64.6212 79.9681 63.1758C80.9159 59.3039 83.0343 52.5412 94.446 48.6504L84.3517 87.0088C85.1053 87.2221 86.9061 88.9376 87.0056 90.0987C87.0957 91.184 86.6265 92.2834 86.617 93.3734C86.617 94.7051 88.0672 95.5013 88.9866 96.487C90.1524 97.7429 90.5126 99.5533 90.3325 101.226C89.9587 103.513 89.3472 105.754 88.5079 107.913C79.1434 106.965 65.4758 106.662 58.3387 100.691C57.045 99.6101 58.898 94.3687 60.8599 91.1413Z" fill="#263238"/>
<path d="M87.2284 76.706C87.053 76.6112 80.1576 73.8625 79.7169 81.1371C79.2762 88.4116 86.655 87.3311 86.6787 87.1273C86.7023 86.9235 87.2284 76.706 87.2284 76.706Z" fill="#FFBE9D"/>
<path d="M84.6313 84.2459C84.5982 84.2175 84.4986 84.3265 84.2759 84.407C83.9677 84.5198 83.6277 84.5079 83.3281 84.3739C82.5793 84.0421 82.0059 82.7863 82.0485 81.4783C82.0726 80.855 82.2344 80.2449 82.5224 79.6916C82.605 79.4694 82.7399 79.2703 82.9155 79.1111C83.0912 78.952 83.3026 78.8373 83.5319 78.777C83.6796 78.7474 83.8331 78.7706 83.9656 78.8425C84.098 78.9143 84.2011 79.0303 84.2569 79.1703C84.3423 79.3788 84.2854 79.521 84.3233 79.5352C84.3612 79.5495 84.4892 79.4215 84.4465 79.1182C84.4192 78.9352 84.3287 78.7675 84.1906 78.6443C84.0007 78.4805 83.7536 78.3987 83.5034 78.4168C83.202 78.4569 82.9159 78.5738 82.6727 78.7564C82.4295 78.939 82.2374 79.1811 82.1149 79.4594C81.7685 80.0706 81.5766 80.7571 81.5557 81.4593C81.513 82.9237 82.1765 84.336 83.2096 84.7009C83.4005 84.7703 83.6047 84.7953 83.8067 84.7739C84.0088 84.7526 84.2032 84.6854 84.3754 84.5777C84.6076 84.4165 84.655 84.2601 84.6313 84.2459Z" fill="#EB996E"/>
<path d="M113.033 78.6064C113.071 78.0597 113.149 77.5164 113.265 76.9808C113.484 76.0846 113.888 75.244 114.45 74.5126C115.013 73.7812 115.722 73.1751 116.532 72.7332C117.342 72.2912 118.235 72.023 119.154 71.9457C120.074 71.8685 120.999 71.9838 121.871 72.2844C122.472 72.487 123.038 72.7811 123.549 73.1564C124.095 73.5336 124.575 73.9979 124.971 74.5307C125.82 75.6426 126.29 76.9976 126.312 78.3965C126.334 79.7954 125.907 81.1646 125.094 82.3029C124.718 82.8469 124.257 83.327 123.729 83.7246C123.231 84.1171 122.675 84.4289 122.08 84.6487C120.98 85.0723 119.787 85.1934 118.625 84.9994C117.611 84.8322 116.652 84.4278 115.824 83.8194C114.613 82.9379 113.733 81.6742 113.327 80.2319C113.196 79.6986 113.101 79.1571 113.042 78.6111C113.04 78.6474 113.04 78.6838 113.042 78.7201C113.042 78.8101 113.042 78.9144 113.042 79.0424C113.046 79.2156 113.064 79.3883 113.094 79.5589C113.12 79.7942 113.165 80.0272 113.227 80.2556C113.608 81.7394 114.486 83.0477 115.715 83.9616C116.626 84.6428 117.694 85.0826 118.82 85.24C119.946 85.3975 121.093 85.2674 122.156 84.862C123.417 84.3854 124.507 83.544 125.288 82.445C126.133 81.2658 126.577 79.8462 126.554 78.3957C126.531 76.9451 126.042 75.5403 125.16 74.3885C124.75 73.8392 124.254 73.3592 123.691 72.9668C123.166 72.5896 122.586 72.2955 121.971 72.0948C120.896 71.7235 119.745 71.6301 118.625 71.8231C117.505 72.0162 116.452 72.4895 115.564 73.199C114.361 74.1527 113.524 75.4917 113.194 76.9903C113.14 77.2212 113.102 77.4555 113.08 77.6917C113.057 77.8645 113.046 78.0387 113.047 78.213C113.047 78.341 113.047 78.4452 113.047 78.5305C113.041 78.5556 113.036 78.5809 113.033 78.6064Z" fill="#455A64"/>
<path d="M94.7209 78.9002C94.7589 78.3537 94.8349 77.8106 94.9484 77.2747C95.3048 75.821 96.1393 74.5292 97.3179 73.6066C98.1266 72.9725 99.073 72.5374 100.081 72.3365C101.237 72.1081 102.432 72.1915 103.545 72.5782C104.145 72.7828 104.711 73.0768 105.223 73.4502C105.768 73.8288 106.248 74.2929 106.645 74.8246C107.493 75.9358 107.963 77.2895 107.986 78.6872C108.009 80.085 107.583 81.4533 106.772 82.592C106.395 83.1359 105.932 83.6159 105.403 84.0137C104.905 84.4064 104.348 84.7182 103.754 84.9378C102.654 85.3614 101.461 85.4825 100.299 85.2885C99.2867 85.1214 98.3286 84.717 97.5028 84.1085C96.2901 83.227 95.4089 81.9635 95.0005 80.521C94.8699 79.9878 94.7765 79.4463 94.7209 78.9002C94.7158 78.9363 94.7158 78.973 94.7209 79.0092C94.7209 79.0945 94.7209 79.2035 94.7209 79.3315C94.7207 79.5047 94.7366 79.6777 94.7683 79.848C94.7938 80.0838 94.8398 80.3169 94.9057 80.5447C95.2822 82.0303 96.1613 83.3398 97.3938 84.2507C98.232 84.8802 99.2057 85.3054 100.237 85.4923C101.436 85.6988 102.668 85.581 103.806 85.1511C105.069 84.6781 106.16 83.8359 106.938 82.7341C107.783 81.5549 108.227 80.1353 108.204 78.6848C108.181 77.2342 107.692 75.8294 106.81 74.6776C105.995 73.6033 104.878 72.7965 103.602 72.3602C102.451 71.9668 101.215 71.8899 100.024 72.1375C98.7553 72.3983 97.5888 73.0194 96.6642 73.9263C95.7396 74.8333 95.0961 75.9876 94.811 77.251C94.7521 77.4809 94.714 77.7156 94.6972 77.9524C94.6691 78.1246 94.658 78.2992 94.664 78.4737V78.7912C94.6748 78.8312 94.6942 78.8684 94.7209 78.9002Z" fill="#455A64"/>
<path d="M107.801 78.4026C107.839 78.4263 108.028 78.1183 108.469 77.7628C109.034 77.2943 109.742 77.032 110.475 77.019C111.209 77.0061 111.926 77.2434 112.507 77.6917C112.981 78.0282 113.161 78.3315 113.194 78.3031C113.076 78.0037 112.876 77.744 112.616 77.5543C112.022 77.0347 111.256 76.755 110.468 76.7699C109.679 76.7848 108.924 77.0932 108.351 77.6349C108.099 77.8341 107.908 78.1002 107.801 78.4026Z" fill="#455A64"/>
<path d="M85.5602 76.2416C85.9964 76.3799 86.4459 76.472 86.9014 76.5164C87.7402 76.6491 88.9013 76.7723 90.1808 76.8861L93.4651 77.1799C93.9151 77.2492 94.3698 77.284 94.8252 77.2842C94.389 77.1447 93.9396 77.051 93.484 77.0046C92.6499 76.8766 91.4888 76.7534 90.2045 76.6396L86.9251 76.3458C86.4738 76.2736 86.0173 76.2387 85.5602 76.2416Z" fill="#455A64"/>
<path d="M123.611 82.7057C124.202 82.0223 124.682 81.2498 125.032 80.4167C125.308 79.5542 125.447 78.654 125.445 77.7486C125.55 78.0036 125.599 78.2785 125.587 78.5542C125.604 79.218 125.494 79.879 125.264 80.502C125.035 81.1251 124.688 81.698 124.241 82.1891C123.895 82.5588 123.629 82.7294 123.611 82.7057Z" fill="white"/>
<path d="M124.757 75.2179C124.795 75.161 125.065 75.2985 125.231 75.6207C125.397 75.943 125.326 76.2368 125.26 76.2321C125.193 76.2273 125.137 75.9856 125.009 75.725C124.881 75.4643 124.715 75.27 124.757 75.2179Z" fill="white"/>
<path d="M106.881 81.2697C106.844 81.2697 106.976 80.8906 107.085 80.2793C107.365 78.6757 107.057 77.0252 106.218 75.6302C105.9 75.0994 105.645 74.8056 105.673 74.7772C105.952 74.9809 106.188 75.2388 106.365 75.5354C106.841 76.2245 107.168 77.0051 107.325 77.8276C107.483 78.6501 107.467 79.4963 107.28 80.3124C107.213 80.6551 107.077 80.9808 106.881 81.2697Z" fill="white"/>
<path d="M81.6883 87.0278C81.6883 87.0278 81.5888 87.1699 81.4466 87.4306C81.2427 87.8008 81.1352 88.2164 81.1339 88.6391C81.1262 88.9455 81.1821 89.2502 81.2979 89.534C81.4137 89.8179 81.587 90.0747 81.8068 90.2883C82.0719 90.5518 82.3956 90.7488 82.7514 90.8633C83.1072 90.9778 83.4851 91.0065 83.8541 90.947C84.2207 90.8716 84.5648 90.712 84.8592 90.4809C85.1536 90.2498 85.3903 89.9535 85.5507 89.6153C85.6803 89.3375 85.7517 89.0362 85.7607 88.7298C85.7697 88.4233 85.7159 88.1183 85.6028 87.8334C85.4533 87.4391 85.2092 87.0876 84.892 86.8098C84.6645 86.6155 84.5128 86.5349 84.5223 86.5159C84.6789 86.5561 84.8246 86.6306 84.9488 86.7339C85.3104 86.9968 85.5924 87.3543 85.764 87.7671C85.9013 88.0726 85.9723 88.4037 85.9723 88.7386C85.9723 89.0735 85.9013 89.4046 85.764 89.7101C85.6009 90.091 85.3458 90.4254 85.0216 90.6833C84.6973 90.9412 84.3141 91.1146 83.9064 91.1879C83.4986 91.2612 83.079 91.2321 82.6852 91.1032C82.2915 90.9743 81.9359 90.7497 81.6504 90.4494C81.4143 90.2125 81.2309 89.9283 81.1125 89.6155C80.994 89.3026 80.9432 88.9682 80.9633 88.6343C80.9796 88.1881 81.119 87.7551 81.3661 87.3832C81.5319 87.1226 81.6883 87.0183 81.6883 87.0278Z" fill="#E0E0E0"/>
<path d="M121.72 92.6199C122.121 92.7804 122.563 92.807 122.98 92.6958C123.427 92.5707 123.829 92.3228 124.141 91.9802C124.526 91.5646 124.786 91.0488 124.89 90.4921C124.999 89.9351 124.929 89.358 124.691 88.8429C124.496 88.4205 124.206 88.049 123.843 87.7576C123.493 87.5016 123.11 87.2928 122.705 87.1368C122.826 87.126 122.947 87.1422 123.061 87.1842C123.381 87.2731 123.683 87.4192 123.952 87.6154C124.354 87.9112 124.679 88.2998 124.9 88.7481C125.17 89.3022 125.253 89.9292 125.137 90.5347C125.021 91.1399 124.731 91.6982 124.302 92.1413C123.955 92.5038 123.508 92.7559 123.018 92.8664C122.69 92.9439 122.346 92.9258 122.028 92.8142C121.805 92.7242 121.71 92.6294 121.72 92.6199Z" fill="#E0E0E0"/>
<path d="M95.4318 186.72L102.46 188.8C102.46 188.8 106.336 190.464 108.223 190.895C110.564 191.43 112.161 190.705 112.246 189.402C112.331 188.099 110.512 187.933 110.512 187.933C108.965 187.344 107.461 186.649 106.009 185.853C104.956 185.121 104.094 184.145 103.498 183.009L106.009 183.355C106.009 183.355 111.294 187.146 113.284 188.293C115.274 189.44 115.71 187.426 115.881 186.819C116.052 186.213 109.995 180.066 109.995 180.066C109.995 180.066 115.796 183.791 116.834 184.72C117.871 185.649 119.435 185.952 119.781 185.35C120.127 184.748 121.08 184.744 119.781 182.175C118.483 179.606 108.09 172.697 108.09 172.697L110.933 172.09L114.052 173.479C114.269 174.549 114.712 175.56 115.35 176.445C116.473 178.114 118.469 176.445 118.469 176.445L117.232 170.048L111.071 166.19C111.071 166.19 104.664 166.972 103.711 167.403C102.758 167.834 101.716 169.65 101.716 169.65L99.9861 170.351C97.299 171.128 97.389 173.815 96.5218 173.9C95.6545 173.986 70.3761 169.057 70.3761 169.057L68.0871 168.46C64.2958 171.337 62.784 176.09 62.1158 180.308C62.1158 180.308 61.4192 182.374 62.1158 183.511L95.4318 186.72Z" fill="#FFBE9D"/>
<path d="M90.7922 182.222C90.7623 182.087 90.7543 181.948 90.7685 181.81C90.7668 181.651 90.7811 181.492 90.8111 181.336C90.8332 181.121 90.8744 180.909 90.9344 180.701C91.2903 179.505 91.8924 178.396 92.7021 177.445C93.4883 176.49 94.3643 175.613 95.318 174.825C95.696 174.48 96.1071 174.174 96.5455 173.91C96.1949 174.273 95.823 174.615 95.4318 174.934C94.5202 175.75 93.6712 176.634 92.8916 177.578C92.1047 178.508 91.4987 179.577 91.105 180.73C90.8254 181.635 90.8443 182.227 90.7922 182.222Z" fill="#EB996E"/>
<path d="M101.74 169.65C101.74 169.65 101.531 169.759 101.209 170.019C100.76 170.398 100.371 170.844 100.057 171.341C99.8305 171.677 99.6369 172.034 99.479 172.408C99.3332 172.847 99.241 173.302 99.2041 173.763C99.1389 174.299 98.9473 174.813 98.6449 175.261C98.3019 175.694 98.0197 176.172 97.8061 176.682C97.4816 177.544 97.4816 178.494 97.8061 179.355L97.8393 179.445L97.7587 179.497C96.6599 180.207 95.8643 181.3 95.5266 182.564C95.4102 183.062 95.3388 183.569 95.3133 184.08C95.2748 183.948 95.2588 183.81 95.2659 183.673C95.2608 183.288 95.3022 182.905 95.3891 182.53C95.6915 181.203 96.4967 180.044 97.6355 179.298L97.5881 179.441C97.245 178.524 97.245 177.514 97.5881 176.597C97.8067 176.072 98.1005 175.582 98.4601 175.142C98.7483 174.718 98.9304 174.23 98.9909 173.72C99.048 172.817 99.3786 171.953 99.9387 171.242C100.273 170.738 100.693 170.297 101.18 169.939C101.311 169.84 101.455 169.759 101.607 169.697C101.649 169.676 101.693 169.66 101.74 169.65Z" fill="#EB996E"/>
<path d="M107.825 172.483C107.218 172.562 106.602 172.497 106.025 172.292C105.449 172.088 104.929 171.751 104.507 171.308C104.555 171.251 105.19 171.739 106.104 172.057C107.019 172.374 107.825 172.412 107.825 172.483Z" fill="#EB996E"/>
<path d="M109.445 179.483C108.53 179.226 107.64 178.887 106.787 178.469C105.9 178.128 105.044 177.713 104.228 177.227C105.14 177.491 106.03 177.83 106.886 178.242C107.773 178.582 108.629 178.997 109.445 179.483Z" fill="#EB996E"/>
<path d="M103.744 182.943C102.824 182.631 101.925 182.261 101.052 181.834C101.547 181.856 102.031 181.982 102.474 182.203C102.946 182.354 103.38 182.606 103.744 182.943Z" fill="#EB996E"/>
<path d="M108.573 179.933C108.165 180.152 107.807 180.452 107.519 180.815C107.231 181.178 107.021 181.595 106.9 182.042C106.867 182.042 106.839 181.876 106.9 181.611C106.968 181.263 107.117 180.937 107.336 180.659C107.556 180.381 107.838 180.16 108.161 180.014C108.393 179.914 108.564 179.905 108.573 179.933Z" fill="#EB996E"/>
<path d="M111.113 176.09C111.142 176.156 110.678 176.393 110.365 176.924C110.205 177.261 110.072 177.609 109.967 177.967C109.899 177.771 109.881 177.562 109.915 177.358C109.948 177.153 110.031 176.96 110.156 176.796C110.516 176.189 111.104 176.024 111.113 176.09Z" fill="#EB996E"/>
<path d="M110.398 169.128C110.374 169.128 110.279 169.019 110.208 168.792C110.123 168.482 110.123 168.154 110.208 167.844C110.291 167.538 110.455 167.259 110.682 167.038C110.853 166.872 110.995 166.816 111.009 166.839C110.783 167.17 110.6 167.528 110.464 167.906C110.394 168.309 110.372 168.719 110.398 169.128Z" fill="#EB996E"/>
<path d="M161.632 171.308C161.632 171.308 161.315 165.09 154.87 163.801C148.425 162.512 137.136 167.991 137.136 167.991L105.507 190.032L106.455 192.757L138.558 188.284L141.496 189.412L164.045 174.597L185.323 159.214L182.954 157.361C182.954 157.361 176.992 161.47 173.049 163.237C169.106 165.005 163.405 168.105 161.632 171.308Z" fill="#F5F5F5"/>
<path d="M105.019 193.658L131.786 177.028L160.083 172.483C160.083 172.483 161.505 174.54 163.907 174.038L187.176 157.925L187.617 158.896L142.491 190.601C141.829 190.843 141.112 190.9 140.42 190.764C139.728 190.629 139.085 190.307 138.562 189.833L105.019 193.658Z" fill="#455A64"/>
<path d="M160.083 172.483C160.019 172.553 159.945 172.614 159.865 172.664L159.211 173.137C158.642 173.545 157.822 174.137 156.841 174.886C154.832 176.379 152.102 178.507 149.154 180.919C146.207 183.331 143.557 185.573 141.662 187.208L139.401 189.151L138.785 189.672C138.719 189.738 138.644 189.796 138.562 189.843C138.562 189.843 138.619 189.767 138.752 189.639L139.335 189.08C139.847 188.606 140.591 187.914 141.529 187.085C143.396 185.417 146.017 183.161 148.979 180.739C151.941 178.317 154.666 176.213 156.718 174.754C157.732 174.019 158.571 173.45 159.159 173.066L159.836 172.63C159.914 172.574 159.996 172.525 160.083 172.483Z" fill="#263238"/>
<path d="M159.794 169.024C157.23 166.271 153.192 165.29 149.439 165.583C145.685 165.877 142.126 167.275 138.624 168.664L105.882 191.075L106.175 191.919L139.093 169.645C139.093 169.645 146.448 167.275 149.704 166.868C155.145 166.19 159.794 169.024 159.794 169.024Z" fill="#E0E0E0"/>
<path d="M164.931 171.972L180.674 161.351C180.674 161.351 167.774 168.062 164.931 171.972Z" fill="#E0E0E0"/>
<path d="M105.882 191.075C105.922 191.034 105.966 190.998 106.014 190.966L106.422 190.677L107.99 189.573L113.791 185.554L132.985 172.374L138.558 168.583C141.729 167.152 145.075 166.147 148.51 165.593C151.284 165.201 154.113 165.6 156.671 166.744C157.627 167.189 158.508 167.781 159.282 168.498C159.86 169.037 160.353 169.662 160.742 170.351C160.986 170.783 161.177 171.243 161.31 171.72C161.343 171.877 161.372 172 161.396 172.095C161.406 172.137 161.414 172.18 161.419 172.223C161.249 171.584 160.997 170.969 160.67 170.394C160.272 169.723 159.777 169.114 159.201 168.588C158.425 167.893 157.55 167.318 156.604 166.882C154.071 165.781 151.282 165.407 148.548 165.801C145.141 166.36 141.821 167.358 138.671 168.773H138.695L133.122 172.564L113.914 185.696L108.066 189.653L106.474 190.715L106.052 190.99C105.998 191.024 105.941 191.053 105.882 191.075Z" fill="#263238"/>
<path d="M134.544 174.133C134.618 174.071 134.701 174.02 134.79 173.981C134.956 173.891 135.202 173.754 135.52 173.592C136.16 173.261 137.093 172.796 138.269 172.266C141.316 170.837 144.55 169.846 147.875 169.323C151.217 168.818 154.632 169.13 157.827 170.232C158.787 170.579 159.71 171.022 160.58 171.555C160.893 171.735 161.116 171.91 161.272 172.029C161.355 172.08 161.433 172.138 161.505 172.204C161.505 172.204 161.159 172.005 160.533 171.649C159.651 171.154 158.727 170.74 157.77 170.413C154.589 169.369 151.209 169.085 147.899 169.583C144.598 170.105 141.38 171.061 138.33 172.427C137.15 172.938 136.207 173.374 135.553 173.682L134.804 174.028C134.721 174.072 134.634 174.107 134.544 174.133Z" fill="#263238"/>
<path d="M184.48 158.546C184.48 158.546 184.413 158.607 184.276 158.702L183.665 159.11L181.395 160.569C179.471 161.802 176.821 163.503 173.916 165.417C171.011 167.332 168.414 169.09 166.519 170.37L164.277 171.877L163.661 172.28C163.592 172.33 163.517 172.371 163.438 172.403C163.497 172.341 163.562 172.285 163.632 172.237L164.225 171.796C164.737 171.417 165.485 170.882 166.419 170.223C168.286 168.91 170.883 167.124 173.793 165.209C176.703 163.294 179.371 161.617 181.314 160.422C182.286 159.825 183.077 159.351 183.627 159.029L184.266 158.659C184.334 158.615 184.405 158.577 184.48 158.546Z" fill="#263238"/>
<path d="M170.158 175.588C169.837 176.361 169.428 177.096 168.94 177.777C168.334 178.497 166.353 179.502 166.196 180.872C166.04 182.241 166.362 185.454 164.22 187.9C162.839 189.421 161.092 190.563 159.144 191.217L150.695 190.393L137.198 185.08C136.896 185.004 136.636 184.812 136.475 184.546C136.314 184.28 136.263 183.961 136.335 183.658C136.419 183.329 136.599 183.032 136.852 182.806C137.105 182.58 137.42 182.434 137.757 182.388L138.079 182.336C138.079 182.336 137.302 181.701 138.416 180.587C139.363 179.64 141.387 180.175 142.43 180.521C143.472 180.867 149.586 183.421 150.68 183.815C151.652 184.161 152.401 184.469 152.401 184.469C152.401 184.469 144.576 179.189 144.467 178.497C144.339 177.668 144.425 177.289 145.226 176.711C146.173 176.024 147.728 176.758 149.235 177.393C150.358 177.867 157.519 181.402 157.519 181.402C157.519 181.402 157.841 181.09 157.519 180.455C157.197 179.82 154.818 176.758 154.443 176.189C154.069 175.621 153.969 175.299 154.344 174.82C154.865 174.142 156.239 173.82 157.505 174.976C158.306 175.716 161.154 177.63 161.154 177.63L174.3 168.038C174.3 168.038 175.935 167.996 175.366 170.275C174.798 172.555 170.158 175.588 170.158 175.588Z" fill="#FFBE9D"/>
<path d="M160.358 183.583C159.832 183.466 159.342 183.224 158.929 182.877C158.517 182.531 158.194 182.09 157.988 181.592C158.05 181.554 158.434 182.142 159.088 182.687C159.742 183.232 160.391 183.511 160.358 183.583Z" fill="#EB996E"/>
<path d="M161.438 177.862C161.438 177.834 161.614 177.782 161.912 177.82C162.285 177.874 162.635 178.029 162.925 178.269C163.215 178.509 163.434 178.824 163.557 179.18C163.647 179.455 163.632 179.654 163.599 179.654C163.401 179.211 163.117 178.812 162.765 178.478C162.367 178.189 161.916 177.98 161.438 177.862Z" fill="#EB996E"/>
<path d="M162.059 180.502C161.988 180.502 161.955 179.796 161.675 178.99C161.396 178.185 161.002 177.592 161.059 177.569C161.475 177.923 161.772 178.399 161.907 178.929C162.119 179.425 162.172 179.975 162.059 180.502Z" fill="#EB996E"/>
<path d="M169.836 174.905C169.836 174.929 169.67 174.834 169.499 174.607C169.283 174.305 169.148 173.952 169.106 173.583C169.065 173.214 169.119 172.84 169.262 172.498C169.376 172.242 169.504 172.114 169.528 172.133C169.359 172.587 169.299 173.074 169.352 173.556C169.406 174.037 169.571 174.499 169.836 174.905Z" fill="#EB996E"/>
<path d="M157.955 186.89C157.651 186.96 157.335 186.96 157.031 186.89C156.294 186.76 155.588 186.497 154.946 186.113C154.306 185.737 153.705 185.301 153.149 184.81C152.902 184.629 152.683 184.411 152.5 184.165C152.773 184.302 153.028 184.473 153.258 184.672C153.836 185.118 154.441 185.528 155.069 185.9C155.691 186.268 156.363 186.545 157.064 186.72C157.604 186.834 157.955 186.852 157.955 186.89Z" fill="#EB996E"/>
<path d="M160.154 185.535C160.22 185.535 160.225 186.009 159.827 186.402C159.429 186.796 158.945 186.777 158.955 186.71C158.964 186.644 159.329 186.549 159.652 186.236C159.974 185.924 160.083 185.526 160.154 185.535Z" fill="#EB996E"/>
<path d="M163.381 183.165C163.41 183.165 163.41 183.293 163.32 183.464C163.195 183.674 163.008 183.84 162.784 183.938C162.562 184.046 162.312 184.082 162.068 184.042C161.879 184.004 161.784 183.928 161.798 183.9C161.813 183.872 162.234 183.938 162.68 183.715C163.125 183.492 163.315 183.142 163.381 183.165Z" fill="#EB996E"/>
<path d="M151.998 188.544C151.974 188.606 148.832 187.298 144.984 185.616C141.136 183.933 138.036 182.516 138.084 182.459C138.131 182.402 141.254 183.71 145.102 185.393C148.951 187.075 152.026 188.483 151.998 188.544Z" fill="#EB996E"/>
<path d="M0.0428986 142.286L10.3268 192.772H99.588C100.061 192.772 100.514 192.584 100.848 192.25C101.182 191.916 101.37 191.462 101.37 190.99C101.371 190.755 101.325 190.523 101.236 190.306C101.146 190.09 101.015 189.893 100.85 189.727C100.684 189.561 100.487 189.429 100.271 189.339C100.054 189.249 99.8224 189.203 99.588 189.203H81.6173L72.0822 142.234C71.9938 141.795 71.757 141.401 71.4117 141.117C71.0664 140.833 70.6337 140.677 70.1865 140.675L1.97646 139.945C1.6854 139.942 1.39735 140.004 1.13339 140.127C0.869431 140.249 0.636241 140.429 0.450884 140.654C0.265527 140.878 0.132694 141.141 0.0621032 141.424C-0.00848773 141.706 -0.0150493 142.001 0.0428986 142.286Z" fill="#E0E0E0"/>
<path d="M0.0429024 142.286L0.0144671 142.134C-0.00482236 141.977 -0.00482236 141.818 0.0144671 141.66C0.0481317 141.358 0.151203 141.068 0.315626 140.812C0.480049 140.557 0.701369 140.342 0.96229 140.186C1.14349 140.075 1.34215 139.995 1.54994 139.949C1.78162 139.911 2.01669 139.897 2.25133 139.907H3.85789L7.87666 139.94L33.6717 140.182L51.6519 140.367L61.7272 140.466L67.0066 140.523L69.7079 140.551C69.9401 140.551 70.1534 140.551 70.3998 140.551C70.6405 140.578 70.8747 140.647 71.0917 140.755C71.5292 140.968 71.8756 141.332 72.068 141.779C72.1568 142 72.2204 142.23 72.2575 142.466L72.395 143.144C72.485 143.618 72.5798 144.054 72.6746 144.509C72.8578 145.422 73.0442 146.341 73.2338 147.267C73.6098 149.115 73.9905 150.987 74.3759 152.883C75.1468 156.674 75.9367 160.549 76.7455 164.508C78.352 172.422 80.0297 180.654 81.75 189.151L81.6315 189.056H99.3037C99.5367 189.047 99.7701 189.062 100 189.099C100.475 189.201 100.892 189.481 101.166 189.881C101.444 190.28 101.557 190.77 101.484 191.25C101.441 191.541 101.33 191.818 101.162 192.059C100.993 192.3 100.771 192.499 100.512 192.639C100.252 192.778 99.9634 192.855 99.6686 192.866H52.2348H10.3268H10.251V192.791C7.10418 177.27 4.56402 164.65 2.77737 155.901C1.8959 151.532 1.21346 148.129 0.749029 145.817C0.521552 144.66 0.347785 143.783 0.227728 143.186C0.10925 142.589 0.0571192 142.286 0.0571192 142.286C0.0571192 142.286 0.128206 142.589 0.251423 143.177C0.37464 143.764 0.564204 144.655 0.80116 145.802C1.27507 148.115 1.9812 151.513 2.88163 155.882C4.67302 164.626 7.25583 177.242 10.4358 192.753L10.341 192.677L52.249 192.653H99.6496C99.9042 192.643 100.153 192.577 100.379 192.459C100.604 192.335 100.797 192.162 100.944 191.953C101.091 191.744 101.188 191.503 101.228 191.25C101.289 190.83 101.191 190.403 100.953 190.051C100.71 189.706 100.347 189.464 99.934 189.374C99.7207 189.341 99.505 189.329 99.2894 189.336H81.5178V189.241C79.7975 180.753 78.1246 172.521 76.5227 164.598C75.7171 160.636 74.9272 156.759 74.1532 152.968L73.0158 147.352C72.831 146.428 72.6414 145.508 72.4566 144.599C72.3665 144.125 72.2717 143.684 72.1817 143.234L72.0443 142.551C72.0088 142.331 71.9516 142.115 71.8737 141.907C71.7433 141.608 71.5361 141.348 71.2731 141.155C71.01 140.962 70.7006 140.842 70.3761 140.807C70.1676 140.807 69.9306 140.807 69.7079 140.807L67.0066 140.774L61.7225 140.717L51.6519 140.599L33.6669 140.385L7.87192 140.068L3.85789 140.016L2.25133 139.992C2.02 139.978 1.78781 139.991 1.55942 140.03C1.35578 140.072 1.16045 140.147 0.981247 140.253C0.725591 140.402 0.507349 140.608 0.34311 140.854C0.178872 141.101 0.0729594 141.381 0.033424 141.675C0.0146013 141.878 0.0177793 142.083 0.0429024 142.286Z" fill="#263238"/>
<path d="M38.2259 168.337C39.8539 168.337 41.1737 167.017 41.1737 165.389C41.1737 163.761 39.8539 162.441 38.2259 162.441C36.5979 162.441 35.2782 163.761 35.2782 165.389C35.2782 167.017 36.5979 168.337 38.2259 168.337Z" fill="white"/>
<path d="M0.128204 142.708C0.128204 142.708 0.232464 142.708 0.436246 142.708H4.80571L17.5681 142.769L59.6752 143.063L65.7649 143.115H67.2625C67.5178 143.106 67.7734 143.121 68.0255 143.163C68.4111 143.241 68.7675 143.425 69.0553 143.693C69.343 143.962 69.5508 144.305 69.6557 144.684C69.7695 145.158 69.85 145.632 69.9496 146.106L72.1248 157.072C73.5039 164.062 74.7503 170.341 75.7929 175.644C76.8355 180.948 77.6885 185.203 78.2478 188.165C78.5321 189.639 78.7501 190.786 78.9018 191.573C78.9729 191.957 79.0297 192.255 79.0676 192.464C79.1055 192.672 79.115 192.767 79.115 192.767C79.115 192.767 79.0866 192.667 79.0439 192.468C79.0013 192.269 78.9349 191.966 78.8544 191.582L78.153 188.203C77.5558 185.241 76.6933 180.971 75.6223 175.697C74.5513 170.422 73.3001 164.119 71.9021 157.134C71.2054 153.641 70.4804 149.973 69.7126 146.172C69.6131 145.698 69.5278 145.224 69.4235 144.75C69.2985 144.3 69.0116 143.912 68.6179 143.66C68.4227 143.535 68.2056 143.448 67.9781 143.404C67.7401 143.366 67.4987 143.351 67.2578 143.362H65.7649L59.6752 143.314L17.5681 142.945L4.80571 142.802L1.33668 142.708H0.431507H0.128204Z" fill="#263238"/>
</svg>
