<svg width="235" height="228" viewBox="0 0 235 228" fill="none" xmlns="http://www.w3.org/2000/svg">
<path opacity="0.9" d="M38.7415 71.0828C29.9936 94.4157 37.5481 125.913 51.0639 150.555C85.8956 214.534 170.656 178.359 169.195 149.303C171.182 121.585 146.286 113.352 137.84 97.8119C90.5493 10.0948 45.7706 51.4091 38.7415 71.0828Z" fill="#FF725E" fill-opacity="0.1"/>
<path opacity="0.2" d="M193.906 83.7874C178.861 93.9479 159.385 107.368 154.008 139.6H152.861C158.093 107.726 176.858 93.987 191.909 83.7874H193.906Z" fill="black"/>
<path d="M116.08 184.688C106.569 184.688 97.1633 180.399 92.581 173.398C89.7555 169.07 86.4713 160.005 96.2513 147.91L97.1186 148.615C90.2031 157.17 88.9275 165.754 93.521 172.789C99.116 181.344 112.315 185.65 123.583 182.586C135.125 179.448 142.13 169.417 142.807 155.062C145.118 105.96 171.219 90.8334 190.275 79.7894C202.12 72.9281 210.675 67.9737 208.795 57.5112C208.532 56.0629 207.955 55.062 207.021 54.4469C204.587 52.842 199.832 53.9548 194.326 55.2353C183.522 57.7517 168.729 61.1963 159.917 46.2156L160.885 45.6564C169.277 59.9325 183.024 56.7284 194.074 54.1561C199.832 52.8196 204.8 51.6621 207.637 53.5242C208.84 54.3127 209.578 55.5596 209.875 57.3267C211.894 68.5553 202.601 73.9459 190.824 80.768C171.985 91.6834 146.192 106.631 143.91 155.14C143.205 170.015 135.897 180.421 123.857 183.693C121.32 184.368 118.705 184.703 116.08 184.688Z" fill="#FF5138"/>
<path opacity="0.2" d="M116.08 184.688C106.569 184.688 97.1633 180.399 92.581 173.398C89.7555 169.07 86.4713 160.005 96.2513 147.91L97.1186 148.615C90.2031 157.17 88.9275 165.754 93.521 172.789C99.116 181.344 112.315 185.65 123.583 182.586C135.125 179.448 142.13 169.417 142.807 155.062C145.118 105.96 171.219 90.8334 190.275 79.7894C202.12 72.9281 210.675 67.9737 208.795 57.5112C208.532 56.0629 207.955 55.062 207.021 54.4469C204.587 52.842 199.832 53.9548 194.326 55.2353C183.522 57.7517 168.729 61.1963 159.917 46.2156L160.885 45.6564C169.277 59.9325 183.024 56.7284 194.074 54.1561C199.832 52.8196 204.8 51.6621 207.637 53.5242C208.84 54.3127 209.578 55.5596 209.875 57.3267C211.894 68.5553 202.601 73.9459 190.824 80.768C171.985 91.6834 146.192 106.631 143.91 155.14C143.205 170.015 135.897 180.421 123.857 183.693C121.32 184.368 118.705 184.703 116.08 184.688Z" fill="white"/>
<path d="M148.397 32.9957C150.975 33.0106 153.536 33.4121 155.995 34.1868C155.995 34.1868 162.149 44.6828 162.877 47.0874C162.619 49.4583 158.619 53.3447 158.619 53.3447L148.397 32.9957Z" fill="#FF5138"/>
<path opacity="0.3" d="M148.397 32.9957C150.975 33.0106 153.536 33.4121 155.995 34.1868C155.995 34.1868 162.149 44.6828 162.877 47.0874C162.619 49.4583 158.619 53.3447 158.619 53.3447L148.397 32.9957Z" fill="white"/>
<path d="M166.625 83.9554C164.255 81.059 162.093 77.9981 160.157 74.7959C159.687 73.9869 159.241 73.163 158.82 72.3242C158.579 71.8489 158.35 71.3736 158.126 70.8927C157.832 70.4247 157.605 69.9186 157.449 69.3885C156.778 62.3035 159.206 57.0863 156.89 51.3993L147.669 55.0005C147.669 55.0005 148.452 65.133 150.243 71.217C151.362 74.9804 153.868 78.2349 156.291 81.2489C157.046 82.1884 157.774 83.1558 158.529 84.1008C159.284 85.0458 160.045 85.8119 160.767 86.701C161.858 88.0487 162.216 89.3404 161.393 90.9285L161.254 91.1802C161.019 91.594 162.115 92.0637 162.809 91.1802C163.928 89.7375 163.771 89.8269 164.745 88.5967C165.338 87.853 166.015 87.0421 166.602 86.3599C166.886 86.0245 167.043 85.6007 167.047 85.1617C167.051 84.7227 166.902 84.2961 166.625 83.9554Z" fill="#FF5138"/>
<path opacity="0.7" d="M166.625 83.9554C164.255 81.059 162.093 77.9981 160.157 74.7959C159.687 73.9869 159.241 73.163 158.82 72.3242C158.579 71.8489 158.35 71.3736 158.126 70.8927C157.832 70.4247 157.605 69.9186 157.449 69.3885C156.778 62.3035 159.206 57.0863 156.89 51.3993L147.669 55.0005C147.669 55.0005 148.452 65.133 150.243 71.217C151.362 74.9804 153.868 78.2349 156.291 81.2489C157.046 82.1884 157.774 83.1558 158.529 84.1008C159.284 85.0458 160.045 85.8119 160.767 86.701C161.858 88.0487 162.216 89.3404 161.393 90.9285L161.254 91.1802C161.019 91.594 162.115 92.0637 162.809 91.1802C163.928 89.7375 163.771 89.8269 164.745 88.5967C165.338 87.853 166.015 87.0421 166.602 86.3599C166.886 86.0245 167.043 85.6007 167.047 85.1617C167.051 84.7227 166.902 84.2961 166.625 83.9554Z" fill="white"/>
<path opacity="0.3" d="M164.37 81.042C162.907 82.6096 161.283 84.019 159.525 85.2471C159.765 85.5155 160 85.8063 160.241 86.0635C162.001 84.875 163.6 83.4634 164.997 81.864L164.37 81.042Z" fill="#FF5138"/>
<path opacity="0.3" d="M166.625 83.9548L166.558 83.8765C166.128 84.3701 165.877 84.9949 165.848 85.6491C165.812 86.0979 165.884 86.5487 166.06 86.9632L166.592 86.3313C166.87 85.9993 167.025 85.5818 167.031 85.149C167.037 84.7162 166.894 84.2945 166.625 83.9548Z" fill="#FF5138"/>
<path d="M146.204 39.706C145.204 41.2019 144.005 42.5546 142.64 43.7266C141.883 44.3788 141.053 44.9417 140.167 45.4042C139.702 45.6426 139.219 45.8463 138.724 46.0137L138.343 46.1367L138.22 46.1703L137.957 46.2429C137.795 46.2813 137.63 46.3075 137.465 46.3212C136.993 46.3573 136.518 46.3138 136.06 46.1926C135.483 46.0289 134.93 45.7902 134.415 45.4824C134.001 45.2404 133.6 44.9773 133.212 44.694C132.513 44.174 131.844 43.6138 131.209 43.0164C129.986 41.8575 128.863 40.5966 127.852 39.2475C127.658 38.9846 127.561 38.6622 127.579 38.3358C127.597 38.0094 127.729 37.6994 127.951 37.4595C128.173 37.2196 128.472 37.0647 128.796 37.0215C129.12 36.9784 129.45 37.0497 129.727 37.2232H129.772C131.092 38.062 132.424 38.9455 133.722 39.734C134.382 40.1198 135.02 40.5112 135.652 40.8132C135.94 40.9642 136.238 41.0986 136.541 41.2158C136.731 41.2994 136.934 41.3486 137.14 41.3612C137.174 41.3612 137.14 41.3221 136.933 41.3277C136.868 41.3238 136.803 41.3238 136.737 41.3277L136.614 41.3556L136.799 41.2606C137.047 41.1269 137.288 40.9794 137.521 40.8188C138.021 40.466 138.489 40.0693 138.919 39.6333C139.897 38.6095 140.812 37.5284 141.661 36.3956C142.126 35.8757 142.768 35.5482 143.462 35.4774C144.157 35.4065 144.852 35.5975 145.413 36.0127C145.973 36.4279 146.358 37.0375 146.492 37.7218C146.626 38.4061 146.499 39.1158 146.137 39.7116L146.204 39.706Z" fill="#FF5138"/>
<path opacity="0.7" d="M146.204 39.706C145.204 41.2019 144.005 42.5546 142.64 43.7266C141.883 44.3788 141.053 44.9417 140.167 45.4042C139.702 45.6426 139.219 45.8463 138.724 46.0137L138.343 46.1367L138.22 46.1703L137.957 46.2429C137.795 46.2813 137.63 46.3075 137.465 46.3212C136.993 46.3573 136.518 46.3138 136.06 46.1926C135.483 46.0289 134.93 45.7902 134.415 45.4824C134.001 45.2404 133.6 44.9773 133.212 44.694C132.513 44.174 131.844 43.6138 131.209 43.0164C129.986 41.8575 128.863 40.5966 127.852 39.2475C127.658 38.9846 127.561 38.6622 127.579 38.3358C127.597 38.0094 127.729 37.6994 127.951 37.4595C128.173 37.2196 128.472 37.0647 128.796 37.0215C129.12 36.9784 129.45 37.0497 129.727 37.2232H129.772C131.092 38.062 132.424 38.9455 133.722 39.734C134.382 40.1198 135.02 40.5112 135.652 40.8132C135.94 40.9642 136.238 41.0986 136.541 41.2158C136.731 41.2994 136.934 41.3486 137.14 41.3612C137.174 41.3612 137.14 41.3221 136.933 41.3277C136.868 41.3238 136.803 41.3238 136.737 41.3277L136.614 41.3556L136.799 41.2606C137.047 41.1269 137.288 40.9794 137.521 40.8188C138.021 40.466 138.489 40.0693 138.919 39.6333C139.897 38.6095 140.812 37.5284 141.661 36.3956C142.126 35.8757 142.768 35.5482 143.462 35.4774C144.157 35.4065 144.852 35.5975 145.413 36.0127C145.973 36.4279 146.358 37.0375 146.492 37.7218C146.626 38.4061 146.499 39.1158 146.137 39.7116L146.204 39.706Z" fill="white"/>
<path d="M125.754 36.0263L126.409 37.1446C126.409 37.1446 126.907 38.6097 127.908 38.8781L130.627 38.0002L130.487 37.7709C130.141 37.2453 130.18 36.222 130.297 35.372C130.415 34.522 129.978 34.4941 129.654 34.7066C129.424 34.9709 129.262 35.2878 129.184 35.6292C129.05 35.4446 128.903 35.2707 128.742 35.1092L127.914 34.2816C127.74 34.1119 127.509 34.0141 127.266 34.0079C127.023 34.0017 126.787 34.0874 126.604 34.248L125.933 34.8464C125.774 34.9936 125.669 35.1906 125.637 35.405C125.604 35.6194 125.646 35.8384 125.754 36.0263Z" fill="#FF5138"/>
<path opacity="0.7" d="M125.754 36.0263L126.409 37.1446C126.409 37.1446 126.907 38.6097 127.908 38.8781L130.627 38.0002L130.487 37.7709C130.141 37.2453 130.18 36.222 130.297 35.372C130.415 34.522 129.978 34.4941 129.654 34.7066C129.424 34.9709 129.262 35.2878 129.184 35.6292C129.05 35.4446 128.903 35.2707 128.742 35.1092L127.914 34.2816C127.74 34.1119 127.509 34.0141 127.266 34.0079C127.023 34.0017 126.787 34.0874 126.604 34.248L125.933 34.8464C125.774 34.9936 125.669 35.1906 125.637 35.405C125.604 35.6194 125.646 35.8384 125.754 36.0263Z" fill="white"/>
<path d="M151.144 32.0007C148.128 32.7997 145.239 34.0176 142.561 35.6187C142.143 35.88 141.815 36.2626 141.621 36.7154C141.427 37.1681 141.377 37.6693 141.476 38.1518C142.555 43.4306 145.012 50.4988 147.664 55.0003L160.034 49.8837C160.118 47.7028 157.114 40.6458 154.053 33.8237C153.505 32.599 152.447 31.6876 151.144 32.0007Z" fill="#FF5138"/>
<path opacity="0.8" d="M151.144 32.0007C148.128 32.7997 145.239 34.0176 142.561 35.6187C142.143 35.88 141.815 36.2626 141.621 36.7154C141.427 37.1681 141.377 37.6693 141.476 38.1518C142.555 43.4306 145.012 50.4988 147.664 55.0003L160.034 49.8837C160.118 47.7028 157.114 40.6458 154.053 33.8237C153.505 32.599 152.447 31.6876 151.144 32.0007Z" fill="white"/>
<path opacity="0.3" d="M155.973 38.1461L153.517 37.3241C154.076 38.7612 156.051 40.5786 157.433 41.6466C156.986 40.5283 156.488 39.354 155.973 38.1461Z" fill="#FF5138"/>
<path d="M150.332 26.4644C149.308 24.5184 147.098 23.5398 144.446 23.7579C142.208 23.948 140.228 26.2295 140.463 27.4597C140.698 28.69 142.578 29.2156 142.936 29.6406L141.386 30.759C141.202 30.8914 141.047 31.0596 140.93 31.2534C140.814 31.4473 140.737 31.6627 140.706 31.8868C140.674 32.111 140.689 32.3391 140.748 32.5575C140.807 32.776 140.91 32.9802 141.05 33.1579C141.705 33.9855 142.566 34.8355 143.064 35.4618C147.35 35.3499 150.522 33.7171 151.669 32.1458C151.239 30.155 151.328 28.3992 150.332 26.4644Z" fill="#FF5138"/>
<path opacity="0.8" d="M150.332 26.4644C149.308 24.5184 147.098 23.5398 144.446 23.7579C142.208 23.948 140.228 26.2295 140.463 27.4597C140.698 28.69 142.578 29.2156 142.936 29.6406L141.386 30.759C141.202 30.8914 141.047 31.0596 140.93 31.2534C140.814 31.4473 140.737 31.6627 140.706 31.8868C140.674 32.111 140.689 32.3391 140.748 32.5575C140.807 32.776 140.91 32.9802 141.05 33.1579C141.705 33.9855 142.566 34.8355 143.064 35.4618C147.35 35.3499 150.522 33.7171 151.669 32.1458C151.239 30.155 151.328 28.3992 150.332 26.4644Z" fill="white"/>
<path d="M148.229 27.6726C148.533 28.4525 148.599 29.305 148.419 30.1224C148.238 30.9398 147.819 31.6853 147.215 32.2649C146.611 32.8444 145.848 33.2318 145.024 33.3783C144.199 33.5247 143.35 33.4235 142.582 33.0874C141.815 32.7514 141.165 32.1956 140.714 31.4903C140.263 30.7851 140.031 29.962 140.048 29.1251C140.065 28.2883 140.33 27.4752 140.809 26.7887C141.288 26.1021 141.96 25.573 142.74 25.2681C143.787 24.8605 144.953 24.8847 145.982 25.3356C147.011 25.7864 147.819 26.6269 148.229 27.6726Z" fill="#263238"/>
<path d="M184.557 78.0667C184.496 76.2269 184.412 76.3891 184.362 74.8401C184.328 73.8895 184.322 72.8326 184.317 71.9212C184.315 71.4883 184.164 71.0694 183.888 70.7352C183.613 70.401 183.231 70.172 182.806 70.087C182.068 69.936 181.323 69.7962 180.568 69.6397C179.6 69.4328 178.643 69.2091 177.698 68.9351C176.959 68.7226 176.232 68.4877 175.51 68.2249C174.788 67.9621 173.977 67.6657 173.227 67.319C172.343 66.9444 171.471 66.5417 170.609 66.1223C169.641 65.6638 168.684 65.1829 167.728 64.6964C164.046 58.6068 163.968 54.5918 160.018 49.8834L151.536 53.7195C151.536 53.7195 157.768 64.7691 162.009 69.4551C164.454 72.1504 168.287 73.3695 171.706 74.253C174.173 74.8849 176.674 75.3714 179.175 75.8355C180.148 76.0144 181.206 76.0815 182.045 76.6631C182.666 77.1389 183.092 77.8249 183.243 78.5923C183.28 78.7489 183.313 78.9055 183.343 79.062C183.45 79.5318 184.597 79.1739 184.557 78.0667Z" fill="#FF5138"/>
<path opacity="0.8" d="M184.557 78.0667C184.496 76.2269 184.412 76.3891 184.362 74.8401C184.328 73.8895 184.322 72.8326 184.317 71.9212C184.315 71.4883 184.164 71.0694 183.888 70.7352C183.613 70.401 183.231 70.172 182.806 70.087C182.068 69.936 181.323 69.7962 180.568 69.6397C179.6 69.4328 178.643 69.2091 177.698 68.9351C176.959 68.7226 176.232 68.4877 175.51 68.2249C174.788 67.9621 173.977 67.6657 173.227 67.319C172.343 66.9444 171.471 66.5417 170.609 66.1223C169.641 65.6638 168.684 65.1829 167.728 64.6964C164.046 58.6068 163.968 54.5918 160.018 49.8834L151.536 53.7195C151.536 53.7195 157.768 64.7691 162.009 69.4551C164.454 72.1504 168.287 73.3695 171.706 74.253C174.173 74.8849 176.674 75.3714 179.175 75.8355C180.148 76.0144 181.206 76.0815 182.045 76.6631C182.666 77.1389 183.092 77.8249 183.243 78.5923C183.28 78.7489 183.313 78.9055 183.343 79.062C183.45 79.5318 184.597 79.1739 184.557 78.0667Z" fill="white"/>
<path opacity="0.3" d="M180.255 69.5673C179.919 69.4946 179.583 69.4219 179.242 69.338C179.27 71.2728 178.364 74.6056 178.033 75.6177L179.096 75.819C179.793 73.8047 180.184 71.6974 180.255 69.5673Z" fill="#FF5138"/>
<path opacity="0.3" d="M184.339 71.9212C184.337 71.4892 184.187 71.0709 183.913 70.7368C183.639 70.4027 183.258 70.1732 182.834 70.0871L182.274 69.9808C182.364 70.6165 182.69 71.1953 183.186 71.6025C183.506 71.8976 183.889 72.1157 184.305 72.24C184.339 72.1393 184.339 72.0275 184.339 71.9212Z" fill="#FF5138"/>
<path d="M147.44 27.7059C147.664 28.5559 146.712 29.445 145.957 28.7124C145.252 27.957 144.481 27.2664 143.652 26.649C142.874 26.1625 143.909 25.3126 145.135 25.6425C145.657 25.7738 146.141 26.0302 146.542 26.3897C146.944 26.7492 147.252 27.2009 147.44 27.7059Z" fill="white"/>
<path d="M147.502 54.726C147.11 54.8713 147.826 55.5424 147.826 55.5424C147.826 55.5424 155.659 52.8638 160.415 50.107C160.427 49.9401 160.398 49.7729 160.332 49.6192C160.266 49.4656 160.164 49.3299 160.035 49.2235C155.964 51.2928 151.78 53.1299 147.502 54.726Z" fill="#FF5138"/>
<path opacity="0.5" d="M147.502 54.726C147.11 54.8713 147.826 55.5424 147.826 55.5424C147.826 55.5424 155.659 52.8638 160.415 50.107C160.427 49.9401 160.398 49.7729 160.332 49.6192C160.266 49.4656 160.164 49.3299 160.035 49.2235C155.964 51.2928 151.78 53.1299 147.502 54.726Z" fill="white"/>
<path d="M153.265 31.6316C154.809 32.4144 156.258 33.2364 157.74 34.1479C158.462 34.6065 159.178 35.0706 159.889 35.5739C160.6 36.0771 161.305 36.5916 162.015 37.1731L162.278 37.3912L162.608 37.6932C162.805 37.8691 162.992 38.0558 163.168 38.2524C163.347 38.4481 163.498 38.6382 163.643 38.8116C163.789 38.9849 163.945 39.1918 164.074 39.3708C164.595 40.0897 165.077 40.8363 165.518 41.6075C166.385 43.103 167.133 44.6642 167.756 46.2768C167.871 46.5815 167.877 46.9166 167.772 47.2251C167.668 47.5337 167.46 47.7967 167.184 47.9693C166.908 48.142 166.58 48.2137 166.257 48.1722C165.934 48.1307 165.635 47.9787 165.411 47.7419L165.383 47.7083C164.264 46.5172 163.184 45.2646 162.099 44.0959C161.014 42.9272 159.911 41.7417 158.999 41.2217C157.729 40.4332 156.314 39.6448 154.909 38.8731L150.68 36.5245C150.024 36.1774 149.533 35.5842 149.314 34.8753C149.096 34.1664 149.169 33.3999 149.516 32.7444C149.863 32.0888 150.457 31.598 151.166 31.3799C151.875 31.1618 152.642 31.2342 153.298 31.5812L153.265 31.6316Z" fill="#FF5138"/>
<path opacity="0.8" d="M153.265 31.6316C154.809 32.4144 156.258 33.2364 157.74 34.1479C158.462 34.6065 159.178 35.0706 159.889 35.5739C160.6 36.0771 161.305 36.5916 162.015 37.1731L162.278 37.3912L162.608 37.6932C162.805 37.8691 162.992 38.0558 163.168 38.2524C163.347 38.4481 163.498 38.6382 163.643 38.8116C163.789 38.9849 163.945 39.1918 164.074 39.3708C164.595 40.0897 165.077 40.8363 165.518 41.6075C166.385 43.103 167.133 44.6642 167.756 46.2768C167.871 46.5815 167.877 46.9166 167.772 47.2251C167.668 47.5337 167.46 47.7967 167.184 47.9693C166.908 48.142 166.58 48.2137 166.257 48.1722C165.934 48.1307 165.635 47.9787 165.411 47.7419L165.383 47.7083C164.264 46.5172 163.184 45.2646 162.099 44.0959C161.014 42.9272 159.911 41.7417 158.999 41.2217C157.729 40.4332 156.314 39.6448 154.909 38.8731L150.68 36.5245C150.024 36.1774 149.533 35.5842 149.314 34.8753C149.096 34.1664 149.169 33.3999 149.516 32.7444C149.863 32.0888 150.457 31.598 151.166 31.3799C151.875 31.1618 152.642 31.2342 153.298 31.5812L153.265 31.6316Z" fill="white"/>
<path d="M169.082 49.0666L168.606 47.8756C168.606 47.8756 168.343 46.3546 167.398 45.9296L164.6 46.3713L164.695 46.6174C164.953 47.1766 164.757 48.1999 164.505 49.0163C164.253 49.8327 164.678 49.939 165.036 49.7768C165.238 49.6873 165.434 49.3239 165.646 48.938C165.751 49.1324 165.868 49.3193 165.999 49.4972L166.687 50.4422C166.831 50.6381 167.043 50.7723 167.282 50.8179C167.521 50.8636 167.768 50.8173 167.974 50.6883L168.735 50.2018C168.913 50.08 169.044 49.9012 169.107 49.695C169.17 49.4887 169.161 49.2671 169.082 49.0666Z" fill="#FF5138"/>
<path opacity="0.8" d="M169.082 49.0666L168.606 47.8756C168.606 47.8756 168.343 46.3546 167.398 45.9296L164.6 46.3713L164.695 46.6174C164.953 47.1766 164.757 48.1999 164.505 49.0163C164.253 49.8327 164.678 49.939 165.036 49.7768C165.238 49.6873 165.434 49.3239 165.646 48.938C165.751 49.1324 165.868 49.3193 165.999 49.4972L166.687 50.4422C166.831 50.6381 167.043 50.7723 167.282 50.8179C167.521 50.8636 167.768 50.8173 167.974 50.6883L168.735 50.2018C168.913 50.08 169.044 49.9012 169.107 49.695C169.17 49.4887 169.161 49.2671 169.082 49.0666Z" fill="white"/>
<path opacity="0.3" d="M150.903 38.0623L150.221 38.1182L146.03 48.2284C146.259 48.2448 146.489 48.226 146.713 48.1724C146.713 48.1724 152.173 46.137 153.824 45.3765C152.716 43.0894 150.903 38.0623 150.903 38.0623Z" fill="#FF5138"/>
<path d="M143.255 40.7129C143.764 43.3558 144.71 45.8956 146.053 48.2285C148.1 47.5239 151.513 46.193 153.169 45.4325C152.056 43.0475 151.068 40.6061 150.21 38.1183C148.458 38.2357 144.615 39.7064 143.255 40.7129Z" fill="white"/>
<path opacity="0.3" d="M147.412 42.8993C147.33 43.1727 147.169 43.4158 146.949 43.5977C146.729 43.7796 146.46 43.8922 146.176 43.9213C145.892 43.9503 145.605 43.8945 145.353 43.7608C145.101 43.6272 144.894 43.4218 144.758 43.1705C144.623 42.9193 144.565 42.6335 144.592 42.3494C144.619 42.0652 144.73 41.7955 144.91 41.5743C145.091 41.3531 145.333 41.1904 145.606 41.1067C145.879 41.023 146.171 41.0222 146.444 41.1043C146.81 41.2142 147.118 41.465 147.3 41.8016C147.481 42.1382 147.522 42.533 147.412 42.8993Z" fill="#FF5138"/>
<path opacity="0.6" d="M148.481 40.9758C148.459 41.0692 148.41 41.1538 148.339 41.2185C148.268 41.2833 148.179 41.3251 148.084 41.3386C147.989 41.352 147.893 41.3364 147.807 41.2938C147.721 41.2513 147.65 41.1837 147.603 41.1C147.556 41.0164 147.536 40.9205 147.544 40.8249C147.553 40.7294 147.59 40.6388 147.651 40.5648C147.712 40.4909 147.794 40.4371 147.886 40.4106C147.979 40.3841 148.077 40.3861 148.168 40.4163C148.281 40.4526 148.376 40.5305 148.435 40.6343C148.493 40.7382 148.509 40.8602 148.481 40.9758Z" fill="#FF5138"/>
<path opacity="0.6" d="M149.734 40.4895C149.721 40.5545 149.694 40.6159 149.656 40.67C149.618 40.724 149.569 40.7695 149.512 40.8034C149.455 40.8374 149.392 40.8591 149.326 40.8672C149.26 40.8753 149.194 40.8696 149.13 40.8504C149.067 40.8313 149.008 40.7991 148.958 40.7559C148.908 40.7127 148.867 40.6596 148.838 40.5998C148.81 40.54 148.794 40.4749 148.792 40.4087C148.791 40.3426 148.803 40.2767 148.828 40.2154C148.845 40.1562 148.875 40.1011 148.914 40.0533C148.953 40.0055 149.002 39.9659 149.056 39.9368C149.111 39.9077 149.171 39.8896 149.232 39.8837C149.294 39.8777 149.356 39.884 149.415 39.9021C149.535 39.9383 149.635 40.0204 149.695 40.1303C149.755 40.2403 149.769 40.3694 149.734 40.4895Z" fill="#FF5138"/>
<path opacity="0.5" d="M151.491 44.8455L146.316 46.8865L146.008 45.8688L151.178 43.8278L151.491 44.8455Z" fill="#FF5138"/>
<g opacity="0.3">
<path d="M86.1446 51.8777C86.1446 52.1241 86.0714 52.365 85.9342 52.5699C85.7971 52.7747 85.6022 52.9342 85.3742 53.0282C85.1463 53.1222 84.8955 53.1465 84.6538 53.0979C84.412 53.0494 84.1901 52.9302 84.0162 52.7554C83.8423 52.5807 83.7242 52.3583 83.6769 52.1164C83.6296 51.8745 83.6552 51.624 83.7505 51.3967C83.8458 51.1694 84.0065 50.9754 84.2122 50.8395C84.4178 50.7035 84.6593 50.6316 84.9059 50.633C85.0691 50.633 85.2307 50.6652 85.3814 50.7278C85.5322 50.7905 85.669 50.8822 85.7841 50.9979C85.8992 51.1136 85.9904 51.2509 86.0522 51.4018C86.1141 51.5528 86.1455 51.7145 86.1446 51.8777Z" fill="#FF5138"/>
<path d="M0.879097 99.6901C1.36461 99.6901 1.75819 99.2965 1.75819 98.811C1.75819 98.3255 1.36461 97.9319 0.879097 97.9319C0.393585 97.9319 0 98.3255 0 98.811C0 99.2965 0.393585 99.6901 0.879097 99.6901Z" fill="#FF5138"/>
<path d="M146.116 228C146.812 228 147.375 227.437 147.375 226.742C147.375 226.047 146.812 225.484 146.116 225.484C145.421 225.484 144.858 226.047 144.858 226.742C144.858 227.437 145.421 228 146.116 228Z" fill="#FF5138"/>
<path d="M176.386 176.815C176.871 176.815 177.265 176.421 177.265 175.936C177.265 175.45 176.871 175.057 176.386 175.057C175.9 175.057 175.507 175.45 175.507 175.936C175.507 176.421 175.9 176.815 176.386 176.815Z" fill="#FF5138"/>
<path d="M234.772 18.5975C234.772 18.7713 234.72 18.9413 234.624 19.0859C234.527 19.2304 234.39 19.3431 234.229 19.4097C234.069 19.4762 233.892 19.4936 233.721 19.4597C233.551 19.4258 233.394 19.342 233.271 19.2191C233.148 19.0962 233.064 18.9395 233.031 18.769C232.997 18.5985 233.014 18.4217 233.081 18.2611C233.147 18.1004 233.26 17.9631 233.404 17.8665C233.549 17.7699 233.719 17.7184 233.893 17.7184C234.126 17.7184 234.35 17.811 234.514 17.9759C234.679 18.1407 234.772 18.3643 234.772 18.5975Z" fill="#FF5138"/>
<path d="M67.3307 0.878853C67.3307 1.05272 67.2791 1.22269 67.1826 1.36725C67.086 1.51182 66.9487 1.6245 66.788 1.69103C66.6274 1.75757 66.4506 1.77498 66.2801 1.74106C66.1096 1.70714 65.9529 1.62341 65.83 1.50047C65.707 1.37752 65.6233 1.22089 65.5894 1.05036C65.5555 0.87983 65.5729 0.703071 65.6394 0.542437C65.706 0.381803 65.8186 0.244505 65.9632 0.147909C66.1078 0.0513125 66.2777 -0.000244141 66.4516 -0.000244141C66.6842 0.00149835 66.9068 0.0946771 67.0713 0.259164C67.2358 0.42365 67.329 0.64624 67.3307 0.878853Z" fill="#FF5138"/>
<path d="M137.226 46.9799C137.711 46.9799 138.105 46.5863 138.105 46.1008C138.105 45.6153 137.711 45.2217 137.226 45.2217C136.74 45.2217 136.347 45.6153 136.347 46.1008C136.347 46.5863 136.74 46.9799 137.226 46.9799Z" fill="#FF5138"/>
</g>
<path d="M46.339 46.9855C54.3978 46.9855 60.9307 40.4562 60.9307 32.4019C60.9307 24.3476 54.3978 17.8182 46.339 17.8182C38.2802 17.8182 31.7473 24.3476 31.7473 32.4019C31.7473 40.4562 38.2802 46.9855 46.339 46.9855Z" fill="#FF5138"/>
<path opacity="0.7" d="M46.339 46.9855C54.3978 46.9855 60.9307 40.4562 60.9307 32.4019C60.9307 24.3476 54.3978 17.8182 46.339 17.8182C38.2802 17.8182 31.7473 24.3476 31.7473 32.4019C31.7473 40.4562 38.2802 46.9855 46.339 46.9855Z" fill="white"/>
<path opacity="0.2" d="M41.311 21.3996C39.3238 21.3935 37.3565 21.7945 35.5303 22.5777C33.2859 25.0431 31.9538 28.2022 31.7556 31.5294C31.5573 34.8567 32.5049 38.1514 34.4407 40.8656C36.3764 43.5798 39.1836 45.5497 42.3953 46.4476C45.607 47.3456 49.0294 47.1174 52.0933 45.8011C53.9929 43.7088 55.2438 41.1103 55.6942 38.3211C56.1446 35.5319 55.775 32.6721 54.6304 30.0888C53.4858 27.5055 51.6154 25.3099 49.2463 23.7686C46.8771 22.2273 44.1112 21.4067 41.2844 21.4063L41.311 21.3996Z" fill="#FF5138"/>
<path opacity="0.2" d="M39.859 25.2536C39.859 25.5169 39.7809 25.7743 39.6345 25.9932C39.4882 26.2121 39.2801 26.3827 39.0368 26.4835C38.7934 26.5842 38.5256 26.6106 38.2672 26.5592C38.0088 26.5079 37.7715 26.3811 37.5852 26.1949C37.3989 26.0087 37.2721 25.7715 37.2207 25.5133C37.1693 25.2551 37.1956 24.9874 37.2965 24.7442C37.3973 24.5009 37.568 24.293 37.787 24.1467C38.0061 24.0004 38.2636 23.9224 38.527 23.9224C38.8803 23.9224 39.2191 24.0626 39.4689 24.3123C39.7187 24.5619 39.859 24.9005 39.859 25.2536Z" fill="#FF5138"/>
<path opacity="0.2" d="M55.5497 23.9223C55.5497 24.1856 55.4716 24.443 55.3252 24.6619C55.1788 24.8808 54.9708 25.0514 54.7274 25.1522C54.484 25.2529 54.2162 25.2793 53.9579 25.2279C53.6995 25.1766 53.4621 25.0498 53.2759 24.8636C53.0896 24.6774 52.9627 24.4402 52.9113 24.182C52.8599 23.9238 52.8863 23.6561 52.9871 23.4129C53.0879 23.1696 53.2587 22.9617 53.4777 22.8154C53.6967 22.6691 53.9543 22.5911 54.2177 22.5911C54.571 22.5911 54.9098 22.7313 55.1595 22.981C55.4093 23.2306 55.5497 23.5692 55.5497 23.9223Z" fill="#FF5138"/>
<path opacity="0.2" d="M52.8859 33.4272C52.8859 33.859 52.7578 34.2811 52.5178 34.6402C52.2778 34.9992 51.9366 35.279 51.5375 35.4443C51.1383 35.6095 50.6991 35.6527 50.2754 35.5685C49.8516 35.4843 49.4624 35.2763 49.1569 34.971C48.8514 34.6657 48.6433 34.2767 48.5591 33.8532C48.4748 33.4297 48.518 32.9907 48.6834 32.5918C48.8487 32.1928 49.1287 31.8519 49.4879 31.612C49.8471 31.3721 50.2695 31.244 50.7015 31.244C51.2809 31.244 51.8365 31.474 52.2461 31.8835C52.6558 32.2929 52.8859 32.8482 52.8859 33.4272Z" fill="#FF5138"/>
<path opacity="0.2" d="M45.9458 39.6505C45.9458 40.2271 45.7748 40.7908 45.4542 41.2702C45.1337 41.7496 44.6781 42.1233 44.1451 42.344C43.6121 42.5646 43.0256 42.6224 42.4597 42.5099C41.8939 42.3974 41.3741 42.1197 40.9662 41.712C40.5582 41.3043 40.2804 40.7848 40.1679 40.2193C40.0553 39.6537 40.1131 39.0675 40.3339 38.5348C40.5546 38.0021 40.9285 37.5468 41.4082 37.2264C41.8879 36.9061 42.4519 36.7351 43.0288 36.7351C43.8025 36.7351 44.5444 37.0423 45.0915 37.589C45.6385 38.1357 45.9458 38.8773 45.9458 39.6505Z" fill="#FF5138"/>
<path d="M219.275 208.315C220.9 201.435 216.637 194.541 209.753 192.917C202.869 191.293 195.971 195.554 194.346 202.434C192.722 209.315 196.985 216.208 203.869 217.832C210.753 219.456 217.65 215.195 219.275 208.315Z" fill="#FF5138"/>
<path opacity="0.3" d="M219.275 208.315C220.9 201.435 216.637 194.541 209.753 192.917C202.869 191.293 195.971 195.554 194.346 202.434C192.722 209.315 196.985 216.208 203.869 217.832C210.753 219.456 217.65 215.195 219.275 208.315Z" fill="white"/>
<path opacity="0.4" d="M214.9 195.465C212.061 194.608 209.012 194.764 206.275 195.904C203.538 197.045 201.282 199.1 199.893 201.719C198.504 204.337 198.067 207.356 198.658 210.261C199.249 213.165 200.83 215.775 203.132 217.643C204.326 218.006 205.567 218.189 206.815 218.189C209.459 218.188 212.038 217.37 214.198 215.846C216.358 214.322 217.993 212.167 218.879 209.678C219.765 207.188 219.858 204.485 219.145 201.94C218.433 199.396 216.95 197.134 214.9 195.465Z" fill="#FF5138"/>
<path d="M194.587 209.216C180.914 215.646 191.11 220.605 210.377 213.682C228.219 207.273 235.018 199.192 219.035 201.701C219.894 205.063 197.55 213.762 194.587 209.216Z" fill="#FF5138"/>
<path d="M44.4739 154.975L53.828 164.324L80.0194 139.659C70.9913 136.213 53.4378 145.995 44.4739 154.975Z" fill="#263238"/>
<path d="M77.0955 187.563C74.1076 184.571 67.7415 178.214 67.7415 178.214L92.4202 152.037C95.8464 161.038 86.0594 178.598 77.0955 187.563Z" fill="#263238"/>
<path d="M112.897 128.637L123.101 108.973L103.426 119.182C97.1058 122.457 91.2705 126.593 86.086 131.469L52.5449 163.025L69.0241 179.496L100.598 145.973C105.479 140.79 109.619 134.956 112.897 128.637Z" fill="#FF5138"/>
<path opacity="0.6" d="M112.897 128.637L123.101 108.973L103.426 119.182C97.1058 122.457 91.2705 126.593 86.086 131.469L52.5449 163.025L69.0241 179.496L100.598 145.973C105.479 140.79 109.619 134.956 112.897 128.637Z" fill="white"/>
<path d="M91.9444 147.004C95.7525 147.004 98.8397 143.919 98.8397 140.113C98.8397 136.306 95.7525 133.221 91.9444 133.221C88.1362 133.221 85.0491 136.306 85.0491 140.113C85.0491 143.919 88.1362 147.004 91.9444 147.004Z" fill="white"/>
<path d="M91.9439 144.541C94.3911 144.541 96.375 142.558 96.375 140.112C96.375 137.667 94.3911 135.684 91.9439 135.684C89.4966 135.684 87.5127 137.667 87.5127 140.112C87.5127 142.558 89.4966 144.541 91.9439 144.541Z" fill="#FF5138"/>
<path opacity="0.3" d="M74.5988 173.576L58.4617 157.448L71.675 145.022L87.0317 160.375L74.5988 173.576Z" fill="#FF5138"/>
<path d="M48.1245 169.73C36.0444 170.707 32.0408 178.437 30.6724 188.711C29.9776 193.951 29.6675 199.256 25.2685 202.323C25.0038 202.502 24.8046 202.763 24.7005 203.065C24.5965 203.368 24.5933 203.696 24.6914 204C24.7895 204.305 24.9837 204.569 25.2448 204.754C25.5059 204.939 25.8199 205.034 26.1397 205.026C42.357 204.518 49.9205 196.585 50.8719 193.273C50.6222 195.004 50.1756 196.702 49.5409 198.332C49.4243 198.62 49.4014 198.937 49.4757 199.238C49.5499 199.54 49.7174 199.81 49.9544 200.011C50.1913 200.211 50.4856 200.332 50.7952 200.356C51.1049 200.38 51.4142 200.305 51.679 200.143C56.2278 197.296 61.9364 192.049 62.3159 183.539C58.9699 178.801 48.1245 169.73 48.1245 169.73Z" fill="#FF5138"/>
<path opacity="0.2" d="M48.1245 169.73C36.0444 170.707 32.0408 178.437 30.6724 188.711C29.9776 193.951 29.6675 199.256 25.2685 202.323C25.0038 202.502 24.8046 202.763 24.7005 203.065C24.5965 203.368 24.5933 203.696 24.6914 204C24.7895 204.305 24.9837 204.569 25.2448 204.754C25.5059 204.939 25.8199 205.034 26.1397 205.026C42.357 204.518 49.9205 196.585 50.8719 193.273C50.6222 195.004 50.1756 196.702 49.5409 198.332C49.4243 198.62 49.4014 198.937 49.4757 199.238C49.5499 199.54 49.7174 199.81 49.9544 200.011C50.1913 200.211 50.4856 200.332 50.7952 200.356C51.1049 200.38 51.4142 200.305 51.679 200.143C56.2278 197.296 61.9364 192.049 62.3159 183.539C58.9699 178.801 48.1245 169.73 48.1245 169.73Z" fill="white"/>
<path d="M64.1921 187.188L44.8425 167.849L55.148 165.622L66.421 176.888L64.1921 187.188Z" fill="#FF5138"/>
</svg>
