<?xml version="1.0" standalone="no"?>
<!DOCTYPE svg PUBLIC "-//W3C//DTD SVG 20010904//EN"
 "http://www.w3.org/TR/2001/REC-SVG-20010904/DTD/svg10.dtd">
<svg version="1.0" xmlns="http://www.w3.org/2000/svg"
 width="225.000000pt" height="225.000000pt" viewBox="0 0 225.000000 225.000000"
 preserveAspectRatio="xMidYMid meet">

<g transform="translate(0.000000,225.000000) scale(0.100000,-0.100000)"
fill="#000000" stroke="none">
<path d="M620 2096 c0 -2 8 -10 18 -17 15 -13 16 -12 3 4 -13 16 -21 21 -21
13z"/>
<path d="M607 2069 c4 -13 8 -18 11 -10 2 7 -1 18 -6 23 -8 8 -9 4 -5 -13z"/>
<path d="M1070 2004 c0 -54 0 -55 28 -52 25 3 27 7 28 48 1 46 -8 60 -38 60
-15 0 -18 -9 -18 -56z m40 26 c0 -11 -7 -20 -15 -20 -15 0 -21 21 -8 33 12 13
23 7 23 -13z m0 -50 c0 -11 -7 -20 -15 -20 -8 0 -15 9 -15 20 0 11 7 20 15 20
8 0 15 -9 15 -20z"/>
<path d="M1165 2026 c-10 -53 -3 -81 22 -84 27 -4 44 30 42 81 -1 27 -3 25
-13 -18 -8 -31 -17 -50 -27 -50 -11 0 -13 12 -11 53 4 59 -4 69 -13 18z"/>
<path d="M493 2025 c0 -8 4 -12 9 -9 4 3 8 9 8 15 0 5 -4 9 -8 9 -5 0 -9 -7
-9 -15z"/>
<path d="M680 2030 c-9 -6 -10 -10 -3 -10 6 0 15 5 18 10 8 12 4 12 -15 0z"/>
<path d="M938 2035 c-7 -8 15 -105 25 -105 4 0 5 9 2 21 -5 14 -1 25 12 35 17
14 17 14 -2 12 -29 -4 -32 29 -3 35 22 4 22 4 -3 6 -14 0 -28 -1 -31 -4z"/>
<path d="M1267 2027 c-3 -8 3 -27 14 -43 23 -35 24 -44 4 -44 -8 0 -15 7 -15
15 0 8 -5 15 -11 15 -24 0 -2 -35 24 -38 23 -3 27 0 27 21 0 14 -7 30 -15 37
-17 14 -20 40 -5 40 5 0 14 -8 20 -17 10 -16 10 -16 8 2 -4 24 -43 33 -51 12z"/>
<path d="M858 2013 c-22 -5 -23 -43 -3 -83 16 -31 30 -36 54 -21 10 6 12 19 7
44 -7 39 -33 65 -58 60z m37 -44 c17 -31 14 -59 -5 -59 -11 0 -40 59 -40 80 0
22 30 8 45 -21z"/>
<path d="M1350 1966 c-23 -54 -23 -56 -12 -56 9 0 44 91 37 98 -2 3 -14 -16
-25 -42z"/>
<path d="M480 1989 c0 -5 5 -7 10 -4 6 3 10 8 10 11 0 2 -4 4 -10 4 -5 0 -10
-5 -10 -11z"/>
<path d="M1620 1990 c8 -5 20 -10 25 -10 6 0 3 5 -5 10 -8 5 -19 10 -25 10 -5
0 -3 -5 5 -10z"/>
<path d="M1392 1944 c-25 -52 -23 -74 3 -25 21 42 29 39 22 -9 -7 -54 7 -50
38 10 14 28 22 50 17 50 -5 0 -16 -15 -25 -32 l-16 -33 0 43 c-1 23 -5 42 -9
42 -4 0 -18 -21 -30 -46z"/>
<path d="M454 1954 c-18 -14 -18 -15 4 -4 12 6 22 13 22 15 0 8 -5 6 -26 -11z"/>
<path d="M1673 1947 c12 -13 24 -22 26 -20 6 4 -30 43 -40 43 -5 0 2 -10 14
-23z"/>
<path d="M1775 1960 c-3 -5 -1 -10 4 -10 6 0 11 5 11 10 0 6 -2 10 -4 10 -3 0
-8 -4 -11 -10z"/>
<path d="M727 1946 c-18 -14 -17 -16 9 -58 15 -23 28 -44 29 -46 5 -6 45 22
45 31 0 4 -9 3 -20 -3 -26 -14 -39 12 -19 37 11 13 11 15 1 9 -7 -4 -20 -5
-29 -2 -14 6 -14 9 2 26 21 23 9 26 -18 6z"/>
<path d="M509 1933 c-13 -16 -12 -17 4 -4 9 7 17 15 17 17 0 8 -8 3 -21 -13z"/>
<path d="M1481 1896 l-31 -44 25 -16 c25 -17 34 -9 14 11 -7 7 -9 19 -5 29 5
13 9 15 18 6 7 -7 17 -12 23 -12 5 0 2 7 -9 15 -25 19 -11 38 23 30 25 -6 25
-6 6 9 -28 22 -31 21 -64 -28z"/>
<path d="M1718 1908 c-17 -17 -17 -18 5 -15 12 1 21 -3 20 -9 -1 -6 5 -11 13
-11 12 0 12 2 0 16 -8 9 -15 20 -14 24 0 15 -7 14 -24 -5z"/>
<path d="M520 1915 c0 -7 39 -12 49 -5 7 4 -1 7 -18 8 -17 0 -31 -1 -31 -3z"/>
<path d="M1871 1894 c0 -11 3 -14 6 -6 3 7 2 16 -1 19 -3 4 -6 -2 -5 -13z"/>
<path d="M646 1884 c-22 -21 -21 -25 19 -64 l35 -34 22 22 c21 21 21 22 4 41
-10 11 -23 18 -27 15 -13 -8 -11 -24 3 -21 6 1 14 -6 16 -15 5 -26 -21 -22
-48 6 -25 28 -21 60 6 49 12 -4 15 -3 10 5 -10 16 -22 15 -40 -4z"/>
<path d="M483 1875 c0 -8 4 -12 9 -9 5 3 6 10 3 15 -9 13 -12 11 -12 -6z"/>
<path d="M1573 1878 c-4 -7 -8 -28 -8 -45 0 -30 -18 -48 -21 -20 -4 30 -5 31
-15 13 -9 -14 -7 -22 5 -34 26 -27 52 -4 48 43 -3 28 0 36 10 32 7 -2 12 -10
11 -16 -2 -6 2 -11 7 -11 14 0 13 23 -2 38 -15 15 -25 15 -35 0z"/>
<path d="M1797 1853 c-4 -3 -7 -11 -7 -17 0 -6 5 -5 12 2 6 6 9 14 7 17 -3 3
-9 2 -12 -2z"/>
<path d="M330 1831 c0 -6 4 -13 10 -16 6 -3 7 1 4 9 -7 18 -14 21 -14 7z"/>
<path d="M577 1822 c-16 -17 -14 -21 23 -57 39 -38 40 -38 60 -20 23 20 19 35
-4 16 -20 -16 -39 -4 -33 20 3 11 1 16 -4 13 -6 -3 -17 -3 -26 0 -12 5 -13 9
-3 21 19 22 6 28 -13 7z"/>
<path d="M425 1810 c3 -5 8 -10 11 -10 2 0 4 5 4 10 0 6 -5 10 -11 10 -5 0 -7
-4 -4 -10z"/>
<path d="M1136 1804 c-10 -25 1 -29 14 -5 6 12 7 21 1 21 -5 0 -12 -7 -15 -16z"/>
<path d="M1642 1808 c-7 -7 -12 -27 -12 -45 0 -24 -5 -33 -16 -33 -11 0 -15 6
-11 20 3 11 1 20 -5 20 -5 0 -8 -10 -6 -22 2 -17 10 -23 28 -23 22 0 25 5 28
38 2 24 8 37 15 34 7 -2 10 -13 9 -23 -3 -16 -1 -17 9 -6 10 9 11 17 3 29 -14
22 -27 26 -42 11z"/>
<path d="M1815 1791 c-3 -5 -2 -12 3 -15 5 -3 9 1 9 9 0 17 -3 19 -12 6z"/>
<path d="M404 1782 c4 -3 14 -7 22 -8 9 -1 13 0 10 4 -4 3 -14 7 -22 8 -9 1
-13 0 -10 -4z"/>
<path d="M1850 1775 c0 -8 4 -15 10 -15 5 0 7 7 4 15 -4 8 -8 15 -10 15 -2 0
-4 -7 -4 -15z"/>
<path d="M370 1751 c0 -6 4 -13 10 -16 6 -3 7 1 4 9 -7 18 -14 21 -14 7z"/>
<path d="M1931 1744 c0 -11 3 -14 6 -6 3 7 2 16 -1 19 -3 4 -6 -2 -5 -13z"/>
<path d="M510 1733 c1 -5 19 -21 41 -36 39 -27 42 -27 60 -11 10 9 16 21 13
26 -3 5 -12 1 -19 -8 -12 -17 -15 -16 -48 9 -37 28 -47 32 -47 20z"/>
<path d="M1717 1694 c-4 -4 -7 -20 -7 -35 0 -32 -16 -47 -33 -30 -9 9 -9 14 2
20 8 6 9 11 3 15 -15 9 -24 -11 -17 -35 10 -31 46 -21 59 18 12 37 33 44 28
10 -2 -16 0 -19 9 -10 16 16 7 48 -17 51 -11 2 -23 0 -27 -4z"/>
<path d="M1976 1677 c3 -10 9 -15 12 -12 3 3 0 11 -7 18 -10 9 -11 8 -5 -6z"/>
<path d="M1886 1671 c-4 -5 -2 -12 3 -15 5 -4 12 -2 15 3 4 5 2 12 -3 15 -5 4
-12 2 -15 -3z"/>
<path d="M470 1661 c0 -5 19 -20 42 -34 39 -23 43 -23 55 -8 18 24 16 38 -3
19 -16 -15 -20 -15 -55 8 -22 13 -39 20 -39 15z"/>
<path d="M1786 1605 c4 -8 2 -15 -4 -15 -18 0 -84 -31 -78 -37 3 -3 24 2 48
12 28 11 44 13 46 6 2 -6 8 -11 12 -11 5 0 4 14 -1 30 -6 17 -15 30 -20 30 -4
0 -6 -7 -3 -15z"/>
<path d="M437 1603 c-4 -3 -7 -16 -7 -29 0 -28 74 -62 96 -43 22 18 16 38 -18
59 -34 20 -59 25 -71 13z m83 -38 c17 -21 -5 -28 -45 -15 -32 11 -44 28 -29
43 8 8 61 -12 74 -28z"/>
<path d="M1784 1521 c-17 -4 -36 -11 -42 -15 -15 -9 -16 -43 -1 -51 15 -10 99
4 99 17 0 5 -6 8 -14 5 -8 -3 -31 -9 -51 -13 -33 -6 -37 -4 -33 12 2 13 16 22
46 28 23 5 42 13 42 17 0 10 -2 10 -46 0z"/>
<path d="M407 1503 c-4 -3 -7 -14 -7 -24 0 -42 102 -54 108 -13 2 12 -4 24
-12 27 -9 4 -16 2 -16 -2 0 -5 5 -11 12 -13 6 -2 8 -10 4 -17 -5 -8 -19 -10
-39 -6 -42 9 -53 21 -37 40 12 14 0 22 -13 8z"/>
<path d="M185 1470 c-3 -5 -1 -10 4 -10 6 0 11 5 11 10 0 6 -2 10 -4 10 -3 0
-8 -4 -11 -10z"/>
<path d="M1196 1467 c3 -10 9 -15 12 -12 3 3 0 11 -7 18 -10 9 -11 8 -5 -6z"/>
<path d="M2036 1467 c3 -10 9 -15 12 -12 3 3 0 11 -7 18 -10 9 -11 8 -5 -6z"/>
<path d="M1955 1460 c3 -5 8 -10 11 -10 2 0 4 5 4 10 0 6 -5 10 -11 10 -5 0
-7 -4 -4 -10z"/>
<path d="M1752 1412 c-10 -7 -10 -15 -2 -37 10 -25 14 -27 52 -22 45 6 58 19
51 48 -4 15 -14 19 -47 19 -22 0 -47 -4 -54 -8z m88 -22 c0 -17 -7 -20 -40
-20 -44 0 -58 25 -17 33 48 9 57 7 57 -13z"/>
<path d="M190 1382 c0 -7 -9 -21 -20 -32 -11 -11 -16 -20 -10 -20 13 0 44 49
36 57 -3 3 -6 1 -6 -5z"/>
<path d="M2060 1353 c0 -15 18 -35 23 -27 3 5 -1 15 -9 22 -8 7 -14 9 -14 5z"/>
<path d="M391 1321 c-20 -12 -9 -46 16 -49 14 -2 26 4 33 17 6 12 17 21 25 21
18 0 20 -26 3 -33 -8 -3 -6 -6 5 -6 12 -1 17 7 17 24 0 38 -26 42 -60 10 -19
-19 -30 -23 -35 -15 -4 7 -1 16 6 21 7 4 11 10 8 13 -2 3 -11 1 -18 -3z"/>
<path d="M1778 1313 c18 -2 45 -2 60 0 15 2 0 4 -33 4 -33 0 -45 -2 -27 -4z"/>
<path d="M1748 1256 c-3 -14 -1 -26 3 -26 5 0 9 9 9 19 0 24 37 17 43 -8 4
-14 5 -14 6 2 2 26 31 21 32 -5 l0 -23 11 23 c14 29 8 34 -50 40 -47 4 -49 3
-54 -22z"/>
<path d="M171 1254 c0 -11 3 -14 6 -6 3 7 2 16 -1 19 -3 4 -6 -2 -5 -13z"/>
<path d="M1045 1249 c-4 -6 -5 -12 -2 -15 2 -3 7 2 10 11 7 17 1 20 -8 4z"/>
<path d="M2052 1230 c0 -14 2 -19 5 -12 2 6 2 18 0 25 -3 6 -5 1 -5 -13z"/>
<path d="M464 1192 c-6 -4 -14 -17 -18 -29 -9 -29 -41 -32 -33 -3 3 11 1 20
-4 20 -14 0 -10 -47 4 -53 18 -7 31 2 46 31 6 12 18 22 26 22 18 0 19 -12 3
-29 -11 -11 -10 -13 2 -9 8 3 15 15 15 29 0 24 -21 35 -41 21z"/>
<path d="M1734 1185 c-9 -23 3 -45 24 -45 11 0 25 7 32 15 13 16 40 21 40 7 0
-4 -6 -14 -12 -21 -11 -11 -10 -13 2 -9 21 6 25 47 6 54 -8 3 -28 -4 -42 -15
-20 -16 -30 -19 -38 -11 -8 8 -6 15 8 26 18 12 18 14 3 14 -10 0 -20 -7 -23
-15z"/>
<path d="M205 1130 c-3 -5 -1 -10 4 -10 6 0 11 5 11 10 0 6 -2 10 -4 10 -3 0
-8 -4 -11 -10z"/>
<path d="M1906 1003 c-6 -14 -5 -15 5 -6 7 7 10 15 7 18 -3 3 -9 -2 -12 -12z"/>
<path d="M265 996 c3 -11 0 -23 -7 -28 -9 -5 -10 -8 -1 -8 19 0 25 18 13 37
-11 17 -11 16 -5 -1z"/>
<path d="M2016 997 c3 -10 9 -15 12 -12 3 3 0 11 -7 18 -10 9 -11 8 -5 -6z"/>
<path d="M245 940 c10 -11 20 -20 23 -20 3 0 -3 9 -13 20 -10 11 -20 20 -23
20 -3 0 3 -9 13 -20z"/>
<path d="M366 927 c3 -10 9 -15 12 -12 3 3 0 11 -7 18 -10 9 -11 8 -5 -6z"/>
<path d="M637 896 c-43 -52 -48 -65 -11 -31 15 14 30 25 34 25 4 0 10 9 13 20
8 30 25 24 36 -12 5 -18 10 -25 10 -15 1 25 -17 57 -32 57 -7 0 -29 -20 -50
-44z"/>
<path d="M1936 932 c-3 -5 1 -9 9 -9 8 0 12 4 9 9 -3 4 -7 8 -9 8 -2 0 -6 -4
-9 -8z"/>
<path d="M1519 867 c-25 -23 -61 -55 -80 -70 l-34 -28 33 21 c39 26 55 19 23
-11 -25 -24 -23 -44 5 -44 11 0 20 8 21 20 1 16 1 16 -3 3 -6 -19 -16 -23 -27
-11 -4 3 0 15 10 25 16 18 17 18 41 -4 27 -25 21 -6 -10 28 -18 20 -18 21 7
44 26 24 27 23 29 -20 2 -37 31 -33 31 4 0 30 18 46 30 27 3 -6 11 -11 16 -11
6 0 -3 12 -20 26 -17 14 -29 30 -25 35 10 16 -1 9 -47 -34z m44 -8 c-17 -17
-37 -1 -22 17 8 10 15 12 23 4 7 -7 7 -13 -1 -21z m-3 -39 c0 -5 -4 -10 -10
-10 -5 0 -10 5 -10 10 0 6 5 10 10 10 6 0 10 -4 10 -10z"/>
<path d="M695 860 c18 -20 18 -21 -1 -41 -18 -18 -22 -18 -33 -5 -11 13 -10
17 10 25 l24 10 -23 0 c-29 1 -39 -25 -18 -48 9 -10 13 -22 9 -27 -4 -5 9 6
30 25 l37 35 -22 23 c-27 28 -38 31 -13 3z"/>
<path d="M1022 861 c-11 -7 -11 -9 0 -14 9 -3 15 1 15 9 0 8 -1 14 -1 14 -1 0
-7 -4 -14 -9z"/>
<path d="M1638 823 c6 -2 18 -2 25 0 6 3 1 5 -13 5 -14 0 -19 -2 -12 -5z"/>
<path d="M763 802 c31 -19 31 -20 12 -46 -8 -11 -21 -16 -30 -13 -22 9 -18 25
8 29 l22 3 -23 13 c-12 7 -22 9 -21 5 1 -4 -1 -16 -6 -27 -6 -13 -3 -21 8 -28
10 -5 17 -17 17 -26 0 -10 9 -1 22 21 22 36 48 50 48 24 0 -7 -7 -22 -15 -33
-8 -10 -14 -26 -15 -34 0 -8 12 5 25 29 14 24 24 45 23 45 -2 1 -22 14 -45 29
-24 15 -46 27 -50 27 -5 0 4 -8 20 -18z"/>
<path d="M1766 798 c3 -5 10 -6 15 -3 13 9 11 12 -6 12 -8 0 -12 -4 -9 -9z"/>
<path d="M1749 763 c-13 -16 -12 -17 4 -4 16 13 21 21 13 21 -2 0 -10 -8 -17
-17z"/>
<path d="M1401 735 c12 -19 26 -38 31 -41 5 -4 -1 12 -14 35 -12 22 -26 41
-30 41 -4 0 2 -16 13 -35z"/>
<path d="M1827 754 c3 -7 9 -14 14 -14 14 0 10 17 -5 23 -10 4 -13 1 -9 -9z"/>
<path d="M390 739 c0 -5 -4 -7 -10 -4 -14 9 -12 -1 3 -13 10 -8 13 -6 14 9 1
10 0 19 -3 19 -2 0 -4 -5 -4 -11z"/>
<path d="M439 748 c-6 -12 -4 -46 2 -42 4 2 5 12 2 21 -5 12 -3 14 7 8 9 -5
11 -4 6 3 -7 11 -14 15 -17 10z"/>
<path d="M545 739 c-4 -6 -5 -12 -2 -15 2 -3 7 2 10 11 7 17 1 20 -8 4z"/>
<path d="M875 737 c21 -16 11 -41 -14 -34 -14 3 -16 -1 -13 -24 2 -15 11 -30
21 -34 13 -5 14 -4 4 6 -17 18 -16 39 2 39 8 0 19 9 25 20 8 15 6 21 -9 30
-28 14 -38 12 -16 -3z"/>
<path d="M1305 730 c-48 -22 -39 -26 10 -6 19 8 35 11 35 6 0 -5 -10 -12 -22
-16 -42 -13 -53 -49 -13 -42 14 3 25 1 25 -3 0 -5 -7 -9 -15 -9 -22 0 -18 -17
5 -23 11 -3 18 -1 15 3 -3 5 -1 11 4 15 20 12 -1 37 -25 31 -33 -9 -30 2 3 15
23 9 30 7 45 -13 17 -22 17 -22 1 20 -9 23 -19 42 -22 41 -3 0 -24 -9 -46 -19z"/>
<path d="M1780 726 c0 -2 8 -10 18 -17 15 -13 16 -12 3 4 -13 16 -21 21 -21
13z"/>
<path d="M1845 720 c-4 -6 -11 -7 -17 -4 -7 4 -8 2 -4 -5 6 -9 11 -9 22 0 14
11 18 19 10 19 -3 0 -8 -5 -11 -10z"/>
<path d="M1197 702 c-22 -3 -27 -7 -22 -22 3 -11 0 -20 -10 -24 -25 -9 -19
-38 8 -34 12 2 22 9 22 17 0 26 25 23 35 -5 16 -41 20 -25 7 26 -11 41 -14 45
-40 42z m23 -22 c0 -5 -7 -10 -15 -10 -8 0 -15 5 -15 10 0 6 7 10 15 10 8 0
15 -4 15 -10z m-40 -40 c0 -5 -4 -10 -10 -10 -5 0 -10 5 -10 10 0 6 5 10 10
10 6 0 10 -4 10 -10z"/>
<path d="M992 665 c2 -30 8 -41 23 -44 11 -2 23 -8 26 -13 4 -6 8 10 10 36 3
28 0 46 -6 46 -6 0 -11 -12 -10 -27 0 -18 -5 -28 -15 -28 -10 0 -15 10 -15 27
-1 15 -4 31 -9 35 -4 4 -6 -10 -4 -32z"/>
<path d="M450 676 c7 -7 13 -7 20 0 6 6 3 10 -10 10 -13 0 -16 -4 -10 -10z"/>
<path d="M1089 681 c32 -9 39 -31 13 -38 -18 -4 -19 -8 -9 -24 6 -10 16 -19
21 -19 4 0 3 6 -3 14 -9 10 -8 16 4 26 9 7 14 19 11 26 -3 7 4 15 17 17 12 2
0 4 -28 5 -34 0 -42 -2 -26 -7z"/>
<path d="M1756 682 c-3 -4 4 -9 15 -9 23 -2 25 3 4 10 -8 4 -16 3 -19 -1z"/>
<path d="M1576 641 c-4 -5 -2 -12 3 -15 5 -4 12 -2 15 3 4 5 2 12 -3 15 -5 4
-12 2 -15 -3z"/>
<path d="M1698 633 c7 -3 16 -2 19 1 4 3 -2 6 -13 5 -11 0 -14 -3 -6 -6z"/>
<path d="M569 617 c6 -8 7 -18 3 -22 -4 -5 -1 -5 6 -1 10 6 10 11 1 22 -6 8
-14 14 -16 14 -3 0 0 -6 6 -13z"/>
<path d="M723 609 c-2 -23 3 -25 10 -4 4 8 3 16 -1 19 -4 3 -9 -4 -9 -15z"/>
<path d="M1506 622 c-2 -4 -1 -14 3 -21 6 -10 10 -9 14 3 6 16 -8 32 -17 18z"/>
<path d="M197 572 c-20 -21 -37 -45 -37 -53 0 -18 41 -59 58 -59 18 0 93 71
86 82 -4 5 -23 -7 -44 -27 -25 -25 -44 -36 -55 -32 -31 13 -29 38 9 76 20 20
36 40 36 44 0 15 -18 5 -53 -31z"/>
<path d="M515 600 c-3 -6 1 -7 9 -4 18 7 21 14 7 14 -6 0 -13 -4 -16 -10z"/>
<path d="M1990 605 c0 -7 67 -67 87 -78 33 -20 23 6 -18 42 -39 36 -69 51 -69
36z"/>
<path d="M601 577 c-13 -21 -12 -21 5 -5 10 10 16 20 13 22 -3 3 -11 -5 -18
-17z"/>
<path d="M750 590 c-9 -6 -10 -10 -3 -10 6 0 15 5 18 10 8 12 4 12 -15 0z"/>
<path d="M1477 589 c7 -7 15 -10 18 -7 3 3 -2 9 -12 12 -14 6 -15 5 -6 -5z"/>
<path d="M1418 558 c5 -5 16 -8 23 -6 8 3 3 7 -10 11 -17 4 -21 3 -13 -5z"/>
<path d="M1603 555 c0 -8 4 -12 9 -9 5 3 6 10 3 15 -9 13 -12 11 -12 -6z"/>
<path d="M1960 561 c0 -5 7 -14 15 -21 14 -12 13 -16 -6 -37 l-23 -23 -22 21
c-12 11 -24 16 -27 11 -8 -11 87 -105 96 -95 4 3 -3 17 -15 30 l-22 23 22 22
22 22 23 -22 c43 -40 38 -9 -5 35 -41 42 -58 52 -58 34z"/>
<path d="M1380 540 c-8 -5 -10 -10 -5 -10 6 0 17 5 25 10 8 5 11 10 5 10 -5 0
-17 -5 -25 -10z"/>
<path d="M1495 520 c-3 -5 -1 -10 4 -10 6 0 11 5 11 10 0 6 -2 10 -4 10 -3 0
-8 -4 -11 -10z"/>
<path d="M287 463 c-45 -56 -39 -73 9 -21 38 42 40 39 22 -27 -10 -35 -9 -48
0 -57 10 -10 21 -3 52 32 49 57 53 90 4 37 -20 -21 -37 -37 -39 -35 -1 2 3 25
10 53 21 81 -1 88 -58 18z"/>
<path d="M1510 481 c0 -4 -15 -5 -32 -3 -18 3 -30 2 -27 -2 8 -8 77 -11 84 -4
3 3 -1 8 -10 11 -8 4 -15 3 -15 -2z"/>
<path d="M1353 464 c0 -16 13 -19 21 -5 3 5 0 11 -7 14 -8 3 -14 -1 -14 -9z"/>
<path d="M1820 442 c0 -11 71 -102 79 -102 3 1 20 12 36 25 32 27 23 35 -11
10 -20 -13 -23 -11 -54 30 -32 42 -50 56 -50 37z"/>
<path d="M1305 430 c-3 -6 1 -7 9 -4 18 7 21 14 7 14 -6 0 -13 -4 -16 -10z"/>
<path d="M403 380 c-36 -54 -38 -60 -23 -60 11 0 70 84 70 99 0 22 -16 9 -47
-39z"/>
<path d="M756 417 c-17 -13 -18 -14 -2 -20 10 -4 14 -3 11 2 -3 6 3 14 12 20
10 6 13 11 7 11 -5 0 -18 -6 -28 -13z"/>
<path d="M1758 402 c-16 -10 -28 -20 -28 -24 0 -4 14 -30 31 -58 l31 -50 40
22 c40 23 38 39 -2 18 -16 -9 -25 -8 -37 1 -13 12 -12 16 13 36 32 25 28 29
-11 11 -22 -10 -28 -9 -35 3 -7 10 -1 20 18 36 31 26 19 29 -20 5z"/>
<path d="M467 363 c-4 -21 -9 -53 -13 -70 -5 -28 -4 -33 12 -33 22 1 112 75
103 85 -4 3 -23 -8 -42 -24 -19 -17 -38 -31 -42 -31 -4 0 -4 25 0 55 7 62 -9
78 -18 18z"/>
<path d="M1648 333 c-21 -8 -38 -19 -38 -24 0 -14 49 -109 56 -109 3 0 19 8
35 17 34 21 46 54 31 88 -17 37 -41 45 -84 28z m54 -20 c24 -21 23 -55 -2 -78
-23 -21 -21 -22 -49 32 -20 40 -20 43 -3 52 24 14 33 13 54 -6z"/>
<path d="M581 293 c-36 -72 -35 -79 5 -98 19 -9 38 -14 41 -11 3 3 -6 11 -21
17 -24 11 -34 37 -20 52 4 3 15 2 26 -4 10 -6 24 -8 31 -6 7 3 0 10 -15 16
-30 11 -33 18 -19 40 8 12 12 12 25 2 8 -7 21 -11 28 -9 11 4 -40 38 -56 38
-3 0 -14 -17 -25 -37z"/>
<path d="M695 269 c-25 -69 -35 -103 -31 -107 8 -8 26 9 26 24 0 10 8 14 23
12 16 -2 22 -10 22 -30 0 -37 13 -46 21 -14 3 15 4 29 1 32 -3 3 4 15 15 26
20 20 20 21 2 38 -26 25 -72 36 -79 19z m49 -15 c20 -8 21 -44 2 -44 -29 0
-44 11 -39 31 6 20 12 23 37 13z"/>
<path d="M1480 267 c-19 -6 -36 -11 -37 -12 -2 -1 7 -29 18 -63 23 -67 44 -84
33 -27 -5 28 -3 35 9 35 9 0 18 4 22 9 3 6 -7 9 -22 8 -37 -3 -45 30 -9 39 14
3 26 10 26 15 0 5 -1 9 -2 8 -2 -1 -19 -6 -38 -12z"/>
<path d="M817 233 c-17 -16 -5 -50 24 -67 32 -19 34 -39 4 -45 -11 -2 -26 7
-36 20 -13 17 -19 20 -19 8 0 -35 61 -54 88 -27 19 19 14 36 -18 55 -16 9 -30
23 -30 30 0 21 21 25 41 7 22 -20 38 -12 19 11 -13 15 -61 21 -73 8z"/>
<path d="M1332 224 c-44 -30 -17 -124 36 -124 50 0 77 54 51 103 -22 40 -50
47 -87 21z m68 -24 c6 -12 10 -33 8 -48 -4 -34 -45 -44 -65 -16 -14 19 -18 66
-6 77 14 15 53 6 63 -13z"/>
<path d="M925 159 c-6 -53 -3 -81 9 -68 10 10 17 129 8 129 -6 0 -13 -27 -17
-61z"/>
<path d="M980 211 c0 -6 10 -11 21 -11 20 0 21 -4 16 -61 -4 -43 -2 -59 6 -56
7 2 14 28 17 58 5 49 7 54 28 51 12 -2 22 2 22 7 0 6 -18 11 -39 11 -22 0 -46
3 -55 6 -9 3 -16 1 -16 -5z"/>
<path d="M1100 204 c0 -3 11 -22 25 -42 14 -20 25 -47 25 -59 0 -13 5 -23 10
-23 6 0 10 11 10 25 0 14 9 44 20 65 11 22 16 40 10 40 -5 0 -17 -14 -26 -31
l-16 -31 -19 31 c-16 27 -39 42 -39 25z"/>
</g>
</svg>
