<?xml version="1.0" standalone="no"?>
<!DOCTYPE svg PUBLIC "-//W3C//DTD SVG 20010904//EN"
 "http://www.w3.org/TR/2001/REC-SVG-20010904/DTD/svg10.dtd">
<svg version="1.0" xmlns="http://www.w3.org/2000/svg"
 width="280.000000pt" height="95.000000pt" viewBox="0 0 280.000000 95.000000"
 preserveAspectRatio="xMidYMid meet">

<g transform="translate(0.000000,95.000000) scale(0.100000,-0.100000)"
fill="#000000" stroke="none">
<path d="M0 715 l0 -235 80 0 80 0 0 235 0 235 -80 0 -80 0 0 -235z m50 195
c0 -5 18 -10 40 -10 22 0 40 -4 40 -10 0 -5 -18 -10 -40 -10 -22 0 -40 -4 -40
-10 0 -5 -4 -10 -10 -10 -5 0 -10 14 -10 30 0 17 5 30 10 30 6 0 10 -4 10 -10z
m80 -75 c0 -11 -12 -15 -50 -15 -38 0 -50 4 -50 15 0 11 12 15 50 15 38 0 50
-4 50 -15z m-12 -37 c7 -7 12 -22 12 -35 0 -21 -4 -23 -50 -23 -46 0 -50 2
-50 23 0 13 5 28 12 35 15 15 61 15 76 0z m12 -78 c0 -5 -12 -16 -27 -24 l-28
-15 28 -1 c15 0 27 -4 27 -10 0 -5 -22 -10 -50 -10 -55 0 -68 18 -27 38 l22
11 -22 0 c-47 2 -21 21 27 21 28 0 50 -4 50 -10z m0 -80 c0 -5 -4 -10 -10 -10
-14 0 -12 -28 3 -33 6 -2 9 -7 6 -11 -10 -11 -99 15 -99 29 0 7 17 17 38 23
50 13 62 14 62 2z m-40 -85 c7 -8 19 -15 26 -15 8 0 14 -7 14 -15 0 -11 -12
-15 -50 -15 -46 0 -50 2 -50 23 0 13 3 27 7 30 11 12 40 8 53 -8z"/>
<path d="M55 780 c-4 -6 7 -10 25 -10 18 0 29 4 25 10 -3 6 -15 10 -25 10 -10
0 -22 -4 -25 -10z"/>
<path d="M210 723 c0 -123 0 -225 0 -228 0 -3 88 -6 195 -6 107 0 195 3 195 6
0 3 0 105 0 228 l0 222 -195 0 -195 0 0 -222z m175 57 c10 -49 22 -90 25 -90
3 0 14 33 24 73 9 39 20 80 22 90 4 12 16 17 45 17 l39 0 0 -73 c0 -41 3 -108
6 -150 l7 -77 -32 0 -31 0 0 90 c0 50 -4 90 -8 90 -5 0 -19 -40 -31 -90 -21
-80 -26 -90 -46 -90 -20 0 -25 10 -46 91 -26 103 -37 98 -38 -18 l-1 -73 -30
0 c-27 0 -29 3 -25 28 5 29 25 237 25 259 0 8 13 13 38 13 l38 0 19 -90z"/>
<path d="M676 893 c-18 -53 -20 -66 -5 -40 13 22 45 22 53 1 4 -9 9 -15 11
-12 7 7 -26 98 -35 98 -4 0 -15 -21 -24 -47z m37 7 c4 -15 0 -20 -13 -20 -13
0 -17 5 -13 20 3 11 9 20 13 20 4 0 10 -9 13 -20z"/>
<path d="M780 890 c0 -46 2 -50 23 -49 16 1 18 2 5 6 -23 6 -26 83 -4 83 21 0
39 -27 33 -50 -3 -11 -1 -18 4 -14 27 16 -5 74 -42 74 -16 0 -19 -7 -19 -50z"/>
<path d="M896 893 c-18 -53 -20 -66 -5 -40 13 22 45 22 53 1 4 -9 9 -15 11
-12 7 7 -26 98 -35 98 -4 0 -15 -21 -24 -47z m37 7 c4 -15 0 -20 -13 -20 -13
0 -17 5 -13 20 3 11 9 20 13 20 4 0 10 -9 13 -20z"/>
<path d="M990 890 c0 -27 4 -50 9 -50 6 0 7 16 4 35 -3 19 -2 35 3 35 5 0 18
-16 28 -35 20 -37 36 -46 36 -20 0 8 -6 15 -13 15 -7 0 -21 16 -30 35 -23 49
-37 44 -37 -15z"/>
<path d="M1051 913 c0 -25 1 -26 9 -8 12 27 12 35 0 35 -5 0 -10 -12 -9 -27z"/>
<path d="M677 742 c-22 -24 -21 -45 1 -65 24 -22 35 -21 55 1 22 24 21 45 -1
65 -24 22 -35 21 -55 -1z m48 -32 c0 -25 -5 -36 -17 -38 -24 -5 -42 32 -28 59
18 32 45 20 45 -21z"/>
<path d="M793 710 c0 -30 2 -43 4 -27 6 37 43 39 43 2 0 -14 5 -25 10 -25 6 0
10 23 10 50 0 28 -4 50 -10 50 -5 0 -10 -9 -10 -20 0 -29 -37 -27 -43 3 -2 12
-4 -3 -4 -33z"/>
<path d="M906 713 c-18 -53 -20 -66 -5 -40 13 22 45 22 53 1 4 -9 9 -15 11
-12 7 7 -26 98 -35 98 -4 0 -15 -21 -24 -47z m37 7 c4 -15 0 -20 -13 -20 -13
0 -17 5 -13 20 3 11 9 20 13 20 4 0 10 -9 13 -20z"/>
<path d="M1011 710 l2 -55 7 45 c4 25 4 49 -1 55 -5 5 -8 -13 -8 -45z"/>
<path d="M1070 723 l0 -38 -20 25 c-11 14 -20 21 -20 15 0 -5 11 -23 25 -40
l24 -30 1 53 c0 28 -2 52 -5 52 -3 0 -5 -17 -5 -37z"/>
<path d="M676 533 c-18 -53 -20 -66 -5 -40 13 22 45 22 53 1 4 -9 9 -15 11
-12 7 7 -26 98 -35 98 -4 0 -15 -21 -24 -47z m37 7 c4 -15 0 -20 -13 -20 -13
0 -17 5 -13 20 3 11 9 20 13 20 4 0 10 -9 13 -20z"/>
<path d="M782 533 c-2 -52 -1 -53 26 -52 22 1 23 2 5 6 -18 4 -23 12 -26 51
l-3 47 -2 -52z"/>
<path d="M887 573 c-10 -10 -8 -25 2 -19 7 5 21 -15 21 -30 0 -10 -29 -3 -32
8 -3 7 -10 -2 -16 -20 -6 -19 -7 -32 -1 -32 5 0 9 7 9 15 0 9 9 15 25 15 16 0
25 -6 25 -15 0 -8 4 -15 9 -15 5 0 2 23 -7 50 -15 49 -22 57 -35 43z"/>
<path d="M960 577 c0 -20 34 -96 41 -91 5 3 9 10 9 15 0 6 -4 8 -9 5 -5 -4
-12 12 -16 34 -4 22 -11 40 -16 40 -5 0 -9 -1 -9 -3z"/>
<path d="M1020 565 c0 -8 2 -15 4 -15 2 0 6 7 10 15 3 8 1 15 -4 15 -6 0 -10
-7 -10 -15z"/>
<path d="M1073 530 c0 -30 2 -43 4 -27 2 15 2 39 0 55 -2 15 -4 2 -4 -28z"/>
<path d="M1125 565 c5 -11 10 -35 13 -52 2 -18 8 -33 13 -33 16 0 10 39 -12
72 -12 18 -18 24 -14 13z"/>
<path d="M1170 569 c0 -5 5 -7 10 -4 6 3 10 8 10 11 0 2 -4 4 -10 4 -5 0 -10
-5 -10 -11z"/>
<path d="M1240 570 c0 -5 4 -10 9 -10 5 0 11 -9 14 -20 4 -16 0 -20 -18 -20
-21 0 -42 -26 -30 -38 2 -3 7 3 11 12 8 21 40 21 54 -1 9 -15 10 -14 6 9 -10
45 -25 78 -36 78 -5 0 -10 -4 -10 -10z"/>
<path d="M20 320 c0 -47 4 -80 10 -80 6 0 10 28 10 63 l0 62 37 -62 c51 -86
63 -83 63 17 0 91 -17 109 -22 23 l-3 -58 -33 58 c-48 82 -62 76 -62 -23z"/>
<path d="M235 388 c-2 -7 -15 -43 -29 -80 -24 -64 -24 -68 -6 -68 12 0 20 8
22 23 2 17 10 22 33 22 23 0 31 -5 33 -22 2 -15 10 -23 22 -23 11 0 18 6 15
13 -42 134 -47 147 -66 147 -11 0 -22 -6 -24 -12z m34 -48 c9 -28 8 -30 -14
-30 -22 0 -23 2 -14 30 6 17 12 30 14 30 2 0 8 -13 14 -30z"/>
<path d="M350 391 c0 -5 10 -11 23 -13 21 -3 22 -7 20 -70 -2 -54 1 -68 12
-68 12 0 15 15 15 70 0 68 1 70 25 70 14 0 25 5 25 10 0 6 -27 10 -60 10 -33
0 -60 -4 -60 -9z"/>
<path d="M510 320 c0 -64 3 -80 15 -80 12 0 15 16 15 80 0 64 -3 80 -15 80
-12 0 -15 -16 -15 -80z"/>
<path d="M615 375 c-26 -25 -32 -63 -15 -95 27 -50 100 -49 126 2 42 81 -48
157 -111 93z m85 -27 c13 -25 13 -31 0 -55 -28 -51 -80 -35 -80 25 0 63 50 82
80 30z"/>
<path d="M790 320 c0 -47 4 -80 10 -80 6 0 10 28 10 63 l0 62 37 -62 c51 -86
63 -83 63 17 0 91 -17 109 -22 23 l-3 -58 -33 58 c-48 82 -62 76 -62 -23z"/>
<path d="M1005 388 c-2 -7 -15 -43 -29 -80 -24 -64 -24 -68 -6 -68 12 0 20 8
22 23 2 17 10 22 33 22 23 0 31 -5 33 -22 2 -15 10 -23 22 -23 11 0 18 6 15
13 -42 134 -47 147 -66 147 -11 0 -22 -6 -24 -12z m34 -48 c9 -28 8 -30 -14
-30 -22 0 -23 2 -14 30 6 17 12 30 14 30 2 0 8 -13 14 -30z"/>
<path d="M1140 320 l0 -80 45 0 c25 0 45 5 45 10 0 6 -13 10 -30 10 l-30 0 0
70 c0 56 -3 70 -15 70 -12 0 -15 -16 -15 -80z"/>
<path d="M1355 338 c-3 -35 -9 -71 -11 -80 -4 -12 0 -18 10 -18 12 0 16 11 16
43 0 69 14 74 34 12 9 -30 21 -55 25 -55 5 0 16 21 25 48 29 79 31 79 34 15 2
-50 6 -63 19 -63 13 0 15 9 9 61 -3 34 -6 70 -6 80 0 12 -7 19 -19 19 -15 0
-24 -14 -39 -57 l-19 -58 -17 58 c-12 43 -21 57 -35 57 -16 0 -20 -10 -26 -62z"/>
<path d="M1580 320 c0 -64 3 -80 15 -80 12 0 15 16 15 80 0 64 -3 80 -15 80
-12 0 -15 -16 -15 -80z"/>
<path d="M1676 384 c-28 -28 -17 -52 38 -79 35 -18 26 -40 -17 -40 -41 0 -45
-18 -4 -23 70 -8 92 54 32 90 -42 24 -41 42 3 46 18 2 30 8 27 13 -10 15 -62
10 -79 -7z"/>
<path d="M1828 389 c-32 -18 -22 -57 17 -76 45 -21 43 -48 -3 -48 -21 0 -32
-5 -32 -14 0 -10 10 -12 41 -8 68 9 81 55 24 88 -45 27 -47 53 -5 47 20 -3 30
0 30 9 0 15 -47 17 -72 2z"/>
<path d="M1960 320 c0 -64 3 -80 15 -80 12 0 15 16 15 80 0 64 -3 80 -15 80
-12 0 -15 -16 -15 -80z"/>
<path d="M2065 375 c-26 -25 -32 -63 -15 -95 27 -50 100 -49 126 2 42 81 -48
157 -111 93z m85 -27 c13 -25 13 -31 0 -55 -28 -51 -80 -35 -80 25 0 63 50 82
80 30z"/>
<path d="M2234 320 c0 -60 3 -80 13 -80 9 0 13 16 13 57 l0 57 36 -57 c19 -31
41 -57 47 -57 8 0 12 25 12 80 0 57 -4 80 -12 80 -9 0 -13 -18 -13 -57 l0 -58
-33 58 c-46 82 -62 77 -63 -23z"/>
<path d="M2505 375 c-26 -25 -32 -63 -15 -95 27 -50 100 -49 126 2 42 81 -48
157 -111 93z m85 -27 c13 -25 13 -31 0 -55 -28 -51 -80 -35 -80 25 0 63 50 82
80 30z"/>
<path d="M2680 320 c0 -47 4 -80 10 -80 6 0 10 28 10 63 l0 62 37 -62 c51 -86
63 -83 63 17 0 91 -17 109 -22 23 l-3 -58 -33 58 c-48 82 -62 76 -62 -23z"/>
<path d="M10 150 c0 -5 9 -10 20 -10 18 0 20 -7 20 -70 0 -57 3 -70 16 -70 13
0 14 10 8 70 l-7 70 27 0 c14 0 26 5 26 10 0 6 -25 10 -55 10 -30 0 -55 -4
-55 -10z"/>
<path d="M155 80 l0 -80 43 0 c23 0 42 5 42 10 0 6 -13 10 -30 10 -25 0 -30 4
-30 25 0 20 5 25 25 25 14 0 25 5 25 10 0 6 -11 10 -25 10 -20 0 -25 5 -25 25
0 21 5 25 30 25 17 0 30 5 30 10 0 6 -19 10 -42 10 l-43 0 0 -80z"/>
<path d="M299 93 c-12 -38 -24 -74 -27 -80 -2 -7 3 -13 11 -13 8 0 18 11 21
25 9 35 53 35 62 0 3 -14 12 -25 20 -25 18 0 18 2 -7 88 -29 97 -49 98 -80 5z
m44 -21 c-21 -5 -25 2 -17 34 l7 29 13 -30 c10 -25 10 -31 -3 -33z"/>
<path d="M455 135 c-16 -15 -25 -36 -25 -55 0 -38 39 -80 75 -80 14 0 25 5 25
10 0 6 -11 10 -25 10 -28 0 -45 25 -45 67 0 35 16 53 47 53 13 0 23 5 23 10 0
20 -51 10 -75 -15z"/>
<path d="M570 80 c0 -64 3 -80 15 -80 11 0 15 11 15 40 0 38 1 40 31 40 31 0
32 -1 26 -40 -4 -30 -2 -40 9 -40 11 0 14 18 14 80 0 64 -3 80 -15 80 -11 0
-13 -8 -8 -30 5 -28 4 -30 -26 -30 -28 0 -31 3 -31 30 0 20 -5 30 -15 30 -12
0 -15 -16 -15 -80z"/>
<path d="M730 80 l0 -80 45 0 c25 0 45 5 45 10 0 6 -13 10 -30 10 -16 0 -30 4
-30 9 0 5 -3 16 -6 25 -5 12 0 16 20 16 14 0 26 5 26 10 0 6 -11 10 -25 10
-20 0 -25 5 -25 25 0 21 5 25 30 25 17 0 30 5 30 10 0 6 -18 10 -40 10 l-40 0
0 -80z"/>
<path d="M860 80 c0 -64 3 -80 15 -80 10 0 15 11 15 35 0 24 5 35 14 35 8 0
20 -16 26 -35 6 -19 18 -35 26 -35 18 0 18 3 -5 50 -16 33 -17 41 -5 51 33 27
2 59 -55 59 l-31 0 0 -80z m65 35 c0 -13 -8 -21 -22 -23 -19 -3 -23 1 -23 23
0 22 4 26 23 23 14 -2 22 -10 22 -23z"/>
<path d="M1015 147 c-25 -19 -13 -58 26 -80 38 -21 33 -42 -9 -42 -19 0 -32
-5 -32 -12 0 -16 44 -17 71 -3 30 17 24 58 -11 78 -37 21 -40 52 -5 52 14 0
25 5 25 10 0 15 -43 12 -65 -3z"/>
<path d="M1208 80 c-20 -62 -23 -80 -12 -80 7 0 17 11 20 26 5 20 12 24 33 22
18 -2 27 -10 29 -26 2 -14 10 -22 23 -22 11 0 18 3 16 8 -3 4 -15 40 -26 80
-30 100 -48 98 -83 -8z m54 15 c4 -19 1 -25 -13 -25 -21 0 -22 4 -13 37 8 28
20 22 26 -12z"/>
<path d="M1350 80 c0 -91 17 -109 22 -23 l3 58 33 -57 c19 -32 38 -58 43 -58
5 0 9 36 9 80 0 88 -17 110 -22 28 l-3 -52 -28 52 c-42 77 -57 70 -57 -28z"/>
<path d="M1510 80 l0 -80 29 0 c43 0 60 9 76 41 21 40 19 66 -10 94 -16 17
-35 25 -60 25 l-35 0 0 -80z m84 28 c13 -38 -3 -82 -32 -86 -21 -3 -22 0 -22
58 0 58 1 61 22 58 14 -2 26 -14 32 -30z"/>
<path d="M1720 150 c0 -5 9 -10 20 -10 18 0 20 -7 20 -70 0 -40 4 -70 10 -70
6 0 10 30 10 70 0 63 2 70 20 70 11 0 20 5 20 10 0 6 -22 10 -50 10 -27 0 -50
-4 -50 -10z"/>
<path d="M1860 80 l0 -80 45 0 c25 0 45 5 45 10 0 6 -13 10 -30 10 -16 0 -30
4 -30 9 0 5 -3 16 -6 25 -5 12 0 16 20 16 14 0 26 5 26 10 0 6 -11 10 -25 10
-20 0 -25 5 -25 25 0 21 5 25 30 25 17 0 30 5 30 10 0 6 -18 10 -40 10 l-40 0
0 -80z"/>
<path d="M2002 84 c-13 -42 -21 -78 -18 -81 9 -9 26 8 26 28 0 14 7 19 30 19
23 0 30 -4 30 -20 0 -19 25 -39 35 -28 2 2 -6 37 -19 78 -17 57 -27 76 -42 78
-16 2 -23 -11 -42 -74z m52 14 c5 -24 3 -28 -14 -28 -23 0 -23 0 -10 36 12 31
15 30 24 -8z"/>
<path d="M2180 153 c-44 -16 -56 -97 -19 -134 21 -21 69 -23 76 -3 2 7 -5 10
-21 7 -35 -7 -62 36 -50 80 8 25 16 33 37 35 15 2 27 8 27 13 0 10 -25 11 -50
2z"/>
<path d="M2280 80 c0 -64 3 -80 15 -80 11 0 15 11 15 40 0 36 3 40 25 40 23 0
25 -4 25 -40 0 -29 4 -40 15 -40 12 0 15 16 15 80 0 64 -3 80 -15 80 -10 0
-15 -10 -15 -30 0 -25 -4 -30 -25 -30 -21 0 -25 5 -25 30 0 20 -5 30 -15 30
-12 0 -15 -16 -15 -80z"/>
<path d="M2440 80 c0 -47 4 -80 10 -80 6 0 10 33 10 80 0 47 -4 80 -10 80 -6
0 -10 -33 -10 -80z"/>
<path d="M2515 80 c0 -57 4 -80 13 -80 8 0 12 18 12 58 l1 57 31 -57 c43 -80
55 -76 54 22 -1 61 -4 80 -15 80 -10 0 -12 -13 -9 -55 3 -30 4 -55 2 -55 -1 0
-16 25 -33 55 -44 78 -56 72 -56 -25z"/>
<path d="M2695 135 c-17 -16 -25 -35 -25 -58 0 -48 19 -69 66 -71 38 -1 39 0
42 36 2 22 -1 38 -7 38 -6 0 -11 -14 -11 -31 0 -26 -3 -30 -22 -27 -13 2 -29
15 -36 31 -19 39 3 82 41 82 16 -1 27 5 27 12 0 22 -50 14 -75 -12z"/>
</g>
</svg>
