<?xml version="1.0" standalone="no"?>
<!DOCTYPE svg PUBLIC "-//W3C//DTD SVG 20010904//EN"
 "http://www.w3.org/TR/2001/REC-SVG-20010904/DTD/svg10.dtd">
<svg version="1.0" xmlns="http://www.w3.org/2000/svg"
 width="399.000000pt" height="399.000000pt" viewBox="0 0 399.000000 399.000000"
 preserveAspectRatio="xMidYMid meet">

<g transform="translate(0.000000,399.000000) scale(0.100000,-0.100000)"
fill="#000000" stroke="none">
<path d="M1885 3737 c-75 -11 -88 -21 -83 -66 3 -19 -2 -47 -9 -62 -13 -25
-16 -27 -51 -18 -20 5 -50 17 -65 25 -42 23 -114 1 -134 -42 -8 -17 -30 -39
-49 -49 -21 -11 -37 -29 -41 -44 -3 -14 -14 -38 -24 -53 -26 -36 -24 -50 11
-84 16 -16 30 -35 30 -41 0 -7 9 -18 20 -25 11 -7 20 -18 20 -25 0 -21 42 -27
57 -7 17 24 29 10 15 -19 -14 -29 -27 -70 -24 -80 1 -4 -2 -16 -7 -26 -14 -25
10 -134 37 -171 12 -16 22 -34 22 -40 0 -5 5 -10 10 -10 6 0 10 -8 10 -19 0
-10 7 -24 15 -31 8 -7 15 -29 15 -49 0 -20 7 -61 15 -91 11 -42 13 -67 5 -105
-6 -27 -11 -63 -13 -80 -1 -21 -8 -31 -22 -33 -20 -3 -45 -58 -45 -97 0 -8 -4
-15 -8 -15 -11 0 -7 41 6 67 18 33 14 41 -8 13 -11 -14 -20 -37 -20 -51 0 -15
-11 -37 -25 -51 -29 -29 -53 -155 -35 -188 5 -10 10 -28 10 -39 0 -36 33 -91
57 -96 13 -3 34 -7 48 -10 18 -4 25 -12 25 -30 0 -45 21 -48 370 -49 296 -1
328 1 353 17 17 11 27 26 27 41 0 19 7 25 35 30 40 8 71 42 86 99 6 22 18 51
26 64 12 18 13 27 4 36 -6 6 -11 19 -11 28 0 9 -16 40 -35 68 -19 28 -35 61
-35 73 -1 13 -12 37 -26 53 -25 29 -25 29 -18 5 4 -14 14 -30 23 -37 15 -11
14 -12 -1 -13 -20 0 -52 55 -42 72 5 7 0 9 -14 6 -16 -4 -23 1 -30 21 -28 74
-31 92 -21 153 6 35 8 78 5 97 -4 25 4 52 30 107 19 40 39 76 45 80 6 3 8 12
5 20 -3 7 -1 16 4 19 6 4 10 19 10 35 0 16 5 32 11 36 7 4 8 22 4 51 -10 71
-13 79 -29 112 -23 43 -19 61 5 29 27 -37 40 -35 75 7 16 20 41 51 57 69 30
37 35 77 12 96 -8 7 -17 27 -21 46 -7 36 -36 64 -67 64 -10 0 -27 15 -37 33
-35 59 -90 72 -137 34 -34 -29 -93 -43 -93 -23 0 7 -7 19 -15 26 -8 7 -15 25
-15 41 0 15 -4 31 -10 34 -5 3 -10 14 -10 24 0 10 -7 24 -15 31 -19 16 -184
20 -270 7z m85 -33 c0 -14 -4 -23 -10 -19 -5 3 -10 15 -10 26 0 10 5 19 10 19
6 0 10 -12 10 -26z m40 0 c0 -16 -16 -19 -25 -4 -8 13 4 32 16 25 5 -4 9 -13
9 -21z m30 7 c0 -11 -4 -23 -10 -26 -6 -4 -10 5 -10 19 0 14 5 26 10 26 6 0
10 -9 10 -19z m33 -1 c-3 -11 -9 -23 -14 -26 -10 -6 -12 29 -2 39 13 13 21 7
16 -13z m-153 -7 c0 10 5 17 10 17 6 0 10 -11 10 -24 0 -23 -11 -28 -35 -15
-22 12 -48 3 -51 -16 -3 -20 -3 -20 12 -1 14 19 14 19 14 -1 0 -11 -6 -26 -14
-32 -8 -7 -17 -35 -21 -62 -7 -49 -8 -50 -26 -33 -21 19 -25 59 -8 70 6 3 15
0 20 -7 5 -9 8 2 6 28 0 23 -5 39 -9 37 -13 -8 -9 23 5 34 21 17 51 19 70 4
15 -13 17 -13 17 1z m225 8 c3 -5 -4 -16 -16 -24 -15 -11 -17 -17 -8 -23 7 -4
15 -2 17 4 6 20 20 13 26 -14 9 -33 -9 -56 -19 -25 -3 12 -12 21 -19 21 -7 0
-21 9 -31 20 -15 16 -15 22 -5 35 14 17 46 20 55 6z m-57 -57 c23 -9 38 -25
52 -59 19 -44 19 -46 1 -64 -14 -14 -22 -16 -30 -8 -16 16 -14 34 5 41 9 4 14
9 11 12 -3 3 -15 1 -27 -6 -24 -13 -63 -4 -57 13 2 7 12 10 22 9 16 -3 17 -1
6 12 -12 14 -11 16 6 16 10 0 25 -6 33 -12 8 -7 6 -3 -4 10 -24 28 -37 28 -65
-2 -16 -17 -20 -30 -15 -50 5 -23 3 -26 -21 -26 -24 0 -26 3 -20 29 5 22 1 35
-14 50 -12 12 -27 21 -34 21 -13 0 -56 -39 -46 -41 25 -5 59 -3 59 3 0 4 -4 8
-10 8 -5 0 -10 5 -10 11 0 8 5 8 15 -1 8 -7 15 -16 15 -21 0 -16 -31 -38 -48
-33 -13 5 -14 4 -3 -4 10 -7 11 -14 2 -31 -14 -26 -23 -26 -45 -2 -16 17 -16
24 -5 58 18 52 30 64 86 79 50 14 86 11 141 -12z m-423 -58 c12 -9 18 -25 17
-47 0 -19 -1 -53 -1 -77 -1 -24 -5 -41 -9 -38 -5 3 -6 -9 -4 -26 3 -19 -1 -34
-9 -40 -11 -7 -11 -11 -1 -15 6 -2 12 -16 12 -29 0 -13 -6 -24 -12 -24 -10 0
-10 -3 0 -9 16 -10 12 -43 -6 -49 -8 -2 -10 2 -6 13 4 10 -2 25 -16 40 -27 28
-24 57 3 30 29 -29 33 -7 4 23 -31 33 -35 47 -8 33 18 -10 31 -6 31 10 0 4
-13 12 -30 18 l-30 10 0 -65 c0 -45 -4 -64 -13 -64 -7 0 -18 -9 -25 -20 -14
-23 -32 -26 -32 -5 0 8 -9 19 -21 25 -11 7 -18 14 -15 17 3 3 0 15 -6 27 -10
19 -9 19 12 -2 21 -22 24 -22 38 -8 13 12 13 19 4 28 -18 18 -15 26 15 41 l27
15 -31 6 c-18 4 -41 3 -52 -3 -19 -11 -19 -10 -6 15 7 15 19 30 26 34 16 11 2
30 -23 30 -18 0 -19 -4 -14 -34 5 -25 3 -35 -9 -40 -15 -5 -21 -36 -7 -36 4 0
18 7 30 16 24 17 28 8 8 -18 -12 -16 -60 -22 -50 -6 3 4 -2 8 -10 8 -22 0 -20
33 4 55 11 10 20 28 20 40 0 15 11 26 40 39 37 16 41 16 64 0 29 -18 26 -34
-7 -35 l-22 0 23 -9 c12 -5 25 -16 28 -25 4 -8 16 -15 28 -15 19 1 19 2 4 13
-15 12 -15 14 3 25 10 7 19 22 18 35 0 22 0 22 -9 1 -4 -12 -15 -24 -24 -27
-13 -5 -14 -3 -3 14 10 16 9 21 -3 29 -8 5 -23 10 -32 10 -13 0 -18 8 -18 25
0 20 6 27 30 32 17 3 33 10 36 14 7 12 17 11 39 -5z m515 -11 c17 -21 24 -129
9 -157 -7 -12 -12 -37 -11 -54 1 -21 -6 -38 -22 -53 -23 -21 -24 -21 -28 -3
-3 11 -2 26 3 33 8 12 11 11 20 -1 8 -12 9 -11 4 7 -3 12 -1 24 5 28 8 5 8 11
1 19 -12 14 -9 79 4 109 7 17 5 34 -10 70 -9 21 8 23 25 2z m219 2 c6 -8 8
-17 4 -20 -3 -4 4 -7 16 -7 28 0 23 -21 -7 -35 -15 -7 -22 -19 -22 -38 0 -15
-7 -30 -15 -33 -8 -4 -15 -15 -15 -25 0 -10 -4 -19 -10 -19 -17 0 -11 36 10
55 28 26 25 39 -5 19 -14 -9 -25 -23 -25 -30 0 -8 -7 -14 -15 -14 -19 0 -19
13 1 52 9 16 11 27 5 24 -6 -4 -11 -1 -11 6 -1 7 -8 1 -16 -14 -8 -16 -23 -28
-34 -28 -11 0 -20 -5 -20 -12 0 -9 -3 -9 -11 -1 -9 9 -7 16 5 29 9 9 20 14 23
10 7 -7 33 13 33 25 0 5 -16 0 -36 -12 -42 -23 -49 -21 -28 9 11 15 25 22 50
22 24 0 34 5 34 15 0 29 69 45 89 22z m-669 -17 c0 -5 -7 -10 -15 -10 -8 0
-15 5 -15 10 0 6 7 10 15 10 8 0 15 -4 15 -10z m45 -23 c0 -8 4 -19 8 -23 4
-4 7 -27 7 -52 0 -39 -2 -43 -15 -32 -11 9 -13 16 -5 24 5 5 10 17 10 26 0 13
-1 13 -10 0 -7 -10 -12 -12 -17 -4 -5 6 -18 13 -31 17 -19 4 -21 3 -11 -9 6
-8 17 -14 24 -14 13 0 30 -48 21 -57 -9 -9 -54 42 -56 62 -5 52 0 65 26 65 14
0 23 -4 20 -9 -3 -5 2 -15 12 -22 15 -13 16 -12 3 4 -10 13 -10 17 -1 17 9 0
9 4 -1 17 -12 14 -12 16 1 11 8 -2 15 -12 15 -21z m274 -40 c-21 -17 -19 -17
15 2 38 22 39 22 33 1 -3 -11 -1 -18 4 -14 5 3 9 1 9 -5 0 -5 -12 -14 -27 -19
-24 -9 -25 -11 -7 -11 12 -1 27 6 34 14 20 24 29 18 28 -17 -1 -34 -32 -76
-43 -58 -3 6 -2 10 3 10 6 0 15 14 21 30 10 30 10 30 -12 15 -33 -23 -52 -19
-94 21 -30 28 -33 34 -16 29 16 -4 29 0 45 17 13 13 25 19 27 14 2 -5 -7 -18
-20 -29z m-210 3 c21 0 8 -45 -14 -48 -18 -2 -21 3 -22 40 -2 37 0 41 11 26 7
-10 19 -18 25 -18z m108 -19 c-5 -2 -3 -7 4 -12 11 -7 11 -9 -2 -9 -9 0 -22 7
-29 15 -11 13 -10 14 6 9 16 -6 17 -5 7 7 -21 21 -15 34 6 13 10 -10 14 -21 8
-23z m544 17 c22 -6 39 -15 39 -20 0 -5 -4 -7 -9 -4 -5 3 -16 -5 -25 -19 -16
-24 -15 -27 5 -54 12 -16 31 -32 43 -35 21 -5 21 -5 -1 12 -16 13 -20 24 -16
45 l6 28 23 -35 c21 -30 23 -39 12 -55 -9 -14 -16 -17 -24 -10 -8 7 -15 6 -20
-2 -4 -8 -3 -9 4 -5 21 13 13 -12 -10 -35 -13 -12 -17 -19 -10 -15 6 4 12 3
12 -2 0 -17 -28 -21 -40 -6 -7 8 -19 14 -26 14 -8 0 -14 4 -14 9 0 5 15 7 34
4 40 -5 52 14 29 47 -13 19 -22 21 -55 17 -39 -5 -39 -5 -36 26 3 27 7 32 30
32 14 -1 24 3 22 7 -3 4 -16 8 -29 8 -32 0 -41 17 -19 41 20 22 24 23 75 7z
m-598 -54 c-5 -30 -3 -36 16 -41 11 -3 21 -12 21 -19 0 -12 -4 -12 -22 -2 -13
7 -26 17 -29 22 -4 5 -12 -1 -19 -13 -11 -22 -12 -22 -31 -5 -24 22 -24 41 1
54 17 9 20 8 21 -12 0 -13 3 -17 6 -10 2 6 9 9 15 6 7 -5 9 2 5 18 -7 24 -1
38 14 38 4 0 5 -16 2 -36z m99 21 c1 -6 -11 -17 -25 -25 -24 -14 -28 -13 -44
4 -10 10 -12 16 -5 11 19 -10 64 3 56 17 -4 6 -1 9 5 7 7 -3 13 -9 13 -14z
m301 -16 c-5 -19 -50 -45 -60 -35 -10 10 18 45 39 49 13 2 24 5 25 6 0 0 -1
-8 -4 -20z m227 -8 c0 -5 -7 -11 -15 -15 -15 -5 -20 5 -8 17 9 10 23 9 23 -2z
m-761 -68 c1 -16 1 -16 -37 3 -35 17 -34 16 -26 38 5 14 10 13 34 -7 16 -12
29 -28 29 -34z m280 32 c-2 -6 -10 -9 -19 -7 -13 2 -13 2 0 -7 12 -9 11 -11
-8 -11 -26 0 -41 28 -22 40 16 10 53 -2 49 -15z m179 -29 c-3 -43 -1 -53 11
-48 11 4 13 1 8 -12 -4 -10 -10 -30 -13 -44 -6 -26 -6 -27 11 -7 l16 20 -4
-20 c-3 -11 -8 -28 -12 -37 -4 -11 -3 -18 4 -18 6 0 11 5 11 10 0 6 5 10 10
10 6 0 3 -15 -7 -32 -15 -28 -18 -30 -21 -13 -2 11 -8 25 -14 32 -5 6 -10 29
-11 51 0 23 -5 38 -9 36 -4 -3 -8 9 -8 25 0 17 5 31 10 31 6 0 9 3 9 8 -3 18
1 62 6 62 3 0 4 -24 3 -54z m174 29 c-3 -16 -17 -32 -35 -41 -23 -12 -27 -18
-16 -25 11 -7 11 -9 -3 -9 -18 0 -22 9 -19 42 2 14 -3 16 -30 8 -18 -5 -36
-15 -41 -22 -5 -9 -8 -7 -8 7 0 43 46 59 84 30 27 -20 46 -19 46 3 0 10 3 22
7 25 13 14 20 6 15 -18z m-312 -51 c-10 -11 -29 -14 -74 -11 -60 3 -61 4 -64
35 -4 37 7 41 33 12 24 -27 60 -25 82 4 l18 24 8 -24 c6 -16 5 -30 -3 -40z
m-290 20 c0 -8 -4 -12 -10 -9 -5 3 -10 13 -10 21 0 8 5 12 10 9 6 -3 10 -13
10 -21z m-71 -13 c15 -11 35 -19 46 -18 11 1 24 -8 31 -21 10 -20 8 -34 -12
-85 -14 -34 -27 -88 -31 -120 -3 -31 -11 -63 -17 -70 -6 -7 -10 -10 -9 -8 1 2
-2 12 -8 22 -6 12 -6 19 0 19 5 0 12 -6 15 -12 3 -7 4 6 1 30 -3 26 -1 42 5
42 7 0 7 8 -1 22 -9 16 -9 23 0 26 6 2 11 18 11 35 0 25 3 29 11 17 7 -11 8
-6 3 20 -6 31 -5 33 9 22 14 -12 15 -10 4 17 -12 33 -27 24 -27 -16 0 -13 -4
-23 -10 -23 -5 0 -10 4 -10 8 0 5 -11 14 -24 20 -23 10 -35 41 -28 75 4 22 8
21 41 -2z m138 0 c9 8 13 8 13 1 0 -6 9 -14 20 -17 11 -3 20 -12 20 -20 0 -12
27 -30 41 -27 3 0 18 -10 35 -23 28 -23 28 -24 6 -25 -14 0 -26 8 -32 23 l-9
22 0 -22 c-1 -13 -5 -23 -9 -23 -17 0 -54 49 -47 62 3 7 -1 4 -9 -6 -9 -11
-17 -18 -18 -15 -2 2 -13 18 -26 36 -24 34 -30 55 -10 35 8 -8 15 -9 25 -1z
m443 -14 c0 -12 -34 -47 -45 -47 -11 0 -4 30 11 44 19 19 34 21 34 3z m163 -4
c-3 -7 -9 -11 -15 -10 -5 1 -15 -6 -21 -16 -10 -14 -9 -20 3 -27 8 -5 21 -8
28 -5 6 2 12 0 12 -4 0 -5 3 -16 6 -25 10 -25 -16 -19 -45 12 -30 32 -37 79
-12 85 30 7 49 3 44 -10z m-73 -13 c0 -12 -10 -25 -25 -32 -15 -7 -24 -17 -21
-25 3 -8 1 -11 -4 -8 -15 10 -12 24 13 55 26 34 37 37 37 10z m-279 -47 c-10
-36 -36 -42 -37 -8 -1 14 2 23 6 20 5 -3 11 -1 15 5 13 20 23 9 16 -17z m209
17 c0 -5 -9 -15 -20 -22 -11 -7 -20 -20 -20 -28 0 -13 2 -13 9 -1 6 9 16 11
27 7 18 -7 18 -8 2 -17 -28 -15 -22 -30 7 -19 28 11 33 -1 10 -20 -8 -7 -15
-19 -15 -26 0 -8 -4 -14 -10 -14 -5 0 -10 6 -10 13 0 7 -9 32 -20 55 -17 35
-18 45 -8 62 13 20 48 28 48 10z m-590 -66 c0 -16 -6 -24 -17 -24 -13 0 -14
-3 -5 -12 18 -18 15 -48 -5 -48 -13 0 -14 -3 -5 -12 17 -17 15 -38 -4 -38 -14
0 -14 -3 -4 -15 9 -11 9 -19 2 -28 -6 -7 -9 -22 -6 -34 3 -11 1 -24 -5 -27 -6
-4 -11 0 -11 8 0 8 -9 20 -20 26 -11 6 -20 17 -20 25 0 17 16 20 25 5 4 -6 11
-8 16 -4 6 4 1 16 -12 30 -22 24 -20 28 14 25 23 -3 22 16 -3 29 -25 13 -16
33 11 25 23 -8 25 10 2 23 -20 12 -10 47 12 38 8 -3 15 -1 15 3 0 5 -7 11 -15
15 -8 3 -15 15 -15 26 0 20 1 20 25 4 15 -10 25 -26 25 -40z m335 36 c0 -8
-10 -16 -22 -18 -17 -3 -20 1 -16 18 6 24 38 24 38 0z m-224 -23 c-16 -16 -26
0 -10 19 9 11 15 12 17 4 2 -6 -1 -17 -7 -23z m539 3 c-10 -18 -9 -22 9 -27
11 -3 19 -13 18 -23 -1 -10 -5 -16 -9 -14 -5 3 -6 9 -3 14 3 4 -4 10 -15 13
-22 6 -27 36 -8 55 17 17 21 7 8 -18z m-753 -4 c-3 -8 1 -20 9 -26 20 -17 18
-50 -3 -50 -17 -1 -16 -2 1 -15 16 -12 17 -17 6 -30 -7 -8 -17 -12 -24 -8 -6
4 -5 -1 2 -10 8 -9 11 -21 7 -27 -9 -15 -25 -12 -19 3 3 8 -2 20 -11 27 -8 7
-15 22 -15 33 0 19 1 20 20 2 23 -21 26 -9 5 21 -16 24 -9 39 12 23 17 -15 16
1 -2 24 -14 20 -10 47 7 47 6 0 8 -6 5 -14z m260 -21 c-4 -8 -17 -15 -29 -15
l-23 1 24 20 c26 21 37 19 28 -6z m255 -7 c-9 -9 -12 -7 -12 12 0 19 3 21 12
12 9 -9 9 -15 0 -24z m-209 -18 c-17 -30 -33 -39 -33 -20 0 18 24 50 38 50 10
0 9 -8 -5 -30z m132 3 c25 -28 34 -63 14 -63 -5 0 -8 4 -4 10 3 5 -6 17 -20
26 -14 9 -25 25 -25 35 0 25 5 24 35 -8z m50 3 c14 -14 25 -30 24 -38 -2 -7 2
-23 9 -35 9 -17 9 -22 -4 -27 -8 -3 -12 -2 -9 3 3 5 0 13 -6 16 -20 13 -19 -2
2 -29 12 -15 18 -30 15 -34 -4 -3 -11 0 -16 8 -5 8 -11 12 -15 9 -3 -3 4 -18
16 -33 14 -17 18 -33 13 -44 -4 -9 -6 -23 -5 -30 2 -10 -2 -10 -18 0 -12 7
-21 21 -21 32 0 15 3 16 15 6 19 -15 19 -11 1 26 -7 16 -12 45 -11 64 1 19 3
43 4 53 0 10 6 15 11 12 6 -3 10 -1 10 5 0 6 -8 14 -17 17 -18 7 -33 22 -33
36 0 12 8 8 35 -17z m85 4 c6 -11 7 -20 2 -20 -10 0 -32 21 -32 32 0 16 19 8
30 -12z m-200 -5 c0 -8 -11 -22 -25 -31 -14 -9 -22 -20 -19 -25 3 -5 0 -9 -5
-9 -15 0 -14 36 1 60 15 23 48 27 48 5z m177 -10 c8 -22 -6 -33 -17 -15 -13
20 -12 30 0 30 6 0 13 -7 17 -15z m-347 -4 c0 -12 -20 -25 -27 -18 -7 7 6 27
18 27 5 0 9 -4 9 -9z m525 -34 c-10 -15 -12 -28 -6 -31 5 -4 12 3 16 14 3 11
13 20 21 20 19 0 18 -14 -5 -34 -39 -36 -76 19 -38 57 26 26 35 8 12 -26z
m-79 8 c-3 -9 -11 -13 -16 -10 -8 5 -7 11 1 21 14 18 24 11 15 -11z m-396 9
c0 -3 -9 -17 -20 -31 -18 -23 -20 -23 -20 -6 0 10 5 24 12 31 13 13 28 16 28
6z m194 -41 c12 -17 15 -28 8 -35 -7 -7 -14 -3 -21 11 -7 12 -18 21 -26 21
-18 0 -28 17 -21 36 7 18 32 4 60 -33z m146 21 c0 -8 -4 -14 -9 -14 -11 0 -22
26 -14 34 9 9 23 -3 23 -20z m-220 -9 c0 -8 -9 -20 -20 -27 -11 -7 -20 -18
-20 -25 0 -7 -4 -13 -10 -13 -16 0 -12 37 5 44 8 3 15 12 15 21 0 8 7 15 15
15 8 0 15 -7 15 -15z m187 0 c8 -22 -6 -33 -17 -15 -13 20 -12 30 0 30 6 0 13
-7 17 -15z m-271 -11 c-3 -9 -6 -20 -6 -25 0 -5 -4 -9 -10 -9 -11 0 -14 33 -3
43 12 13 25 7 19 -9z m384 9 c0 -5 -7 -17 -15 -27 -15 -20 -15 -20 -15 0 0 12
3 24 7 27 9 9 23 9 23 0z m-480 -10 c0 -5 -5 -15 -10 -23 -8 -12 -10 -11 -10
8 0 12 5 22 10 22 6 0 10 -3 10 -7z m440 -14 c0 -11 -4 -18 -10 -14 -5 3 -7
12 -3 20 7 21 13 19 13 -6z m156 -11 c-22 -31 -20 -45 4 -23 22 20 27 6 8 -24
-12 -19 -12 -19 -30 1 -18 21 -17 30 10 61 21 24 27 13 8 -15z m-343 -30 c11
-9 16 -21 13 -27 -4 -6 -14 -4 -26 7 -10 9 -26 23 -35 30 -8 7 -13 18 -9 23 6
10 17 4 57 -33z m152 32 c3 -5 2 -10 -4 -10 -5 0 -13 5 -16 10 -3 6 -2 10 4
10 5 0 13 -4 16 -10z m87 -42 c-8 -27 -11 -30 -17 -15 -4 10 -2 30 5 45 16 34
24 14 12 -30z m-522 38 c0 -3 -4 -8 -10 -11 -5 -3 -10 -1 -10 4 0 6 5 11 10
11 6 0 10 -2 10 -4z m66 -38 l-16 -22 0 26 c0 14 6 28 13 31 19 6 20 -10 3
-35z m-246 -25 c0 -7 -4 -13 -9 -13 -5 0 -7 -10 -4 -22 4 -22 3 -22 -11 2 -8
14 -15 30 -15 35 -1 6 3 4 8 -4 5 -8 11 -9 15 -3 3 5 -1 15 -9 22 -8 7 -15 20
-15 29 0 12 5 10 20 -9 11 -14 20 -31 20 -37z m306 5 c-9 -5 -14 -13 -11 -19
4 -5 1 -9 -4 -9 -16 0 -13 27 7 58 l17 26 3 -23 c2 -15 -3 -28 -12 -33z m163
-28 c14 0 14 -27 1 -35 -5 -3 -10 1 -10 9 0 8 -10 20 -22 27 -13 6 -30 20 -39
32 -16 19 -16 19 -30 -12 -8 -17 -17 -31 -21 -31 -16 0 -7 47 13 68 l20 22 39
-40 c21 -22 43 -40 49 -40z m115 65 c6 -17 4 -18 -18 -9 -20 8 -21 24 -2 24 8
0 16 -7 20 -15z m-383 -28 c-8 -8 -11 -7 -11 4 0 20 13 34 18 19 3 -7 -1 -17
-7 -23z m538 -10 c-17 -38 -29 -34 -18 5 5 18 9 35 9 37 0 3 5 0 10 -5 8 -8 7
-19 -1 -37z m-119 12 c0 -6 -4 -7 -10 -4 -5 3 -10 11 -10 16 0 6 5 7 10 4 6
-3 10 -11 10 -16z m55 -10 c5 -15 0 -28 -15 -43 -24 -22 -24 -20 -3 31 4 11 3
14 -5 9 -13 -8 -17 6 -5 17 12 12 22 7 28 -14z m-95 -36 c0 -13 -3 -13 -15 -3
-8 7 -15 19 -15 27 0 13 3 13 15 3 8 -7 15 -19 15 -27z m187 -3 c-13 -35 -22
-23 -13 16 4 14 11 22 15 19 5 -3 4 -19 -2 -35z m-561 -8 c-14 -14 -16 -14
-16 -1 0 20 23 44 29 28 2 -6 -4 -18 -13 -27z m51 16 c-4 -12 -1 -28 5 -35 9
-11 7 -18 -4 -30 -15 -14 -16 -13 -16 13 0 39 7 74 14 74 4 0 4 -10 1 -22z
m-120 -22 c-10 -21 -13 -22 -24 -7 -17 22 -16 32 2 25 8 -4 15 -1 15 6 0 6 4
9 9 6 5 -4 4 -16 -2 -30z m30 2 c-3 -7 -5 -2 -5 12 0 14 2 19 5 13 2 -7 2 -19
0 -25z m-126 -9 c20 -29 21 -32 6 -41 -10 -5 -17 -16 -17 -23 0 -8 -5 -15 -11
-15 -5 0 -7 5 -4 11 4 5 -1 20 -12 31 -18 21 -18 21 4 7 28 -17 41 -5 20 19
-16 17 -23 42 -13 42 3 0 15 -14 27 -31z m272 -6 c-22 -17 -27 -10 -13 17 10
18 14 20 21 9 6 -9 3 -18 -8 -26z m118 15 c13 -9 20 -20 16 -24 -5 -5 -17 1
-26 13 l-18 21 -26 -30 c-19 -21 -27 -25 -27 -14 0 21 29 54 45 52 7 -1 23 -9
36 -18z m379 15 c0 -5 -7 -17 -15 -27 -8 -10 -12 -24 -8 -30 4 -8 3 -8 -6 0
-8 7 -8 17 1 37 12 25 28 37 28 20z m-115 -37 c-8 -12 -12 -26 -8 -31 5 -4 2
-5 -4 -1 -16 9 -17 38 -1 54 19 19 29 3 13 -22z m-119 -13 c-7 -7 -26 7 -26
19 0 6 6 6 15 -2 9 -7 13 -15 11 -17z m-429 -5 c-3 -8 -6 -5 -6 6 -1 11 2 17
5 13 3 -3 4 -12 1 -19z m83 13 c0 -6 -4 -13 -10 -16 -5 -3 -10 1 -10 9 0 9 5
16 10 16 6 0 10 -4 10 -9z m410 -9 c0 -10 -7 -27 -15 -38 -13 -17 -14 -16 -5
16 6 19 10 36 10 37 0 2 2 3 5 3 3 0 5 -8 5 -18z m-540 -7 c6 -8 10 -19 8 -24
-1 -5 -11 2 -21 15 -19 26 -8 34 13 9z m214 -26 c-24 -27 -29 -16 -8 16 10 16
20 23 22 16 2 -7 -4 -21 -14 -32z m121 21 c10 -11 15 -23 12 -27 -4 -4 -13 1
-20 11 -16 22 -47 11 -47 -16 0 -10 -4 -16 -10 -13 -15 9 -12 19 10 43 26 27
32 27 55 2z m285 -9 c-6 -12 -8 -27 -4 -33 4 -7 3 -8 -4 -4 -15 9 -15 39 0 54
17 17 22 7 8 -17z m-530 9 c0 -5 -2 -10 -4 -10 -3 0 -8 5 -11 10 -3 6 -1 10 4
10 6 0 11 -4 11 -10z m290 0 c0 -5 -2 -10 -4 -10 -3 0 -8 5 -11 10 -3 6 -1 10
4 10 6 0 11 -4 11 -10z m40 -38 c0 -12 -3 -12 -15 -2 -8 7 -15 22 -15 34 1 21
1 21 15 2 8 -11 15 -26 15 -34z m-378 -4 c-9 -9 -12 -7 -12 12 0 19 3 21 12
12 9 -9 9 -15 0 -24z m418 12 c0 -11 -2 -20 -4 -20 -2 0 -6 9 -9 20 -3 11 -1
20 4 20 5 0 9 -9 9 -20z m110 16 c0 -3 -4 -8 -10 -11 -5 -3 -10 -1 -10 4 0 6
5 11 10 11 6 0 10 -2 10 -4z m81 -32 c-9 -28 -9 -29 -10 -3 -1 14 2 29 6 32
11 12 13 2 4 -29z m-663 -2 c2 -12 -2 -22 -8 -22 -6 0 -8 5 -5 10 4 6 1 18 -7
27 -11 14 -11 16 2 11 8 -2 16 -14 18 -26z m139 6 c-3 -8 -6 -5 -6 6 -1 11 2
17 5 13 3 -3 4 -12 1 -19z m36 2 c-3 -12 -8 -19 -11 -16 -5 6 5 36 12 36 2 0
2 -9 -1 -20z m324 -2 c-3 -8 -6 -5 -6 6 -1 11 2 17 5 13 3 -3 4 -12 1 -19z
m-397 -91 c0 -32 5 -68 11 -79 16 -29 13 -86 -5 -130 -9 -20 -13 -45 -10 -55
6 -15 4 -15 -9 2 -16 19 -16 19 -17 -11 0 -17 -11 -51 -23 -77 -16 -30 -20
-48 -13 -51 6 -2 2 -5 -9 -5 -12 -1 -27 -7 -34 -13 -11 -11 -14 -10 -18 0 -3
6 -9 10 -14 6 -5 -3 -9 0 -9 5 0 6 5 11 10 11 6 0 10 8 8 18 -2 11 3 17 17 17
11 0 26 4 33 8 14 10 17 31 2 22 -5 -3 -10 0 -10 7 0 11 -2 11 -8 0 -15 -22
-11 79 5 142 10 41 12 81 8 131 -7 71 -7 73 24 104 17 17 31 37 31 44 1 7 7 1
15 -13 8 -14 14 -51 15 -83z m146 91 c-3 -7 -9 -21 -12 -30 -7 -19 -24 -25
-24 -8 0 15 23 50 33 50 5 0 6 -6 3 -12z m64 -5 c-1 -15 -41 -56 -47 -49 -4 4
4 17 18 31 27 27 29 28 29 18z m37 -24 c-1 -19 -17 -28 -17 -10 0 5 -3 17 -6
25 -5 12 -2 15 9 10 9 -3 15 -14 14 -25z m33 16 c0 -8 -2 -15 -4 -15 -2 0 -6
7 -10 15 -3 8 -1 15 4 15 6 0 10 -7 10 -15z m-410 -20 c0 -25 -15 -24 -16 1
-1 13 2 21 7 18 5 -3 9 -11 9 -19z m588 5 c7 -11 9 -20 4 -20 -4 0 -13 9 -20
20 -7 11 -9 20 -4 20 4 0 13 -9 20 -20z m35 5 c-3 -9 -8 -14 -10 -11 -3 3 -2
9 2 15 9 16 15 13 8 -4z m-4 -114 c5 -26 7 -81 4 -122 -7 -100 10 -177 43
-189 13 -5 24 -16 24 -24 0 -7 7 -19 15 -26 8 -7 15 -17 15 -22 0 -7 -5 -6
-13 1 -8 6 -17 8 -20 4 -4 -3 -7 5 -8 18 l0 24 -9 -22 c-5 -13 -13 -23 -18
-23 -21 0 -39 38 -106 230 -9 23 -11 73 -8 148 l4 114 34 -33 c22 -21 36 -47
43 -78z m-125 33 c-1 -32 -3 -93 -4 -134 -4 -119 4 -191 24 -202 9 -5 13 -14
10 -20 -4 -6 -2 -13 4 -17 7 -4 8 -12 2 -20 -6 -11 -12 -5 -24 22 -8 20 -20
37 -25 37 -6 0 -11 10 -12 23 0 12 -4 31 -9 42 -5 14 -8 2 -8 -39 0 -43 2 -56
11 -47 18 18 31 13 16 -6 -8 -10 -9 -14 -2 -10 6 4 15 2 19 -4 4 -8 3 -9 -4
-5 -8 4 -12 0 -12 -10 0 -16 -1 -16 -15 2 -14 19 -14 19 -15 -1 -1 -13 -4 -15
-7 -6 -5 11 -7 11 -14 0 -5 -9 -8 -3 -6 18 1 18 5 33 9 33 4 0 5 12 3 28 -2
15 -4 38 -5 52 -2 24 -3 24 -11 -5 -6 -20 -6 -12 -2 25 4 30 8 106 9 169 2
108 3 115 25 127 37 20 44 12 43 -52z m176 59 c0 -5 -4 -14 -9 -21 -6 -10 -10
-9 -14 7 -3 14 0 21 9 21 8 0 14 -3 14 -7z m-512 -80 c-4 -26 -5 -25 -12 9 -5
21 -5 46 0 55 6 15 8 13 12 -9 2 -16 2 -40 0 -55z m78 63 c8 -8 14 -23 15 -33
0 -15 2 -14 11 5 6 12 16 21 22 19 14 -5 19 -137 7 -179 l-9 -33 -2 35 c-1 19
-8 58 -15 85 l-13 50 -1 -55 c0 -30 4 -71 10 -90 6 -19 10 -50 10 -68 0 -19 4
-30 9 -27 6 3 11 0 11 -7 4 -41 17 61 18 138 1 75 4 93 17 98 23 9 44 -12 44
-42 0 -14 8 -65 17 -114 14 -74 15 -96 5 -135 -9 -32 -10 -49 -2 -57 22 -22
10 -36 -29 -36 -44 0 -51 10 -54 79 -1 39 -6 45 -34 42 -6 -1 -14 6 -16 16 -3
13 -5 11 -7 -7 -1 -23 -2 -23 -10 -5 -8 18 -9 17 -9 -7 -1 -24 -21 -53 -21
-30 0 5 -16 7 -36 5 -35 -4 -35 -3 -29 29 3 18 10 56 14 83 l7 50 8 -72 c5
-40 11 -73 15 -73 7 0 -4 242 -14 287 -4 18 -5 39 -2 48 8 19 44 20 63 1z
m105 -19 c-8 -8 -11 -7 -11 4 0 20 13 34 18 19 3 -7 -1 -17 -7 -23z m184 -59
c-6 -102 -15 -152 -25 -141 -9 11 11 223 22 223 4 0 6 -37 3 -82z m-495 -18
c0 -39 -3 -51 -10 -40 -5 8 -10 40 -10 70 0 39 3 51 10 40 5 -8 10 -40 10 -70z
m384 48 c9 -37 7 -126 -4 -133 -5 -3 -10 -3 -10 2 0 4 -5 36 -10 71 -6 35 -8
67 -5 72 10 17 22 11 29 -12z m241 -8 c4 -12 6 -67 5 -123 -1 -56 0 -123 2
-149 3 -26 1 -45 -3 -42 -19 11 -29 88 -26 207 2 122 8 151 22 107z m-114
-255 c5 -46 -12 -58 -24 -17 -9 34 2 92 13 71 4 -8 10 -32 11 -54z m-269 -65
c2 -8 9 -21 17 -29 11 -13 11 -16 -5 -22 -14 -5 -21 0 -28 18 -6 19 -11 22
-17 12 -4 -8 -3 -19 3 -26 8 -10 7 -12 -6 -7 -10 4 -16 1 -17 -7 -1 -8 -5 -3
-9 11 -8 24 -8 24 -9 3 -1 -13 -5 -23 -10 -23 -11 0 -9 65 2 77 5 4 12 2 16
-5 5 -9 12 -7 27 7 20 19 30 17 36 -9z m-102 4 c0 -3 -5 -14 -10 -24 -9 -16
-8 -18 6 -13 14 5 14 3 3 -16 -17 -27 -25 -27 -32 0 -4 15 -11 20 -21 16 -11
-4 -16 -1 -16 10 0 9 3 13 7 10 3 -4 13 -1 21 6 13 10 15 9 9 -6 -4 -11 -3
-16 3 -12 6 3 10 13 10 21 0 8 5 14 10 14 6 0 10 -3 10 -6z m-185 -19 c-3 -8
-8 -23 -12 -32 -7 -19 -10 -28 -12 -40 -1 -5 -7 1 -13 11 -8 15 -8 21 0 24 7
2 12 12 12 21 0 19 8 31 21 31 5 0 6 -7 4 -15z m582 -53 c-3 -12 -5 -11 -6 5
0 12 -5 25 -11 28 -5 3 -10 14 -10 23 1 11 6 8 16 -11 8 -16 13 -36 11 -45z
m163 32 c13 -33 13 -69 0 -38 -5 12 -13 25 -19 29 -14 8 -14 35 -1 35 6 0 15
-12 20 -26z m-120 -25 c0 -6 -4 -7 -10 -4 -5 3 -10 11 -10 16 0 6 5 7 10 4 6
-3 10 -11 10 -16z m-478 -45 c-7 -12 -11 -13 -17 -4 -4 7 -2 16 6 21 18 11 23
4 11 -17z m48 15 c0 -8 4 -8 13 -2 14 12 47 13 47 2 0 -4 -4 -11 -10 -14 -5
-3 -10 -1 -10 6 0 7 -4 8 -12 2 -27 -20 -72 -11 -51 10 10 11 23 8 23 -4z m82
-11 c-7 -7 -12 -8 -12 -2 0 6 3 14 7 17 3 4 9 5 12 2 2 -3 -1 -11 -7 -17z
m177 11 c8 -2 29 -20 48 -39 18 -19 30 -27 27 -17 -5 13 -1 17 20 17 21 0 26
-5 27 -27 1 -25 2 -25 9 7 5 20 5 39 -1 45 -6 5 -9 5 -9 -3 0 -17 -17 -15 -23
2 -4 11 1 14 21 13 19 -2 28 -9 30 -24 2 -13 8 -20 17 -17 29 12 44 -60 18
-89 -15 -17 -13 -17 15 3 24 18 35 21 44 12 7 -7 8 -15 1 -24 -5 -7 -10 -26
-11 -41 -1 -15 -6 -37 -12 -47 -8 -15 -6 -21 10 -30 11 -6 25 -8 31 -4 6 3 1
-12 -10 -35 -24 -46 -26 -55 -9 -45 7 4 8 3 4 -4 -12 -20 -26 -13 -26 14 0 15
-4 23 -10 19 -6 -4 -8 -16 -5 -28 2 -12 2 -16 -1 -9 -9 19 -24 14 -17 -5 4
-13 3 -15 -5 -8 -8 8 -9 21 -2 44 10 35 -1 71 -21 71 -6 0 -7 5 -4 10 3 6 2
10 -3 10 -5 0 -12 9 -15 20 -3 11 -1 18 4 14 5 -3 9 -1 9 5 0 5 -6 11 -12 14
-10 3 -9 8 2 22 9 11 10 16 3 11 -9 -5 -13 0 -13 13 0 12 -4 20 -9 18 -5 -1
-17 7 -26 18 -16 20 -16 20 -6 -2 6 -12 12 -46 12 -75 1 -48 2 -49 8 -18 l7
35 8 -40 c4 -22 8 -58 9 -80 1 -39 1 -39 11 -12 5 15 13 27 18 27 13 0 9 -29
-8 -54 -10 -16 -12 -26 -5 -31 6 -3 11 -11 11 -17 0 -6 -8 -3 -19 8 -10 10
-17 22 -14 27 2 4 -1 7 -6 7 -6 0 -11 -4 -11 -10 0 -5 -9 -10 -20 -10 -13 0
-18 -5 -14 -15 4 -8 1 -15 -5 -15 -6 0 -11 7 -11 15 0 8 -9 15 -20 15 -17 0
-15 5 15 37 19 20 35 41 35 46 0 5 -12 -6 -27 -24 -73 -87 -193 -90 -269 -8
-56 60 -67 146 -28 207 8 12 12 28 8 35 -4 7 -4 9 1 5 4 -4 20 1 35 12 15 11
38 24 51 30 22 9 104 8 138 -1z m-339 -10 c0 -14 -18 -20 -26 -8 -4 8 -9 7
-16 -2 -8 -11 -11 -11 -15 -1 -4 10 -8 10 -19 1 -13 -10 -21 1 -9 13 8 8 85 6
85 -3z m390 1 c0 -5 -2 -10 -4 -10 -3 0 -8 5 -11 10 -3 6 -1 10 4 10 6 0 11
-4 11 -10z m38 -9 c3 -8 -1 -12 -9 -9 -7 2 -15 10 -17 17 -3 8 1 12 9 9 7 -2
15 -10 17 -17z m152 9 c3 -1 13 -2 23 -1 9 1 17 -2 17 -7 0 -13 -108 -11 -113
3 -3 7 8 10 32 9 20 -1 38 -3 41 -4z m-704 -9 c-3 -4 3 -16 14 -26 11 -10 20
-26 20 -35 0 -9 3 -20 7 -24 4 -3 8 -16 10 -28 5 -30 5 -30 68 -34 l55 -4 0
38 c0 28 7 45 25 62 14 13 25 19 25 13 0 -5 -3 -13 -7 -17 -7 -7 -9 -12 -19
-66 -3 -19 -11 -38 -17 -42 -9 -6 -9 -8 -1 -8 11 0 43 -67 40 -82 0 -4 9 -15
22 -23 26 -19 29 -35 6 -35 -10 0 -14 6 -11 14 3 8 -1 17 -9 20 -8 3 -14 11
-14 19 0 7 -11 23 -25 35 -14 12 -25 29 -25 37 0 8 -4 15 -10 15 -21 0 -8 -41
20 -61 16 -12 27 -26 24 -31 -3 -5 -11 -4 -18 1 -7 6 -16 8 -19 4 -4 -3 -7 -1
-7 5 0 7 -8 12 -18 12 -10 0 -27 7 -39 15 -16 11 -22 12 -26 2 -3 -8 -14 -5
-38 12 -19 13 -31 21 -27 16 10 -11 -10 -45 -27 -45 -8 0 -15 -4 -15 -10 0
-14 12 -12 39 7 14 9 21 11 17 5 -5 -9 3 -12 31 -10 21 2 53 -3 71 -11 27 -11
32 -19 32 -47 0 -19 -4 -34 -10 -34 -5 0 -10 7 -10 15 0 8 -5 15 -10 15 -6 0
-13 -7 -16 -15 -4 -8 -11 -15 -16 -15 -6 0 -8 7 -4 15 4 11 -1 15 -19 15 -14
0 -25 -6 -25 -12 -1 -7 -6 -3 -13 10 -7 12 -16 19 -20 16 -4 -4 -7 -2 -7 6 0
9 -3 10 -14 1 -18 -15 -46 -3 -46 19 0 10 -3 27 -6 37 -4 12 -3 14 3 6 11 -16
29 -3 30 22 1 11 3 27 4 35 6 39 -1 69 -16 64 -11 -5 -13 2 -8 33 6 38 31 82
46 83 5 0 6 -4 3 -9z m769 -1 c3 -5 1 -10 -4 -10 -6 0 -11 5 -11 10 0 6 2 10
4 10 3 0 8 -4 11 -10z m-582 -23 c17 -7 17 -9 -6 -37 -18 -21 -24 -38 -21 -55
4 -25 3 -26 -33 -19 -41 8 -63 24 -63 48 0 8 -4 18 -10 21 -5 3 -10 15 -10 25
0 16 9 19 58 22 64 3 60 4 85 -5z m519 -12 c13 -3 30 -14 40 -25 9 -11 21 -20
26 -20 6 0 13 -8 15 -17 2 -10 2 -3 0 15 -4 32 9 43 23 20 5 -8 10 -6 14 8 6
15 9 11 19 -21 17 -60 15 -135 -4 -135 -10 0 -15 -11 -16 -32 -1 -31 -1 -32
-9 -8 -8 25 -8 25 -9 2 -1 -14 -5 -21 -12 -16 -6 4 -8 21 -5 43 l7 36 -22 -45
c-12 -25 -22 -54 -21 -65 1 -12 -1 -15 -4 -6 -5 11 -8 11 -15 0 -16 -26 -20 0
-5 30 22 41 20 49 -9 43 -24 -4 -25 -2 -18 29 7 40 20 51 51 44 23 -6 32 17
12 30 -5 3 -10 1 -10 -4 0 -6 -7 -11 -15 -11 -9 0 -15 9 -15 24 0 21 -18 38
-44 40 -5 1 -11 14 -13 29 -3 18 0 26 7 22 5 -3 20 -8 32 -10z m-776 -54 c-3
-4 3 -18 13 -30 20 -23 18 -53 -5 -72 -8 -6 -15 -32 -15 -58 -2 -45 -2 -45
-11 17 -11 68 -3 152 13 152 6 0 8 -4 5 -9z m941 -53 c-2 -13 -4 -5 -4 17 -1
22 1 32 4 23 2 -10 2 -28 0 -40z m-917 -58 c0 -5 -5 -10 -11 -10 -5 0 -7 5 -4
10 3 6 8 10 11 10 2 0 4 -4 4 -10z m236 -99 c-12 -18 -21 -12 -21 14 0 20 2
22 14 11 7 -8 10 -19 7 -25z m592 7 c-2 -22 -9 -32 -22 -34 -14 -2 -16 0 -7 9
6 6 11 21 11 34 0 13 5 23 11 23 6 0 9 -14 7 -32z m-560 -1 c5 -24 -15 -21
-21 4 -3 13 -1 19 6 16 7 -2 13 -11 15 -20z m-148 -37 c0 -5 -2 -10 -4 -10 -3
0 -8 5 -11 10 -3 6 -1 10 4 10 6 0 11 -4 11 -10z m130 0 c0 -5 -4 -10 -10 -10
-5 0 -10 5 -10 10 0 6 5 10 10 10 6 0 10 -4 10 -10z m86 -8 c1 -7 0 -8 -3 -2
-3 7 -10 7 -20 -1 -12 -10 -16 -10 -24 2 -6 10 -9 11 -9 1 0 -7 -5 -10 -10 -7
-18 11 -1 23 32 21 17 -1 33 -7 34 -14z m59 -2 c3 -5 1 -10 -4 -10 -6 0 -11 5
-11 10 0 6 2 10 4 10 3 0 8 -4 11 -10z m115 -1 c0 -5 -9 -9 -20 -9 -11 0 -20
4 -20 8 0 4 9 8 20 9 11 1 20 -2 20 -8z m25 1 c3 -5 1 -10 -4 -10 -6 0 -11 5
-11 10 0 6 2 10 4 10 3 0 8 -4 11 -10z m85 0 c0 -5 -4 -10 -10 -10 -5 0 -10 5
-10 10 0 6 5 10 10 10 6 0 10 -4 10 -10z m-430 -50 c0 -5 -2 -10 -4 -10 -3 0
-8 5 -11 10 -3 6 -1 10 4 10 6 0 11 -4 11 -10z m40 0 c0 -5 -4 -10 -10 -10 -5
0 -10 5 -10 10 0 6 5 10 10 10 6 0 10 -4 10 -10z m30 0 c0 -5 -4 -10 -10 -10
-5 0 -10 5 -10 10 0 6 5 10 10 10 6 0 10 -4 10 -10z m38 -1 c-2 -6 -8 -10 -13
-10 -5 0 -11 4 -13 10 -2 6 4 11 13 11 9 0 15 -5 13 -11z m272 -2 c0 -12 -95
-15 -106 -4 -4 3 -17 2 -30 -3 -16 -6 -24 -6 -24 1 0 6 -6 7 -12 2 -20 -12
-41 -13 -55 -1 -9 7 -13 7 -13 -1 0 -6 -4 -11 -10 -11 -5 0 -10 7 -10 15 0 14
19 16 130 14 91 -1 130 -4 130 -12z m30 3 c0 -5 -4 -10 -10 -10 -5 0 -10 5
-10 10 0 6 5 10 10 10 6 0 10 -4 10 -10z m40 0 c0 -5 -4 -10 -10 -10 -5 0 -10
5 -10 10 0 6 5 10 10 10 6 0 10 -4 10 -10z m30 0 c0 -5 -4 -10 -10 -10 -5 0
-10 5 -10 10 0 6 5 10 10 10 6 0 10 -4 10 -10z"/>
<path d="M2090 3690 c0 -5 7 -7 15 -4 8 4 15 8 15 10 0 2 -7 4 -15 4 -8 0 -15
-4 -15 -10z"/>
<path d="M1553 3356 c15 -22 14 -24 -11 -44 -26 -20 -26 -21 -5 -21 33 -1 48
33 27 64 -9 14 -19 25 -21 25 -3 0 2 -11 10 -24z"/>
<path d="M2040 3480 c-18 -12 -2 -12 25 0 13 6 15 9 5 9 -8 0 -22 -4 -30 -9z"/>
<path d="M2107 2631 c-4 -24 -5 -46 -2 -49 11 -11 16 8 13 49 l-3 44 -8 -44z"/>
<path d="M1954 2362 c-54 -34 -79 -79 -79 -143 0 -46 5 -63 28 -93 53 -69 134
-86 209 -44 101 57 110 202 16 269 -44 32 -132 37 -174 11z m102 -14 c-3 -13
-6 -30 -7 -38 -1 -8 -5 -1 -10 15 -7 25 -7 23 -4 -12 3 -26 1 -43 -5 -43 -21
0 -25 -2 -43 -17 -9 -9 -20 -13 -24 -10 -3 4 0 7 8 7 10 1 8 5 -6 16 -38 29
-60 36 -30 9 l30 -26 -30 5 -30 5 30 -14 c17 -8 36 -14 43 -15 6 0 12 -4 12
-10 0 -5 -6 -10 -12 -11 -10 0 -10 -2 0 -6 6 -2 12 -9 12 -14 0 -6 -3 -8 -8
-6 -4 3 -23 -3 -42 -14 -19 -10 -31 -18 -27 -19 4 0 21 7 37 15 35 18 38 10 8
-22 -28 -30 -34 -29 -52 5 -14 27 -14 27 22 39 l37 12 -39 -5 -39 -5 6 52 c4
29 13 59 21 67 13 13 18 11 40 -14 14 -16 26 -23 26 -16 0 7 5 10 10 7 15 -9
12 7 -5 29 -29 38 -16 52 49 55 25 1 28 -2 22 -21z m66 -17 c35 -31 35 -36 -2
-51 -17 -7 -29 -15 -26 -17 2 -2 18 3 35 11 31 17 39 13 46 -24 3 -17 -2 -20
-39 -20 -63 0 -73 17 -34 59 l33 34 -31 -21 c-17 -12 -34 -19 -38 -15 -3 3 -6
0 -6 -7 0 -7 -3 -11 -6 -8 -9 10 16 88 28 85 7 -1 24 -13 40 -26z m-142 -35
c0 -5 -11 1 -25 14 -19 17 -22 26 -13 31 12 8 37 -23 38 -45z m74 -55 c3 -4
-6 -6 -19 -3 -14 2 -25 6 -25 8 0 8 39 4 44 -5z m-8 -37 c15 6 17 5 6 -6 -14
-14 -43 -2 -50 23 -2 8 2 5 10 -5 10 -13 21 -17 34 -12z m-6 16 c0 -5 -4 -10
-10 -10 -5 0 -10 5 -10 10 0 6 5 10 10 10 6 0 10 -4 10 -10z m140 -15 c0 -18
-3 -18 -60 -1 l-45 15 53 0 c40 1 52 -2 52 -14z m-27 -21 c18 -4 25 -10 19
-16 -6 -6 -21 -4 -42 7 -46 24 -57 5 -18 -31 l33 -29 -29 33 c-33 36 -29 39
15 17 25 -13 28 -19 19 -35 -16 -30 -36 -24 -64 16 -21 32 -25 34 -30 16 -4
-11 -1 -32 6 -47 10 -22 9 -28 -3 -35 -11 -8 -15 -1 -17 36 -3 44 12 79 28 69
5 -3 12 -1 15 5 4 6 14 9 23 6 10 -3 30 -8 45 -12z m-123 -63 c0 -46 -1 -48
-25 -43 -34 6 -40 18 -21 47 9 13 16 28 16 32 0 4 -10 -7 -21 -24 -12 -18 -25
-30 -31 -27 -5 3 2 19 18 35 15 15 31 26 36 23 4 -3 8 0 8 6 0 6 5 8 10 5 6
-3 10 -28 10 -54z m71 -13 c6 -11 4 -18 -5 -21 -9 -4 -16 3 -20 18 -3 13 -9
31 -12 42 -5 16 -4 16 11 -2 9 -11 21 -27 26 -37z"/>
<path d="M2001 2330 c0 -8 4 -24 9 -35 5 -13 9 -14 9 -5 0 8 -4 24 -9 35 -5
13 -9 14 -9 5z"/>
<path d="M1910 2222 c0 -5 7 -9 15 -9 8 0 12 4 9 9 -3 4 -9 8 -15 8 -5 0 -9
-4 -9 -8z"/>
<path d="M2081 2322 c-17 -31 -13 -40 5 -14 9 13 14 26 11 29 -3 2 -10 -4 -16
-15z"/>
<path d="M2115 2250 l-20 -9 20 0 c11 0 29 4 40 9 l20 9 -20 0 c-11 0 -29 -4
-40 -9z"/>
<path d="M2006 2124 c-4 -14 -5 -29 -2 -31 3 -3 8 7 12 21 3 15 4 29 1 32 -2
3 -8 -7 -11 -22z"/>
<path d="M2250 2328 c0 -4 6 -8 14 -8 8 0 17 4 20 8 2 4 -4 8 -15 8 -10 0 -19
-4 -19 -8z"/>
<path d="M2260 2290 c0 -5 5 -10 10 -10 6 0 10 5 10 10 0 6 -4 10 -10 10 -5 0
-10 -4 -10 -10z"/>
<path d="M2321 2104 c0 -11 3 -14 6 -6 3 7 2 16 -1 19 -3 4 -6 -2 -5 -13z"/>
<path d="M1660 2240 c0 -5 5 -10 11 -10 5 0 7 5 4 10 -3 6 -8 10 -11 10 -2 0
-4 -4 -4 -10z"/>
<path d="M1615 2090 c3 -5 8 -10 11 -10 2 0 4 5 4 10 0 6 -5 10 -11 10 -5 0
-7 -4 -4 -10z"/>
<path d="M2472 2250 c0 -14 2 -19 5 -12 2 6 2 18 0 25 -3 6 -5 1 -5 -13z"/>
<path d="M1740 1893 c0 -17 16 -30 42 -37 15 -3 32 -15 38 -26 12 -23 55 -21
-392 -20 -245 1 -277 -1 -272 -15 4 -9 18 -15 35 -15 22 0 30 -6 35 -24 7 -30
-2 -47 -21 -39 -27 10 -16 -27 21 -78 20 -27 40 -49 46 -49 6 0 -1 15 -16 34
-31 41 -20 56 37 49 30 -4 37 -9 37 -27 0 -22 17 -46 32 -46 4 0 9 39 10 88
l3 87 85 0 c78 0 85 -2 85 -20 0 -17 -6 -19 -47 -16 -55 3 -88 -12 -88 -40 0
-25 23 -71 46 -90 18 -15 18 -12 -6 34 -28 57 30 91 65 37 23 -34 60 -51 90
-40 15 6 21 2 25 -14 3 -11 12 -21 20 -21 11 0 15 17 16 70 1 39 2 76 3 83 0
6 14 12 31 12 27 0 30 -3 30 -33 0 -18 -5 -38 -12 -45 -10 -10 -7 -17 11 -35
16 -15 25 -18 28 -9 3 6 20 12 38 12 29 0 34 -4 37 -27 2 -14 8 -28 14 -30 14
-5 24 43 24 113 l0 54 85 0 c84 0 85 0 85 -25 0 -24 -1 -24 -28 -8 -36 21 -79
11 -94 -23 -10 -20 -8 -29 9 -52 17 -22 28 -27 65 -26 35 0 47 -4 54 -20 5
-11 15 -21 22 -24 9 -3 12 19 12 87 0 76 3 91 16 91 9 0 14 6 12 13 -3 8 -42
14 -130 17 l-125 5 -35 45 c-30 39 -78 66 -78 43z m-412 -150 c-3 -35 -6 -38
-33 -38 -24 0 -31 5 -33 23 -6 38 5 52 38 52 30 0 31 -2 28 -37z m302 -11 c0
-32 -5 -41 -25 -50 -35 -16 -65 -15 -65 2 0 8 9 18 21 21 17 6 20 13 15 36 -5
27 -3 29 24 29 28 0 30 -2 30 -38z m200 3 c0 -34 -7 -40 -40 -35 -21 3 -28 17
-22 46 3 19 11 24 33 24 26 0 29 -3 29 -35z m200 -50 c-20 -24 -67 -35 -80
-20 -9 10 -7 18 9 34 17 17 25 19 51 10 24 -9 28 -14 20 -24z"/>
<path d="M2692 1873 c2 -11 14 -19 30 -21 24 -3 58 -34 58 -52 0 -3 -133 -4
-296 -2 -239 2 -295 0 -292 -10 3 -9 34 -15 98 -18 60 -3 95 -9 97 -17 4 -11
-49 -27 -72 -23 -23 5 -25 -2 -9 -30 10 -16 15 -32 11 -36 -12 -13 -54 6 -67
31 -7 14 -17 25 -22 25 -13 0 17 -52 45 -78 32 -30 71 -27 75 6 2 13 -2 30 -9
38 -11 14 -9 15 17 12 27 -3 29 -6 29 -43 0 -22 4 -46 8 -52 19 -30 27 -7 27
78 l0 90 42 -3 c52 -4 65 -32 23 -48 -25 -9 -25 -11 -11 -38 23 -44 42 -55 81
-49 29 5 35 3 35 -13 0 -15 18 -30 36 -30 2 0 4 38 4 85 l0 85 75 0 c60 0 75
-3 75 -15 0 -11 -11 -15 -43 -15 -70 0 -84 -31 -45 -101 12 -22 26 -39 31 -39
5 0 7 3 5 8 -2 4 -10 20 -18 35 -18 37 -3 62 36 62 27 0 29 -3 34 -49 3 -27
11 -51 18 -54 9 -3 12 18 12 82 0 79 2 86 20 86 30 0 24 20 -10 33 -17 6 -32
18 -35 27 -15 48 -102 97 -93 53z m-102 -147 c0 -39 -28 -66 -67 -66 -29 0
-30 26 -2 35 16 6 20 13 17 36 -4 26 -2 29 24 29 25 0 28 -3 28 -34z"/>
<path d="M707 1454 c-12 -12 -8 -42 6 -47 21 -8 39 8 35 29 -3 19 -29 30 -41
18z"/>
<path d="M997 1454 c-13 -13 -7 -42 10 -48 21 -8 36 6 31 30 -3 19 -29 30 -41
18z"/>
<path d="M1960 1440 c-11 -11 -20 -31 -20 -45 0 -14 -6 -25 -12 -25 -10 0 -10
-2 0 -9 10 -6 13 -27 10 -75 l-3 -66 30 0 30 0 -3 69 c-3 60 -1 70 15 74 17 4
17 5 0 6 -15 1 -18 8 -15 39 3 36 23 49 23 15 0 -23 24 -28 32 -7 4 11 0 22
-12 30 -26 19 -52 17 -75 -6z"/>
<path d="M3227 1453 c-11 -10 -8 -41 4 -49 6 -3 18 1 27 9 13 13 13 19 2 31
-14 17 -23 20 -33 9z"/>
<path d="M363 1443 c15 -4 17 -18 17 -108 0 -73 -4 -105 -12 -108 -7 -3 3 -6
22 -6 22 0 30 2 22 8 -9 5 -12 31 -10 90 l3 83 39 -91 c21 -50 41 -91 45 -91
4 0 25 44 47 97 l39 98 3 -89 c2 -65 -1 -92 -10 -98 -8 -4 5 -8 32 -8 l45 0
-3 106 c-3 80 0 109 10 115 8 6 -3 9 -30 9 -47 0 -39 10 -98 -130 l-15 -35
-36 83 -35 82 -47 -1 c-25 -1 -38 -3 -28 -6z"/>
<path d="M2143 1439 c14 -8 17 -25 17 -102 0 -61 -4 -97 -12 -105 -10 -10 8
-12 87 -10 l100 3 3 35 c2 31 1 33 -9 15 -19 -33 -41 -45 -81 -45 l-38 0 0 50
c0 43 3 50 20 50 11 0 26 -12 34 -27 15 -27 15 -27 15 32 0 50 -2 57 -11 40
-13 -24 -28 -35 -46 -35 -9 0 -12 13 -10 47 2 37 7 49 21 51 34 7 66 -8 81
-36 l15 -27 1 38 0 37 -102 0 c-75 -1 -98 -3 -85 -11z"/>
<path d="M2458 1443 c6 -2 12 -20 12 -39 0 -31 -2 -34 -24 -28 -36 9 -64 -12
-76 -55 -19 -72 14 -113 86 -107 21 2 50 4 64 5 19 1 21 4 12 13 -8 8 -12 48
-12 115 l0 103 -37 -1 c-21 0 -32 -3 -25 -6z m10 -146 c2 -45 0 -59 -13 -63
-25 -10 -38 11 -38 59 0 51 9 69 31 65 13 -2 18 -17 20 -61z"/>
<path d="M3112 1400 c-18 -22 -28 -40 -23 -40 7 0 11 -25 11 -63 0 -36 5 -68
12 -75 18 -18 43 -14 64 10 12 14 13 18 3 10 -23 -17 -29 -6 -29 60 0 45 3 58
15 58 8 0 15 5 15 10 0 6 -6 10 -14 10 -9 0 -16 12 -18 30 l-3 29 -33 -39z"/>
<path d="M1235 1399 c-20 -21 -26 -33 -17 -36 8 -3 12 -28 12 -74 0 -65 1 -69
25 -75 15 -4 32 -1 40 6 19 16 20 31 1 24 -15 -6 -26 23 -26 74 0 25 5 35 22
41 l22 8 -21 11 c-12 7 -23 21 -25 33 -3 19 -5 18 -33 -12z"/>
<path d="M691 1364 c6 -8 9 -41 7 -79 l-3 -65 30 0 30 0 -3 80 -4 79 -34 -1
c-26 -1 -31 -4 -23 -14z"/>
<path d="M790 1365 c7 -9 10 -38 8 -80 l-3 -65 30 0 30 0 -3 61 c-4 70 10 97
34 65 17 -24 19 -97 2 -114 -9 -9 -4 -12 23 -12 l34 0 -3 67 c-2 38 -8 74 -14
81 -13 15 -50 16 -65 1 -8 -8 -13 -8 -17 0 -4 6 -21 11 -38 11 -26 0 -29 -2
-18 -15z"/>
<path d="M985 1300 l0 -80 30 0 30 0 -3 80 c-3 79 -4 80 -30 80 l-27 0 0 -80z"/>
<path d="M1091 1366 c-23 -28 -9 -68 32 -89 36 -19 47 -40 27 -52 -17 -11 -51
6 -60 28 -8 20 -9 19 -9 -8 -1 -27 2 -30 35 -33 50 -3 74 13 74 48 0 24 -8 35
-40 55 -22 14 -40 30 -40 35 0 21 32 22 54 1 l22 -21 0 24 c0 20 -5 23 -42 24
-26 1 -46 -3 -53 -12z"/>
<path d="M1340 1366 c13 -17 12 -115 -3 -133 -7 -10 1 -13 33 -13 37 0 41 2
30 15 -8 10 -11 32 -7 61 7 67 0 84 -35 84 -25 0 -28 -2 -18 -14z"/>
<path d="M1411 1367 c-8 -11 -5 -17 14 -27 29 -16 52 -2 42 24 -8 20 -41 21
-56 3z"/>
<path d="M1493 1368 c58 -132 66 -159 55 -183 -12 -28 -28 -33 -28 -10 0 8 -9
15 -20 15 -27 0 -27 -37 1 -45 32 -10 48 12 95 130 l41 105 -26 0 c-18 0 -22
-3 -13 -9 11 -7 11 -16 1 -51 l-13 -44 -17 40 c-13 27 -15 42 -7 51 8 10 1 13
-32 13 -30 0 -41 -4 -37 -12z"/>
<path d="M1775 1355 c-49 -49 -17 -145 49 -145 40 0 80 41 80 83 0 76 -79 113
-129 62z m73 -58 c2 -55 0 -68 -14 -74 -23 -9 -34 14 -34 78 0 60 5 71 30 67
11 -3 16 -19 18 -71z"/>
<path d="M2571 1304 c7 -90 27 -112 80 -84 10 6 19 7 19 2 0 -4 16 -6 36 -4
20 3 31 7 26 11 -6 4 -12 38 -14 76 l-3 70 -34 3 c-30 3 -33 1 -22 -11 7 -10
11 -38 9 -74 -3 -50 -6 -58 -23 -58 -18 0 -20 8 -23 73 -3 71 -3 72 -30 72
l-28 0 7 -76z"/>
<path d="M2782 1358 c-30 -33 -36 -70 -18 -106 20 -38 66 -51 101 -28 30 19
33 31 6 16 -26 -13 -46 -5 -60 26 -15 33 -14 66 2 89 16 21 37 12 37 -16 0
-23 28 -25 37 -3 16 42 -70 59 -105 22z"/>
<path d="M2936 1367 c-21 -15 -18 -52 4 -52 9 0 15 10 15 25 0 18 6 26 23 28
18 3 22 -1 22 -25 0 -24 -7 -32 -42 -48 -47 -22 -60 -52 -33 -75 13 -11 23
-11 47 -2 22 8 35 8 47 0 13 -8 23 -8 37 0 10 6 13 12 7 12 -9 0 -13 20 -13
65 0 53 -3 66 -19 75 -27 14 -74 13 -95 -3z m53 -128 c-7 -4 -17 -5 -21 -3
-14 9 -8 43 10 53 14 8 18 5 20 -16 2 -14 -2 -29 -9 -34z"/>
<path d="M3210 1365 c7 -9 10 -40 8 -80 l-3 -65 30 0 30 0 -5 77 -5 78 -33 2
c-27 1 -31 -1 -22 -12z"/>
<path d="M3325 1355 c-17 -16 -25 -35 -25 -60 0 -93 122 -116 151 -28 28 87
-64 151 -126 88z m75 -11 c14 -36 12 -87 -4 -109 -12 -16 -16 -17 -30 -6 -16
14 -23 92 -10 125 9 24 33 19 44 -10z"/>
<path d="M3485 1299 l0 -79 30 0 30 0 -3 58 c-3 44 0 61 13 72 26 22 37 -1 33
-69 l-3 -61 30 0 30 0 -5 68 c-3 37 -9 73 -13 80 -10 15 -41 16 -68 2 -12 -7
-19 -7 -19 -1 0 5 -12 9 -27 9 l-28 -1 0 -78z"/>
<path d="M2502 1108 c-7 -7 -12 -22 -12 -34 0 -12 -6 -25 -12 -27 -10 -4 -10
-6 0 -6 8 -1 12 -19 12 -56 0 -30 5 -55 10 -55 6 0 10 24 10 54 0 44 4 55 18
59 16 4 16 5 0 6 -27 2 -23 45 5 59 21 10 21 11 2 11 -12 1 -26 -4 -33 -11z"/>
<path d="M2911 1108 c4 -32 -2 -59 -12 -53 -5 4 -21 4 -34 1 -32 -8 -49 -59
-32 -95 10 -22 19 -26 55 -26 l42 -1 0 93 c0 58 -4 93 -10 93 -6 0 -10 -6 -9
-12z m-3 -112 c2 -24 -2 -42 -10 -47 -20 -13 -26 -11 -43 15 -22 33 -5 79 28
74 18 -2 23 -10 25 -42z"/>
<path d="M925 1100 c-34 -13 -48 -38 -49 -86 -1 -59 26 -84 90 -84 44 0 44 0
44 35 0 19 1 38 3 43 1 4 -13 8 -30 10 -19 2 -33 -1 -33 -7 0 -6 9 -11 20 -11
15 0 20 -7 20 -25 0 -22 -4 -25 -34 -25 -63 0 -87 69 -41 115 17 17 35 25 60
25 22 0 34 4 30 10 -7 12 -52 12 -80 0z"/>
<path d="M2630 1020 c0 -53 4 -90 10 -90 6 0 10 37 10 90 0 53 -4 90 -10 90
-6 0 -10 -37 -10 -90z"/>
<path d="M2980 1095 c0 -8 5 -15 10 -15 6 0 10 7 10 15 0 8 -4 15 -10 15 -5 0
-10 -7 -10 -15z"/>
<path d="M2200 1071 c0 -11 -8 -22 -17 -24 -16 -4 -16 -5 -1 -6 13 -1 18 -13
20 -53 3 -49 5 -53 31 -56 15 -2 27 2 27 8 0 6 -8 10 -17 8 -27 -4 -32 88 -6
95 17 4 17 5 1 6 -11 1 -18 9 -18 21 0 11 -4 20 -10 20 -5 0 -10 -9 -10 -19z"/>
<path d="M1070 1040 c-25 -25 -26 -72 -2 -93 46 -42 111 0 97 63 -11 50 -60
65 -95 30z m72 -25 c9 -19 8 -29 -6 -50 -9 -14 -21 -25 -26 -25 -16 0 -40 31
-40 54 0 47 53 63 72 21z"/>
<path d="M1337 1042 c-21 -23 -22 -76 -1 -96 17 -18 84 -22 84 -5 0 6 -8 8
-20 4 -24 -8 -60 11 -60 30 0 11 12 15 40 15 36 0 40 3 40 25 0 42 -54 59 -83
27z m60 -18 c4 -12 -42 -26 -52 -16 -3 3 0 11 7 19 13 16 39 14 45 -3z"/>
<path d="M1495 1050 c-3 -5 -12 -7 -20 -3 -12 4 -15 -6 -15 -56 0 -72 18 -83
22 -13 2 38 7 49 26 57 12 5 22 13 22 17 0 11 -28 10 -35 -2z"/>
<path d="M1585 1050 c-3 -5 -12 -7 -20 -3 -12 4 -15 -6 -15 -56 0 -34 4 -61
10 -61 6 0 10 22 10 49 0 41 4 51 20 56 31 10 40 -2 40 -56 0 -27 5 -49 10
-49 14 0 12 104 -2 118 -14 14 -44 16 -53 2z"/>
<path d="M1725 1050 c-3 -5 -12 -7 -20 -3 -12 4 -15 -6 -15 -56 0 -34 4 -61
10 -61 6 0 10 20 10 44 0 46 19 72 45 62 11 -4 15 -20 15 -56 0 -27 5 -50 10
-50 6 0 10 19 10 43 0 46 13 67 41 67 21 0 29 -19 30 -73 l1 -42 8 38 c10 55
2 86 -26 93 -14 4 -31 1 -40 -6 -11 -10 -18 -10 -26 -2 -14 14 -45 16 -53 2z"/>
<path d="M1932 1044 c-26 -18 -30 -74 -6 -98 18 -18 84 -22 84 -5 0 6 -7 9
-15 5 -22 -8 -65 11 -65 29 0 11 11 15 40 15 36 0 40 3 40 25 0 14 -8 29 -19
35 -26 13 -33 13 -59 -6z m55 -20 c2 -7 -10 -14 -27 -16 -29 -4 -40 9 -23 26
10 10 46 3 50 -10z"/>
<path d="M2085 1050 c-3 -5 -12 -7 -20 -3 -12 4 -15 -6 -15 -56 0 -34 4 -61
10 -61 6 0 10 22 10 49 0 41 4 51 20 56 31 10 40 -2 40 -56 0 -27 5 -49 10
-49 14 0 12 104 -2 118 -14 14 -44 16 -53 2z"/>
<path d="M2358 1050 c-25 -15 -33 -66 -14 -95 21 -33 69 -34 90 -3 42 59 -15
133 -76 98z m65 -31 c13 -20 2 -65 -18 -73 -38 -14 -67 32 -45 74 13 24 47 24
63 -1z"/>
<path d="M2725 1050 c-3 -5 -12 -7 -20 -3 -12 4 -15 -6 -15 -56 0 -34 4 -61
10 -61 6 0 10 22 10 49 0 41 4 51 20 56 31 10 40 -2 40 -56 0 -27 5 -49 10
-49 14 0 12 104 -2 118 -14 14 -44 16 -53 2z"/>
<path d="M3045 1051 c-3 -5 9 -11 27 -13 22 -2 34 -9 36 -21 3 -14 -1 -17 -21
-12 -16 4 -30 1 -41 -10 -34 -34 -11 -65 47 -63 l37 1 0 48 c0 30 -6 53 -16
63 -17 18 -59 21 -69 7z m65 -75 c0 -20 -25 -37 -44 -30 -16 6 -21 25 -9 37
12 13 53 7 53 -7z"/>
<path d="M1190 1045 c0 -21 44 -115 53 -112 6 2 21 29 34 61 12 31 17 56 11
54 -6 -2 -19 -24 -28 -48 l-18 -45 -16 39 c-9 21 -16 42 -16 47 0 5 -4 9 -10
9 -5 0 -10 -2 -10 -5z"/>
<path d="M2980 990 c0 -33 4 -60 10 -60 6 0 10 27 10 60 0 33 -4 60 -10 60 -6
0 -10 -27 -10 -60z"/>
</g>
</svg>
