<svg width="203" height="209" viewBox="0 0 203 209" fill="none" xmlns="http://www.w3.org/2000/svg">
<path d="M168.646 187.079C168.646 187.079 157.44 174.157 153.208 161.276C148.976 148.395 150.988 149.854 150.988 149.854C150.988 149.854 156.697 162.389 161.035 168.439C165.374 174.489 173.09 183.378 173.09 183.378L168.646 187.079Z" fill="#455A64"/>
<path d="M170.879 151.848C170.806 151.713 170.687 151.608 170.544 151.553C170.401 151.497 170.243 151.494 170.097 151.543C169.952 151.593 169.829 151.693 169.75 151.824C169.671 151.956 169.641 152.111 169.666 152.263C170.349 156.795 171.825 167.428 171.77 174.328C171.692 183.286 171.77 186.747 171.77 186.747H176.436C176.436 186.747 175.61 168.227 174.553 162.578C173.815 158.636 172.245 154.243 170.879 151.848Z" fill="#455A64"/>
<path d="M173.427 185.261C175.382 180.831 176.675 176.138 177.267 171.333C177.65 168.033 176.962 163.575 175.942 157.63C175.554 155.454 175.364 153.246 175.374 151.035C175.378 150.79 175.462 150.553 175.615 150.36C175.767 150.168 175.979 150.032 176.217 149.972C176.455 149.913 176.706 149.933 176.931 150.031C177.156 150.129 177.342 150.299 177.46 150.514C178.024 151.515 179.657 154.949 180.068 157.1C181.199 162.975 182.477 165.91 181.499 171.485C180.52 177.06 176.884 185.64 176.884 185.64L173.427 185.261Z" fill="#455A64"/>
<path d="M177.627 185.64C177.627 185.64 189.935 159.19 190.789 155.267C191.643 151.345 194.541 142.299 194.883 142.807C195.224 143.314 195.736 148.096 193.498 153.555C191.26 159.015 181.836 186.461 181.836 186.461H177.631" fill="#455A64"/>
<path d="M172.079 184.453C171.956 184.387 171.84 184.308 171.733 184.218C171.512 184.052 171.184 183.821 170.778 183.489C169.628 182.573 168.525 181.6 167.473 180.572C164.005 177.16 161.003 173.306 158.543 169.108C156.087 164.917 154.046 160.496 152.447 155.909C151.828 154.151 151.376 152.715 151.085 151.714C150.933 151.215 150.831 150.823 150.757 150.56C150.715 150.427 150.683 150.291 150.661 150.154C150.722 150.28 150.771 150.411 150.808 150.546L151.182 151.686C151.505 152.674 151.98 154.1 152.622 155.84C154.265 160.395 156.319 164.792 158.76 168.974C161.213 173.16 164.184 177.019 167.603 180.461C168.918 181.772 170.044 182.769 170.833 183.433C171.225 183.775 171.549 184.02 171.756 184.2C171.869 184.278 171.977 184.363 172.079 184.453Z" fill="#263238"/>
<path d="M173.422 171.766C173.364 171.512 173.327 171.252 173.312 170.991C173.256 170.442 173.178 169.731 173.085 168.868C172.892 167.082 172.587 164.613 172.162 161.904C171.738 159.195 171.239 156.753 170.865 154.981C170.681 154.137 170.533 153.435 170.404 152.9C170.337 152.647 170.293 152.389 170.27 152.129C170.367 152.371 170.445 152.619 170.506 152.872C170.644 153.361 170.824 154.067 171.036 154.944C171.461 156.693 171.959 159.135 172.421 161.867C172.882 164.599 173.132 167.059 173.279 168.859C173.353 169.754 173.404 170.483 173.422 170.987C173.445 171.246 173.445 171.507 173.422 171.766Z" fill="#263238"/>
<path d="M176.297 150.306C176.359 150.412 176.407 150.525 176.441 150.643C176.537 150.892 176.657 151.215 176.81 151.626C176.962 152.037 177.161 152.577 177.341 153.2C177.52 153.823 177.76 154.52 177.936 155.318C178.037 155.715 178.139 156.13 178.24 156.56C178.342 156.989 178.42 157.45 178.513 157.944C178.716 158.867 178.84 159.901 178.974 160.972C179.541 165.619 179.379 170.326 178.494 174.923C178.273 175.98 178.074 176.986 177.807 177.909C177.677 178.371 177.571 178.832 177.437 179.248C177.304 179.663 177.17 180.078 177.045 180.466C176.81 181.246 176.524 181.929 176.297 182.534C176.071 183.138 175.836 183.655 175.656 184.066C175.476 184.477 175.328 184.781 175.218 185.021C175.174 185.134 175.118 185.243 175.051 185.344C175.08 185.225 175.12 185.109 175.171 184.998C175.268 184.753 175.402 184.43 175.564 184.029C175.725 183.627 175.951 183.106 176.159 182.483C176.367 181.86 176.648 181.191 176.87 180.411L177.244 179.192C177.373 178.768 177.474 178.315 177.594 177.854C177.853 176.931 178.056 175.929 178.259 174.877C179.119 170.293 179.287 165.606 178.757 160.972C178.614 159.906 178.499 158.895 178.296 157.958C178.204 157.497 178.139 157.035 178.042 156.597L177.751 155.355C177.585 154.561 177.364 153.86 177.193 153.237C177.022 152.614 176.856 152.083 176.708 151.654L176.39 150.657C176.346 150.544 176.315 150.426 176.297 150.306Z" fill="#263238"/>
<path d="M194.758 143.342C194.763 143.382 194.763 143.422 194.758 143.462C194.758 143.554 194.74 143.67 194.703 143.808C194.652 144.108 194.583 144.556 194.463 145.123C194.223 146.259 193.826 147.892 193.212 149.882C192.598 151.871 191.758 154.201 190.761 156.758C189.764 159.315 188.615 162.112 187.531 165.065C186.446 168.019 185.565 170.927 184.762 173.548C183.959 176.169 183.211 178.537 182.482 180.471C181.919 182.013 181.271 183.523 180.539 184.993C180.29 185.515 180.077 185.916 179.916 186.175L179.745 186.479C179.705 186.547 179.682 186.579 179.676 186.576C179.684 186.538 179.698 186.5 179.717 186.466L179.87 186.152C179.999 185.875 180.211 185.478 180.446 184.947C180.945 183.9 181.61 182.358 182.293 180.406C182.976 178.454 183.732 176.095 184.512 173.483C185.292 170.871 186.155 167.945 187.281 164.978C188.408 162.01 189.538 159.213 190.54 156.67C191.541 154.127 192.386 151.801 193.041 149.826C193.697 147.851 194.098 146.231 194.366 145.1C194.5 144.537 194.587 144.094 194.656 143.794C194.689 143.66 194.716 143.55 194.735 143.457C194.74 143.418 194.747 143.38 194.758 143.342Z" fill="#263238"/>
<path d="M156.789 137.504C156.621 137.339 156.401 137.235 156.167 137.209C155.932 137.183 155.695 137.237 155.495 137.361C155.294 137.485 155.141 137.673 155.059 137.895C154.977 138.117 154.973 138.359 155.045 138.584C155.469 139.942 155.985 141.27 156.591 142.557C158.285 146.153 163.255 159.056 165.581 166.141C167.907 173.225 171.184 186.447 171.184 186.447L176.154 185.644C176.154 185.644 171.609 163.925 167.169 156.107C163.597 149.808 160.029 140.721 156.789 137.504Z" fill="#455A64"/>
<path d="M166.943 170.571C167.045 170.761 167.13 170.961 167.196 171.166C167.344 171.559 167.543 172.126 167.769 172.837C168.23 174.254 168.789 176.234 169.352 178.431C169.915 180.627 170.381 182.63 170.709 184.084C170.856 184.767 170.981 185.344 171.082 185.806C171.14 186.013 171.174 186.227 171.184 186.443C171.094 186.246 171.026 186.04 170.981 185.829L170.519 184.126C170.141 182.63 169.638 180.669 169.089 178.495C168.539 176.322 167.995 174.319 167.584 172.888C167.386 172.214 167.22 171.651 167.09 171.199C167.017 170.996 166.967 170.785 166.943 170.571Z" fill="#263238"/>
<path d="M173.681 186.041C173.666 185.998 173.657 185.953 173.653 185.907L173.598 185.515C173.542 185.173 173.496 184.666 173.395 184.015C173.21 182.709 172.887 180.826 172.352 178.532C171.721 175.848 170.951 173.198 170.044 170.594C169.024 167.654 167.736 164.475 166.301 161.179C163.375 154.617 160.44 148.774 158.52 144.463C157.551 142.313 156.799 140.554 156.305 139.331C156.051 138.722 155.871 138.242 155.746 137.919L155.608 137.55C155.591 137.508 155.579 137.465 155.571 137.421C155.571 137.421 155.594 137.458 155.631 137.536L155.797 137.901C155.94 138.238 156.143 138.699 156.397 139.285C156.923 140.499 157.699 142.239 158.705 144.362C160.662 148.649 163.606 154.469 166.55 161.05C168 164.35 169.273 167.539 170.284 170.493C171.19 173.107 171.95 175.769 172.559 178.468C172.973 180.287 173.295 182.126 173.524 183.978C173.612 184.629 173.644 185.141 173.676 185.487C173.676 185.649 173.699 185.778 173.708 185.884C173.708 185.938 173.698 185.991 173.681 186.041Z" fill="#263238"/>
<path d="M176.154 185.64C176.075 185.366 176.018 185.087 175.984 184.804C175.887 184.218 175.758 183.452 175.601 182.497C175.255 180.572 174.733 177.918 173.981 175.034C173.229 172.15 172.402 169.579 171.756 167.733L170.976 165.55C170.87 165.287 170.782 165.017 170.713 164.742C170.855 164.989 170.975 165.246 171.073 165.513C171.286 166.016 171.586 166.75 171.932 167.668C172.828 170.06 173.598 172.497 174.239 174.969C174.878 177.44 175.393 179.942 175.781 182.464C175.924 183.433 176.034 184.223 176.085 184.772C176.131 185.059 176.155 185.349 176.154 185.64Z" fill="#263238"/>
<path d="M186.349 184.924H166.957V208.549H186.349V184.924Z" fill="#FF5138"/>
<g opacity="0.3">
<path d="M186.349 184.924H166.957V208.549H186.349V184.924Z" fill="black"/>
</g>
<path d="M180.165 184.924H162.96V208.549H180.165V184.924Z" fill="#FF5138"/>
<path d="M148.007 173.229C147.854 169.911 142.879 125.306 142.127 119.579C140.927 110.432 133.571 108.138 133.571 108.138L108.561 99.5075H83.8151L56.9967 108.876V109.338C56.9967 109.089 56.9967 108.936 56.9967 108.876C56.729 109.024 50.1294 110.902 48.5464 117.405C47.6834 120.959 37.6086 171.37 37.4701 172.851C37.3317 174.332 38.6562 183.369 45.7773 184.555C48.4402 185.016 54.2045 184.587 60.3657 183.904L55.5152 208.614H133.252L130.483 190.952C136.663 188.542 143.133 185.875 144.213 184.73C146.345 182.552 148.145 176.543 148.007 173.229Z" fill="#FF5138"/>
<g opacity="0.3">
<path d="M80.3907 168.001C80.2731 166.408 79.8861 164.848 79.2461 163.385C78.5446 161.959 77.3309 160.709 75.7894 160.312C74.248 159.915 72.4019 160.556 71.7189 161.996C68.9129 169.842 71.465 174.3 76.7955 178.551C77.6447 179.229 78.6923 179.755 79.7307 179.446C80.7691 179.137 80.9583 178.389 81.0091 177.323C81.166 174.162 80.7645 171.12 80.3907 168.001Z" fill="black"/>
</g>
<path d="M69.4345 159.047C69.2686 159.092 69.0984 159.12 68.9268 159.13L67.5423 159.278C66.3423 159.393 64.667 159.546 62.7518 159.707H62.8071C62.3687 160.012 61.9164 160.33 61.4595 160.662C59.8387 161.784 58.3589 163.096 57.0521 164.571C56.6691 165.028 56.319 165.51 56.0045 166.016C55.9061 166.214 55.7903 166.402 55.6583 166.579C55.724 166.367 55.8122 166.163 55.9214 165.97C56.2096 165.441 56.5432 164.937 56.9183 164.465C58.2004 162.942 59.6812 161.598 61.3211 160.469C61.7826 160.132 62.2441 159.818 62.6733 159.513H62.701H62.7287C64.6486 159.366 66.3285 159.241 67.533 159.167L68.9452 159.089C69.1065 159.058 69.2704 159.044 69.4345 159.047Z" fill="#263238"/>
<path d="M81.5306 167.687C81.5494 167.731 81.5618 167.777 81.5675 167.825L81.6552 168.24C81.7244 168.605 81.8214 169.164 81.8998 169.842C82.1204 171.822 82.2283 173.813 82.2229 175.805C82.2229 176.432 82.2229 177.092 82.2229 177.78C82.2584 178.525 82.0093 179.256 81.526 179.824C80.9934 180.417 80.2565 180.786 79.463 180.858L77.0678 181.274C73.791 181.85 70.1959 182.543 66.3976 183.157C62.5994 183.77 58.9627 184.204 55.6444 184.495C52.3261 184.786 49.3217 185.016 46.7972 184.836C46.1966 184.797 45.5997 184.713 45.0112 184.587C44.4816 184.464 43.9751 184.257 43.5113 183.973C42.7845 183.514 42.1111 182.976 41.5037 182.367C40.996 181.874 40.6268 181.472 40.373 181.2L40.0914 180.891C40.0571 180.855 40.0262 180.816 39.9991 180.775L40.1099 180.872L40.4099 181.167C40.6683 181.431 41.056 181.818 41.5683 182.298C42.1813 182.889 42.8559 183.412 43.5805 183.858C44.0338 184.129 44.5278 184.325 45.0435 184.44C45.6267 184.556 46.2173 184.632 46.8111 184.666C49.3171 184.827 52.3123 184.596 55.6213 184.273C58.9304 183.95 62.5717 183.535 66.3607 182.917C70.1497 182.298 73.7449 181.62 77.0262 181.071L79.4261 180.66C80.1752 180.603 80.8741 180.261 81.3783 179.704C81.8356 179.174 82.0704 178.488 82.0336 177.789C82.0567 177.106 82.066 176.446 82.066 175.819C82.0877 173.833 82.0061 171.847 81.8214 169.87C81.7567 169.168 81.6737 168.628 81.6229 168.259C81.5952 168.088 81.5768 167.95 81.5583 167.844C81.5415 167.793 81.5322 167.74 81.5306 167.687Z" fill="#263238"/>
<path d="M65.5947 130.295C65.6639 130.295 65.0731 136.867 64.2747 144.953C63.4763 153.038 62.784 159.596 62.7148 159.587C62.6456 159.578 63.2271 153.02 64.0394 144.925C64.8516 136.83 65.5347 130.29 65.5947 130.295Z" fill="#263238"/>
<path d="M129.357 124.581C129.361 124.62 129.361 124.658 129.357 124.697C129.357 124.785 129.357 124.891 129.357 125.025C129.357 125.329 129.334 125.749 129.316 126.28C129.279 127.374 129.205 128.952 129.103 130.895C128.896 134.799 128.526 140.19 128.065 146.125C127.603 152.06 127.206 157.455 126.957 161.355C126.837 163.293 126.736 164.862 126.666 165.97C126.634 166.501 126.602 166.921 126.583 167.225C126.583 167.359 126.583 167.465 126.556 167.553C126.561 167.59 126.561 167.627 126.556 167.664C126.551 167.627 126.551 167.59 126.556 167.553V167.225C126.556 166.916 126.556 166.496 126.593 165.965C126.63 164.871 126.703 163.293 126.805 161.35C127.013 157.446 127.386 152.06 127.843 146.12C128.3 140.181 128.702 134.79 128.951 130.89C129.076 128.957 129.172 127.383 129.242 126.275C129.279 125.744 129.306 125.352 129.325 125.02C129.325 124.891 129.348 124.78 129.352 124.692C129.349 124.655 129.351 124.618 129.357 124.581Z" fill="#263238"/>
<path d="M145.695 172.44C145.261 171.73 144.781 171.049 144.259 170.4C142.957 168.877 141.271 167.73 139.377 167.077C138.322 166.739 137.242 166.487 136.146 166.325C134.649 166.093 133.116 166.343 131.771 167.041C131.579 167.156 131.378 167.256 131.171 167.341C131.171 167.341 131.212 167.294 131.305 167.23C131.441 167.132 131.583 167.041 131.729 166.957C132.262 166.646 132.835 166.408 133.432 166.251C134.329 166.033 135.259 165.984 136.174 166.108C137.283 166.258 138.376 166.506 139.441 166.851C141.383 167.515 143.098 168.713 144.389 170.308C144.778 170.786 145.123 171.299 145.418 171.84C145.53 172.03 145.623 172.231 145.695 172.44Z" fill="#263238"/>
<path d="M132.666 190.121C132.583 190.178 132.493 190.225 132.398 190.259L131.605 190.615C130.917 190.919 129.92 191.362 128.674 191.884C127.228 192.532 125.731 193.06 124.197 193.462C123.272 193.688 122.309 193.714 121.373 193.541C120.372 193.306 119.457 192.794 118.733 192.064C118.02 191.333 117.464 190.465 117.099 189.512C116.735 188.647 116.443 187.753 116.227 186.839C115.851 185.301 115.567 183.741 115.378 182.169C115.216 180.826 115.124 179.741 115.059 178.989C115.032 178.634 115.013 178.343 114.995 178.121C114.985 178.02 114.985 177.918 114.995 177.817C115.024 177.915 115.043 178.015 115.05 178.117C115.078 178.338 115.115 178.625 115.156 178.98C115.249 179.728 115.369 180.826 115.553 182.146C115.756 183.708 116.048 185.256 116.43 186.784C116.649 187.685 116.941 188.566 117.302 189.419C117.658 190.341 118.196 191.181 118.885 191.888C119.578 192.588 120.452 193.08 121.41 193.31C122.313 193.481 123.243 193.459 124.137 193.245C125.661 192.856 127.151 192.348 128.596 191.727L131.554 190.527L132.366 190.213C132.462 190.17 132.563 190.139 132.666 190.121Z" fill="#263238"/>
<g opacity="0.3">
<path d="M81.5813 179.608C80.8891 180.572 79.4261 180.766 78.2585 180.964C72.088 182.012 66.513 183.014 60.2595 183.692L59.4657 187.772C65.7792 186.761 72.2773 185.427 78.2354 183.115C79.0595 182.839 79.8293 182.422 80.5106 181.883C80.8514 181.611 81.1251 181.264 81.3107 180.87C81.4964 180.475 81.589 180.043 81.5813 179.608Z" fill="black"/>
</g>
<g opacity="0.3">
<path d="M117.339 179.164C117.576 182.549 118.549 185.841 120.191 188.81C120.575 189.47 121.156 190.195 121.918 190.112C122.508 190.047 122.919 189.516 123.228 189.013C124.424 187.084 125.508 185.247 125.877 183.013L119.993 180.664L117.339 179.164Z" fill="black"/>
</g>
<path d="M104.491 178.472C104.532 178.528 100.046 182.044 94.4806 186.318C88.9148 190.592 84.3643 194.039 84.3274 193.988C84.2905 193.937 88.7717 190.416 94.3376 186.143C99.9034 181.869 104.449 178.421 104.491 178.472Z" fill="#263238"/>
<path d="M129.025 170.308C129.064 170.563 129.086 170.821 129.089 171.079C129.106 171.386 129.106 171.694 129.089 172.002C129.089 172.353 129.043 172.754 128.993 173.193C128.688 175.488 128.127 177.741 127.322 179.912C126.546 182.09 125.566 184.19 124.396 186.184C124.037 186.787 123.646 187.369 123.224 187.929C123.075 188.138 122.909 188.335 122.725 188.515C122.848 188.289 122.99 188.075 123.15 187.873C123.422 187.467 123.814 186.867 124.248 186.096C125.372 184.091 126.324 181.994 127.096 179.829C127.894 177.675 128.472 175.445 128.822 173.174C128.882 172.736 128.937 172.343 128.956 171.993C128.974 171.642 129.011 171.342 129.002 171.097C128.986 170.834 128.994 170.57 129.025 170.308Z" fill="#263238"/>
<path d="M94.5452 155.023C94.5452 155.023 87.6918 144.076 82.3152 146.226C82.3152 146.226 79.583 143.988 77.8385 145.423C76.094 146.859 76.717 149.766 76.717 149.766C76.717 149.766 73.4034 147.08 71.9219 148.469C70.4405 149.858 71.5204 152.231 71.9219 153.398C72.2367 154.587 72.4467 155.801 72.5496 157.026C72.5496 157.026 70.5328 155.997 69.5913 157.653C68.6498 159.31 72.2357 164.867 72.7757 165.628C73.3157 166.39 76.7632 169.782 79.1353 168.9C81.5075 168.019 83.169 165.628 83.169 165.628L94.5452 155.023Z" fill="#FFBE9D"/>
<path d="M76.7125 150.186C76.9298 150.297 77.1368 150.426 77.3309 150.574L78.9739 151.7L81.383 153.398C81.6256 153.567 81.8472 153.763 82.0429 153.984C82.2567 154.227 82.3848 154.534 82.4075 154.857C82.4041 155.196 82.3042 155.527 82.1194 155.811C81.9347 156.096 81.6729 156.322 81.3645 156.463C80.7681 156.736 80.099 156.807 79.4585 156.666C78.8803 156.535 78.3229 156.325 77.8016 156.043C76.814 155.53 75.9556 155.027 75.231 154.584C74.5064 154.141 73.9526 153.758 73.5696 153.481C73.3626 153.347 73.1694 153.192 72.9927 153.02C73.2127 153.128 73.4241 153.253 73.6249 153.394C74.0218 153.643 74.5941 154.003 75.3187 154.427C76.0433 154.852 76.9155 155.35 77.9032 155.812C78.408 156.079 78.9467 156.276 79.5046 156.398C80.0917 156.53 80.7057 156.467 81.2537 156.218C81.5229 156.098 81.7526 155.905 81.916 155.66C82.0794 155.415 82.1698 155.128 82.1768 154.834C82.1281 154.564 82.0201 154.308 81.8604 154.086C81.7007 153.863 81.4935 153.679 81.2537 153.546L78.8723 151.848L77.2801 150.662C77.0774 150.52 76.8875 150.361 76.7125 150.186Z" fill="#EB996E"/>
<path d="M76.8048 149.854C76.8048 149.854 76.8786 149.895 77.0078 149.988L77.5663 150.412C78.0508 150.777 78.7477 151.312 79.6338 151.935C80.6509 152.686 81.7637 153.298 82.9429 153.754C83.6398 154.006 84.3681 154.161 85.1074 154.215C85.8903 154.309 86.6843 154.203 87.4149 153.906C87.7633 153.736 88.0516 153.464 88.241 153.126C88.3264 152.963 88.3785 152.785 88.3943 152.602C88.4102 152.419 88.3894 152.235 88.3333 152.06C88.0506 151.382 87.6311 150.769 87.1011 150.26C86.22 149.348 85.2729 148.503 84.2674 147.731C83.4136 147.066 82.6983 146.559 82.1998 146.208L81.6276 145.806C81.4983 145.714 81.4291 145.663 81.4337 145.654C81.511 145.684 81.5852 145.721 81.6552 145.765C81.7937 145.843 81.9922 145.968 82.2506 146.129C82.7675 146.457 83.4967 146.946 84.3689 147.597C85.3995 148.355 86.3672 149.194 87.2626 150.108C87.5072 150.375 87.7564 150.652 87.9872 150.957C88.2377 151.267 88.4314 151.618 88.5595 151.995C88.6248 152.2 88.6486 152.416 88.6296 152.629C88.6106 152.843 88.5491 153.051 88.4487 153.241C88.2414 153.624 87.9183 153.931 87.5257 154.118C86.7573 154.437 85.9193 154.552 85.0935 154.451C84.3337 154.385 83.5866 154.214 82.8736 153.943C81.6802 153.472 80.5586 152.837 79.5415 152.055C78.66 151.414 77.977 150.855 77.5109 150.463L76.9801 150.002C76.8555 149.918 76.7955 149.858 76.8048 149.854Z" fill="#EB996E"/>
<path d="M72.2404 157.007L77.0586 159.315C77.6032 159.578 78.2401 159.975 78.217 160.579C78.1874 160.86 78.0638 161.122 77.8662 161.322C77.4542 161.744 76.9521 162.068 76.3974 162.268C75.8428 162.469 75.25 162.542 74.6634 162.481C73.4926 162.346 72.349 162.035 71.2712 161.558" fill="#FFBE9D"/>
<path d="M71.2712 161.576C71.2712 161.525 72.0743 161.862 73.3804 162.195C74.1411 162.391 74.9332 162.435 75.711 162.324C76.1641 162.247 76.6 162.091 76.9986 161.862C77.4249 161.636 77.7784 161.294 78.0185 160.875C78.0675 160.775 78.0929 160.665 78.0929 160.554C78.0929 160.443 78.0675 160.333 78.0185 160.233C77.9091 160.03 77.7505 159.857 77.557 159.73C77.1621 159.486 76.7503 159.27 76.3248 159.084L74.1834 158.023L72.7435 157.293C72.5635 157.21 72.392 157.11 72.2312 156.993C72.422 157.047 72.6074 157.118 72.785 157.206L74.2526 157.87L76.4217 158.881C76.8598 159.071 77.2839 159.291 77.6909 159.541C77.919 159.686 78.1052 159.888 78.2308 160.127C78.2946 160.259 78.3277 160.403 78.3277 160.549C78.3277 160.696 78.2946 160.84 78.2308 160.972C77.9611 161.402 77.597 161.766 77.1661 162.036C76.7351 162.305 76.2486 162.473 75.7433 162.527C74.9362 162.635 74.1154 162.572 73.3342 162.342C72.8137 162.2 72.3033 162.023 71.8066 161.812C71.6202 161.753 71.4407 161.674 71.2712 161.576Z" fill="#EB996E"/>
<path d="M79.7492 168.624L72.4896 174.102C72.4896 174.102 68.9683 169.196 71.3081 163.252H73.0573L72.6604 165.199L75.9648 165.891L79.7492 168.624Z" fill="#FFBE9D"/>
<path d="M71.1559 163.118L73.8419 166.616C74.1331 167.036 74.481 167.413 74.8757 167.737C75.0744 167.898 75.3038 168.016 75.5497 168.085C75.7957 168.154 76.0531 168.173 76.3064 168.139" fill="#FFBE9D"/>
<path d="M76.2878 168.116C76.1098 168.182 75.9192 168.208 75.73 168.191C75.5408 168.174 75.3577 168.115 75.194 168.019C74.8277 167.84 74.5012 167.589 74.2341 167.281C73.9295 166.944 73.6388 166.547 73.3111 166.145C72.6834 165.328 72.1296 164.581 71.7373 164.036C71.504 163.752 71.3043 163.443 71.142 163.113C71.4135 163.357 71.658 163.629 71.8712 163.925C72.3004 164.447 72.8773 165.176 73.5003 165.993C73.8187 166.399 74.1003 166.796 74.3864 167.128C74.6275 167.425 74.9217 167.674 75.254 167.862C75.5747 168.025 75.9284 168.111 76.2878 168.116Z" fill="#EB996E"/>
<path d="M73.2419 163.898L82.1491 155.397C82.579 154.986 83.0856 154.664 83.6399 154.45C84.1942 154.235 84.7854 154.132 85.3797 154.146L130.986 155.48C131.185 155.486 131.377 155.554 131.536 155.674C131.694 155.795 131.811 155.961 131.87 156.152C131.929 156.342 131.927 156.546 131.865 156.734C131.802 156.923 131.682 157.088 131.522 157.206L118.71 166.616C118.487 166.779 118.215 166.86 117.939 166.847L73.6342 164.927C73.5162 164.924 73.4017 164.886 73.3054 164.818C73.2091 164.749 73.1352 164.654 73.0931 164.544C73.0511 164.433 73.0428 164.313 73.0693 164.198C73.0958 164.083 73.1558 163.978 73.2419 163.898Z" fill="#E0E0E0"/>
<path d="M131.891 156.624C131.837 156.631 131.783 156.631 131.729 156.624H131.268L129.463 156.597L122.822 156.463L100.933 155.877L88.8825 155.54L86.1781 155.457C85.7524 155.429 85.3254 155.429 84.8997 155.457C84.4956 155.507 84.1043 155.632 83.7459 155.826C83.4064 156.027 83.0959 156.274 82.8229 156.56L81.9645 157.349L80.3492 158.84L75.4572 163.325L74.1188 164.539L73.768 164.848L73.6434 164.95C73.6434 164.95 73.6757 164.904 73.7496 164.83L74.0865 164.502L75.3926 163.256L80.2338 158.715L81.8399 157.215L82.6937 156.417C82.9809 156.119 83.3069 155.861 83.6629 155.65C84.0422 155.443 84.457 155.308 84.8859 155.254C85.3222 155.224 85.7602 155.224 86.1966 155.254L88.901 155.327L100.956 155.66L122.841 156.315L129.473 156.541L131.277 156.615L131.739 156.643C131.789 156.631 131.84 156.625 131.891 156.624Z" fill="#263238"/>
<path d="M140.927 132.644C140.987 132.672 138.717 137.061 135.851 142.442C132.985 147.823 130.622 152.161 130.562 152.134C130.502 152.106 132.777 147.717 135.638 142.336C138.5 136.955 140.872 132.612 140.927 132.644Z" fill="white"/>
<path d="M124.225 131.74C124.29 131.74 123.381 135.676 122.19 140.508C120.999 145.34 119.984 149.226 119.919 149.208C119.855 149.189 120.768 145.271 121.959 140.439C123.15 135.607 124.147 131.721 124.225 131.74Z" fill="white"/>
<path d="M54.4584 138.925C54.5091 138.884 57.3013 141.994 60.6888 145.871C64.0763 149.748 66.7946 152.932 66.7438 152.974C66.693 153.015 63.9009 149.909 60.5088 146.051C57.1167 142.193 54.3984 138.953 54.4584 138.925Z" fill="white"/>
<path d="M65.4654 123.474C65.5254 123.474 66.9837 128.274 68.719 134.236C70.4543 140.199 71.8111 145.04 71.7465 145.059C71.6819 145.077 70.2235 140.264 68.4883 134.301C66.753 128.338 65.4007 123.497 65.4654 123.474Z" fill="white"/>
<path d="M110.574 118.199C110.591 118.306 110.599 118.414 110.597 118.522C110.597 118.762 110.597 119.071 110.597 119.445V122.892C110.597 125.828 110.551 129.815 110.518 134.264C110.486 138.713 110.407 142.705 110.371 145.636C110.338 147.071 110.315 148.243 110.297 149.083C110.297 149.471 110.297 149.785 110.264 150.006C110.267 150.116 110.258 150.226 110.237 150.334C110.226 150.225 110.226 150.115 110.237 150.006C110.237 149.771 110.237 149.457 110.237 149.083C110.237 148.243 110.237 147.071 110.237 145.636C110.237 142.7 110.283 138.713 110.315 134.264C110.347 129.815 110.426 125.828 110.467 122.892C110.495 121.457 110.518 120.289 110.537 119.445C110.537 119.057 110.56 118.748 110.569 118.522C110.558 118.414 110.56 118.306 110.574 118.199Z" fill="white"/>
<path d="M126.15 61.8251C124.428 59.979 122.342 58.2391 121.742 55.7885C121.188 53.5317 121.982 50.9519 120.791 48.9628C119.324 46.5121 115.664 46.3091 113.901 44.0661C113.043 42.9769 112.747 41.537 111.903 40.4432C110.463 38.5972 107.786 38.1357 105.442 38.4818C103.097 38.828 100.877 39.7233 98.5189 39.9633C95.2883 40.2956 91.9423 39.3495 88.8779 40.3786C85.4996 41.5093 83.5105 44.5969 81.383 47.5921L78.6139 51.0811C78.042 51.6823 77.4129 52.2263 76.7355 52.7056C75.5402 53.5363 74.1649 54.1225 73.1496 55.1609C70.9805 57.3853 71.3035 61.5113 73.7911 63.3665C72.5698 63.8322 71.5303 64.6777 70.8257 65.7786C70.1212 66.8795 69.7888 68.1775 69.8775 69.4816C70.0067 70.9123 70.6436 72.2506 71.1189 73.5844C71.5943 74.9182 71.8989 76.455 71.3681 77.7842C70.8374 79.1133 69.1898 80.0917 67.9207 79.4133C68.1806 80.3321 68.6418 81.1816 69.2708 81.9C69.8999 82.6185 70.6809 83.1879 71.5574 83.5669C70.8977 84.2867 69.9881 84.7275 69.0144 84.7992C71.8343 90.8496 79.0477 93.8402 85.7212 93.6509C92.3946 93.4617 98.6943 90.7203 104.795 88.0205L122.601 82.7454C124.165 82.3347 124.756 80.3917 124.682 78.7764C124.608 77.1611 124.137 75.4905 124.682 73.9582C125.402 71.8584 127.774 70.6815 128.536 68.5955C129.399 66.2279 127.876 63.6665 126.15 61.8251Z" fill="#263238"/>
<path d="M84.2121 79.6441C82.7721 75.6289 81.3507 71.5815 80.6261 67.3817C79.9015 63.1819 79.8969 58.7745 81.263 54.7363C81.4707 54.1225 83.266 50.0058 83.9121 50.0473C84.3736 50.0796 83.3029 53.9056 83.5475 54.2978C85.8781 58.0407 86.6165 62.605 86.395 67.0079C86.1392 71.288 85.407 75.5262 84.2121 79.6441Z" fill="#263238"/>
<path d="M99.9773 43.0877H98.9897C88.3011 43.4569 82.6429 52.7425 83.2983 63.4173L83.6029 100.227C83.6307 103.434 84.8888 106.508 87.1175 108.814C89.3461 111.12 92.3751 112.482 95.5791 112.619C97.238 112.692 98.8948 112.434 100.453 111.861C102.011 111.287 103.44 110.41 104.656 109.279C105.872 108.148 106.851 106.786 107.535 105.274C108.22 103.761 108.597 102.127 108.645 100.467C108.7 98.5337 108.746 97.1815 108.751 97.1815C108.755 97.1815 119.052 95.8293 119.421 85.5745C119.601 80.6179 119.139 70.3861 118.613 61.1144C118.34 56.3178 116.271 51.8001 112.817 48.4598C109.364 45.1196 104.78 43.2017 99.9773 43.0877Z" fill="#FFBE9D"/>
<path d="M108.751 97.1677C108.751 97.1677 102.289 97.3892 95.4867 92.8987C95.4867 92.8987 98.4035 100.532 108.663 99.8537L108.751 97.1677Z" fill="#EB996E"/>
<path d="M114.095 70.5892C114.088 70.9709 113.933 71.3349 113.662 71.6044C113.392 71.8739 113.027 72.0278 112.646 72.0337C112.459 72.0463 112.271 72.0206 112.094 71.9584C111.917 71.8962 111.755 71.7987 111.617 71.6718C111.478 71.545 111.368 71.3913 111.291 71.2203C111.214 71.0493 111.172 70.8644 111.169 70.6769C111.176 70.2972 111.33 69.9351 111.599 69.6666C111.867 69.398 112.229 69.2441 112.609 69.237C112.796 69.2231 112.985 69.2476 113.162 69.309C113.34 69.3703 113.503 69.4672 113.643 69.5937C113.782 69.7202 113.893 69.8737 113.971 70.0449C114.049 70.216 114.091 70.4012 114.095 70.5892Z" fill="#263238"/>
<path d="M116.301 65.3233C116.116 65.508 115.027 64.6634 113.449 64.6265C111.87 64.5895 110.68 65.3557 110.532 65.1572C110.449 65.0695 110.643 64.7326 111.155 64.3772C111.857 63.9082 112.688 63.671 113.532 63.6988C114.352 63.7166 115.146 63.9946 115.798 64.4926C116.255 64.8895 116.412 65.2403 116.301 65.3233Z" fill="#263238"/>
<path d="M99.825 70.5892C99.8179 70.9709 99.6628 71.3349 99.3924 71.6044C99.1221 71.8739 98.7576 72.0278 98.3759 72.0337C98.1888 72.0463 98.001 72.0207 97.8241 71.9584C97.6472 71.8962 97.4847 71.7987 97.3466 71.6719C97.2085 71.545 97.0976 71.3914 97.0207 71.2203C96.9438 71.0493 96.9024 70.8644 96.899 70.6769C96.9038 70.2948 97.0574 69.9297 97.3271 69.6591C97.5969 69.3885 97.9615 69.2337 98.3436 69.2277C98.5315 69.2145 98.72 69.2398 98.8978 69.302C99.0756 69.3642 99.2388 69.462 99.3775 69.5894C99.5162 69.7169 99.6274 69.8713 99.7043 70.0432C99.7813 70.2151 99.8224 70.4009 99.825 70.5892Z" fill="#263238"/>
<path d="M100.863 65.591C100.679 65.7803 99.5849 64.9311 98.0112 64.8988C96.4374 64.8665 95.2421 65.628 95.0898 65.4295C95.0114 65.3418 95.2006 65.0003 95.7175 64.6449C96.4109 64.1893 97.228 63.9588 98.0573 63.985C98.8781 64.0009 99.6721 64.279 100.323 64.7788C100.799 65.1618 100.956 65.508 100.863 65.591Z" fill="#263238"/>
<path d="M106.231 77.8442C106.231 77.7519 107.209 77.6042 108.801 77.4426C109.203 77.4103 109.586 77.3365 109.664 77.0642C109.706 76.6492 109.622 76.2314 109.424 75.8643L108.303 72.7721C106.757 68.3693 105.645 64.7511 105.82 64.6911C105.995 64.6311 107.398 68.1478 108.949 72.5368C109.323 73.6259 109.678 74.6597 110.015 75.6474C110.259 76.1394 110.32 76.7023 110.186 77.235C110.125 77.3754 110.032 77.4999 109.915 77.5991C109.798 77.6982 109.661 77.7694 109.512 77.8072C109.287 77.8642 109.056 77.8906 108.824 77.8857C107.228 77.9457 106.235 77.9318 106.231 77.8442Z" fill="#263238"/>
<path d="M101.565 78.8226C101.823 78.8226 101.782 80.5255 103.222 81.7762C104.662 83.0269 106.48 82.8793 106.489 83.1192C106.512 83.2254 106.074 83.4423 105.303 83.4423C104.3 83.4331 103.333 83.0703 102.571 82.4177C101.843 81.788 101.385 80.9022 101.293 79.944C101.246 79.2287 101.45 78.8087 101.565 78.8226Z" fill="#263238"/>
<path d="M100.928 59.1945C100.762 59.6191 99.1927 59.3791 97.3375 59.5544C95.4822 59.7298 93.9777 60.2052 93.7377 59.8129C93.6361 59.6283 93.9038 59.2314 94.5176 58.8299C95.3356 58.3417 96.2542 58.0464 97.2034 57.9664C98.1526 57.8864 99.1076 58.0239 99.9958 58.3684C100.665 58.6453 101.002 58.9914 100.928 59.1945Z" fill="#263238"/>
<path d="M115.793 60.0668C115.507 60.4175 114.432 60.0206 113.126 59.9698C111.82 59.9191 110.707 60.1544 110.463 59.776C110.357 59.5914 110.537 59.236 111.03 58.9084C111.689 58.5176 112.45 58.3314 113.215 58.3733C113.98 58.4152 114.715 58.6833 115.327 59.1437C115.779 59.5452 115.923 59.896 115.793 60.0668Z" fill="#263238"/>
<path d="M83.9628 71.0092C83.7921 70.9307 76.9663 68.757 77.0401 75.7766C77.114 82.7962 84.1336 81.3147 84.1428 81.0886C84.152 80.8624 83.9628 71.0092 83.9628 71.0092Z" fill="#FFBE9D"/>
<path d="M81.9598 78.4672C81.9275 78.4441 81.8398 78.5503 81.6321 78.6472C81.3402 78.7782 81.0083 78.7881 80.7091 78.6749C79.9661 78.4072 79.3246 77.235 79.2876 75.9704C79.2655 75.3688 79.3774 74.7698 79.6153 74.2167C79.6803 73.9957 79.7984 73.7939 79.9593 73.629C80.1202 73.4641 80.319 73.341 80.5383 73.2706C80.6782 73.2328 80.827 73.2454 80.9586 73.3062C81.0902 73.3669 81.1962 73.4719 81.2583 73.6029C81.3552 73.7967 81.3137 73.9398 81.3506 73.949C81.3875 73.9582 81.4983 73.829 81.4429 73.5429C81.4017 73.3689 81.3024 73.2143 81.1614 73.1045C80.9671 72.9591 80.7234 72.8961 80.4829 72.9291C80.1953 72.9886 79.9276 73.1208 79.7054 73.3131C79.4833 73.5054 79.314 73.7513 79.2138 74.0275C78.9204 74.6384 78.781 75.3118 78.8077 75.9889C78.863 77.4011 79.5968 78.721 80.6168 79.0072C80.8059 79.0605 81.0046 79.0704 81.198 79.036C81.3914 79.0017 81.5745 78.924 81.7336 78.8087C81.9459 78.6149 81.9829 78.4672 81.9598 78.4672Z" fill="#EB996E"/>
<path d="M113.878 49.5673C115.004 48.9212 111.534 45.303 108.718 44.08C104.468 42.2339 98.0067 41.1678 94.1346 42.3401C89.4733 43.7246 85.6243 46.1429 83.3444 50.4442C81.0646 54.7455 80.2661 59.7298 80.4831 64.5895C80.5523 66.0756 80.7323 67.6217 81.5445 68.8631C82.5506 70.3954 84.4474 71.3415 84.4013 73.4783C84.3641 74.2624 84.6396 75.0293 85.1674 75.6104C86.4781 76.9534 88.0242 75.6428 88.7257 74.3459C90.221 71.5768 90.3363 68.2863 90.4194 65.1157C90.4794 62.8773 90.5302 60.5882 89.861 58.4468C89.501 57.2838 88.938 56.19 88.6334 55.0039C88.3288 53.8179 88.3472 52.4749 89.0672 51.4918C89.2379 51.2809 89.4263 51.0848 89.6302 50.9057C90.5947 50.0358 91.7731 49.4381 93.0448 49.1737C94.3164 48.9093 95.6355 48.9878 96.8667 49.4012C100.845 50.735 107.629 52.7056 109.369 51.3349C111.87 49.3643 112.457 48.1043 112.457 48.1043L113.878 49.5673Z" fill="#263238"/>
<path d="M94.4853 41.3801C98.3205 40.0233 102.709 39.9956 106.351 41.8416C108.284 42.8062 110.043 44.3661 110.661 46.4568C111.28 48.5474 110.44 51.0949 108.455 51.9441L108.317 52.0318C105.34 53.0887 103.388 52.7241 100.383 51.7411C97.8589 50.915 95.5975 49.4012 93.0638 48.5843C90.3529 47.7211 87.4462 47.6858 84.7151 48.4828C87.3457 45.3491 90.6501 42.737 94.4853 41.3801Z" fill="#263238"/>
<path d="M78.1108 71.5445C77.9834 71.4199 77.8676 71.284 77.7647 71.1384C77.4571 70.7233 77.2071 70.2684 77.0217 69.7862C76.6685 68.8963 76.5398 67.9333 76.6468 66.9819C76.7539 66.0306 77.0934 65.1202 77.6355 64.3311C77.9884 63.8026 78.4248 63.335 78.9277 62.9466C79.4728 62.5283 80.0802 62.1981 80.7276 61.9682C82.0383 61.4605 83.5613 61.1974 84.8074 60.2559C85.4453 59.7899 85.9032 59.1185 86.1042 58.3545C86.2796 57.5422 86.3247 56.7073 86.2381 55.8808C86.1227 54.1778 86.0535 52.3456 86.6211 50.5734C87.2171 48.8635 88.3671 47.4017 89.8886 46.4198C91.27 45.4791 92.8298 44.8319 94.4714 44.5184C95.9541 44.2273 97.4793 44.2273 98.9619 44.5184C100.253 44.7797 101.477 45.2993 102.562 46.046C104.143 47.117 105.364 48.6403 106.065 50.4165C106.252 50.8957 106.392 51.3918 106.485 51.898L106.54 52.2949C106.545 52.3409 106.545 52.3873 106.54 52.4333C106.415 51.7567 106.224 51.0937 105.972 50.4534C105.355 48.9924 104.388 47.7053 103.157 46.7051C101.926 45.7049 100.468 45.0222 98.9112 44.7168C97.456 44.4307 95.959 44.4307 94.5037 44.7168C92.8946 45.0305 91.3665 45.6697 90.0132 46.5952C88.5367 47.5533 87.4212 48.9757 86.8426 50.638C86.2888 52.3549 86.3488 54.1548 86.4642 55.8577C86.552 56.7093 86.5021 57.5695 86.3165 58.4053C86.1014 59.2171 85.6123 59.9296 84.932 60.4221C83.6213 61.4005 82.0752 61.6543 80.7784 62.1481C79.5541 62.5603 78.4945 63.3546 77.7555 64.4142C77.1511 65.2942 76.8029 66.3247 76.7494 67.3909C76.7079 68.1948 76.8304 68.9988 77.1094 69.7539C77.3542 70.3964 77.6916 70.9996 78.1108 71.5445Z" fill="#455A64"/>
<path d="M77.3539 73.1368C77.1663 73.0458 76.9858 72.9409 76.814 72.8229C76.3155 72.4909 75.8611 72.097 75.4617 71.6507C74.83 70.9401 74.3383 70.1164 74.0126 69.2231C73.5881 68.0307 73.4893 66.7467 73.7265 65.5034C73.9967 63.9855 74.7416 62.5926 75.854 61.5251C77.0355 60.3621 78.6 59.5314 80.0584 58.4515C80.8154 57.9138 81.4808 57.2578 82.0291 56.5085C82.5763 55.7097 82.998 54.8319 83.2797 53.9056C83.9074 52.0318 84.2028 49.955 85.0843 47.9982C85.9794 46.1101 87.3866 44.5111 89.1456 43.3831C90.7796 42.313 92.6612 41.6805 94.6099 41.5463C96.3609 41.4322 98.1162 41.6901 99.7603 42.3032C101.189 42.8324 102.512 43.614 103.665 44.6107C105.324 46.0702 106.606 47.9082 107.403 49.9689C107.709 50.7105 107.929 51.4847 108.058 52.2764C108.038 52.229 108.022 52.1795 108.012 52.1287C107.98 52.0134 107.943 51.8657 107.892 51.6672C107.734 51.0946 107.541 50.5321 107.315 49.9827C106.494 47.9566 105.206 46.1537 103.554 44.7215C102.413 43.7431 101.104 42.9786 99.6911 42.4647C98.0691 41.867 96.3391 41.6186 94.6145 41.7355C92.713 41.8702 90.8771 42.4864 89.2794 43.5262C87.5583 44.6349 86.1819 46.2032 85.3058 48.0536C84.4289 49.9596 84.1428 52.0318 83.5105 53.9332C83.2186 54.8818 82.7828 55.7799 82.2183 56.5962C81.6553 57.3618 80.9728 58.0319 80.1969 58.5807C78.7108 59.6698 77.1601 60.4913 76.0017 61.622C74.9116 62.6565 74.1753 64.0081 73.8972 65.4849C73.657 66.7024 73.743 67.9619 74.1464 69.1354C74.65 70.587 75.5937 71.8454 76.8463 72.7352C77.1739 73.0214 77.3632 73.1229 77.3539 73.1368Z" fill="#455A64"/>
<path d="M118.844 164.521C118.844 164.521 99.7788 160.086 96.8666 159.869C94.1345 159.666 93.4238 161.378 93.4238 161.378C93.4238 161.378 89.3348 160.866 88.4348 163.252C88.4348 163.252 87.7149 164.636 89.3902 165.347C91.0654 166.058 100.157 168.056 102.026 169.796C103.895 171.536 119.564 180.434 119.564 180.434L125.882 183.013C125.882 183.013 128.72 175.597 128.849 173.469C128.971 172.334 128.746 171.188 128.203 170.183C128.203 170.183 132.135 166.187 132.588 164.576C133.04 162.965 135.878 157.418 135.878 157.418C135.878 157.418 133.215 154.704 130.58 157.88C127.945 161.055 126.468 162.495 125.753 163.072C123.685 164.724 120.058 164.904 118.844 164.521Z" fill="#FFBE9D"/>
<path d="M112.498 170.082C112.498 170.082 112.424 170.082 112.295 170.003L111.737 169.736L109.683 168.753C107.943 167.941 105.529 166.865 102.76 165.859C101.376 165.356 100.06 164.908 98.8465 164.53C97.6328 164.152 96.539 163.875 95.616 163.482C94.8905 163.21 94.2526 162.746 93.7699 162.139C93.648 161.967 93.5473 161.781 93.4699 161.586C93.4394 161.52 93.4207 161.45 93.4146 161.378C93.5403 161.623 93.6837 161.859 93.8438 162.084C94.3432 162.648 94.9787 163.076 95.6898 163.325C96.5713 163.685 97.6928 163.939 98.9204 164.318C100.148 164.696 101.473 165.125 102.852 165.633C105.211 166.499 107.522 167.489 109.775 168.6C110.638 169.03 111.326 169.394 111.797 169.653L112.337 169.962C112.394 169.997 112.448 170.037 112.498 170.082Z" fill="#EB996E"/>
<path d="M124.885 163.704C124.44 164.314 123.848 164.802 123.164 165.121C122.517 165.508 121.781 165.723 121.027 165.744C121.027 165.674 121.987 165.481 123.053 164.908C124.119 164.336 124.834 163.648 124.885 163.704Z" fill="#EB996E"/>
<path d="M191.989 208.669C191.989 208.738 150.868 208.789 100.148 208.789C49.428 208.789 8.30725 208.738 8.30725 208.669C8.30725 208.6 49.4187 208.549 100.148 208.549C150.877 208.549 191.989 208.614 191.989 208.669Z" fill="#263238"/>
<path d="M60.8504 57.6761H0.106201V82.667H54.7354L58.4598 86.3914V82.667H60.8504V57.6761Z" fill="white"/>
<path d="M60.8503 57.6992C60.8503 57.6992 60.8503 57.8376 60.8503 58.1238C60.8503 58.4099 60.8503 58.8391 60.8503 59.3929C60.8503 60.5236 60.8503 62.162 60.8503 64.3219C60.8503 68.6324 60.878 74.8905 60.8965 82.6901V82.7731H58.4228L58.5105 82.6854C58.5105 83.8346 58.5105 85.1084 58.5105 86.4098V86.6314L58.3536 86.4745L54.6292 82.7547L54.6938 82.7824L2.76907 82.787H0V82.667C0 73.8983 0 65.4664 0 57.6761V57.5607H0.115378L43.7882 57.6161L56.3691 57.6438H59.715H60.5734H60.8596H60.5596H59.6873H56.3183L43.7098 57.6761L0.115378 57.7269L0.230756 57.6161C0.230756 65.4064 0.230756 73.8383 0.230756 82.607L0.110764 82.487H2.76907H54.7584H54.7999L54.8276 82.5147L58.5474 86.2437L58.3905 86.3083C58.3905 85.0068 58.3905 83.7331 58.3905 82.5839V82.5008H60.8688L60.7857 82.5839C60.7857 74.8028 60.8227 68.5678 60.8319 64.2665C60.8319 62.1159 60.8319 60.4544 60.8319 59.3191C60.8319 58.756 60.8319 58.3268 60.8319 58.0361C60.8319 57.7453 60.8503 57.6992 60.8503 57.6992Z" fill="#263238"/>
<path d="M54.343 64.825H26.4954C25.9474 64.825 25.5032 65.2692 25.5032 65.8172V65.9234C25.5032 66.4714 25.9474 66.9156 26.4954 66.9156H54.343C54.8911 66.9156 55.3353 66.4714 55.3353 65.9234V65.8172C55.3353 65.2692 54.8911 64.825 54.343 64.825Z" fill="#E0E0E0"/>
<path d="M54.343 69.4862H26.4954C25.9474 69.4862 25.5032 69.9305 25.5032 70.4785V70.5846C25.5032 71.1326 25.9474 71.5769 26.4954 71.5769H54.343C54.8911 71.5769 55.3353 71.1326 55.3353 70.5846V70.4785C55.3353 69.9305 54.8911 69.4862 54.343 69.4862Z" fill="#E0E0E0"/>
<path d="M54.343 74.1475H26.4954C25.9474 74.1475 25.5032 74.5917 25.5032 75.1397V75.2459C25.5032 75.7939 25.9474 76.2381 26.4954 76.2381H54.343C54.8911 76.2381 55.3353 75.7939 55.3353 75.2459V75.1397C55.3353 74.5917 54.8911 74.1475 54.343 74.1475Z" fill="#E0E0E0"/>
<path d="M18.4373 62.845H7.19492C6.05558 62.845 5.13196 63.7687 5.13196 64.908V76.1504C5.13196 77.2898 6.05558 78.2134 7.19492 78.2134H18.4373C19.5767 78.2134 20.5003 77.2898 20.5003 76.1504V64.908C20.5003 63.7687 19.5767 62.845 18.4373 62.845Z" fill="#455A64"/>
<path d="M6.65041 75.089L6.29504 74.7936L9.40563 71.1015C9.5772 70.8638 9.83469 70.7024 10.1234 70.6515C10.4121 70.6007 10.7092 70.6644 10.9517 70.8292L12.7977 72.0522L14.953 69.3247C15.0557 69.1964 15.1849 69.0918 15.3316 69.0179C15.4784 68.9441 15.6394 68.9026 15.8036 68.8965C15.9678 68.8904 16.1314 68.9197 16.2832 68.9824C16.4351 69.0451 16.5717 69.1398 16.6837 69.2601L19.342 72.1353L19.0005 72.4445L16.3422 69.5739C16.2771 69.5009 16.1965 69.4435 16.1062 69.4059C16.0159 69.3683 15.9183 69.3516 15.8206 69.357C15.7228 69.3604 15.6268 69.3849 15.5392 69.4287C15.4516 69.4725 15.3745 69.5346 15.313 69.6108L12.8947 72.6706L10.7071 71.2123C10.5616 71.1139 10.3833 71.0767 10.2106 71.1087C10.038 71.1406 9.88475 71.2391 9.78407 71.383L6.65041 75.089Z" fill="white"/>
<path d="M11.4409 68.2124C12.2004 68.2124 12.8162 67.5967 12.8162 66.8371C12.8162 66.0776 12.2004 65.4618 11.4409 65.4618C10.6813 65.4618 10.0656 66.0776 10.0656 66.8371C10.0656 67.5967 10.6813 68.2124 11.4409 68.2124Z" fill="white"/>
<path d="M170.229 102.978H115.009V126.506H120.704L121.308 131.689L125.559 126.506H170.229V102.978Z" fill="white"/>
<path d="M170.229 102.978C170.229 102.978 170.229 103.112 170.229 103.38C170.229 103.647 170.229 104.053 170.229 104.58C170.229 105.641 170.229 107.206 170.252 109.222C170.252 113.284 170.275 119.173 170.293 126.506V126.589H170.21L125.54 126.626L125.633 126.58C124.285 128.223 122.841 129.981 121.382 131.767L121.202 131.984L121.17 131.703C120.976 130.06 120.773 128.297 120.565 126.52L120.685 126.626H114.87V126.506C114.87 118.245 114.87 110.312 114.87 102.969V102.854H114.986L154.717 102.904L166.135 102.937H169.167H169.947H170.206H169.933H169.144H166.084L154.639 102.969L114.986 103.024L115.096 102.909C115.096 110.242 115.096 118.176 115.096 126.446L114.976 126.326H120.778V126.432C120.985 128.209 121.188 129.972 121.378 131.615L121.17 131.555C122.628 129.774 124.073 128.011 125.42 126.372L125.457 126.326H125.513L170.182 126.363L170.099 126.446C170.099 119.131 170.136 113.261 170.146 109.213C170.146 107.187 170.146 105.618 170.146 104.552C170.146 104.021 170.146 103.629 170.146 103.338C170.146 103.047 170.229 102.978 170.229 102.978Z" fill="#263238"/>
<path d="M163.652 110.404H141.721C141.428 110.403 141.147 110.286 140.939 110.078C140.732 109.871 140.615 109.59 140.613 109.296C140.613 109.002 140.73 108.721 140.938 108.513C141.146 108.305 141.427 108.189 141.721 108.189H163.652C163.946 108.189 164.228 108.305 164.435 108.513C164.643 108.721 164.76 109.002 164.76 109.296C164.758 109.59 164.641 109.871 164.434 110.078C164.226 110.286 163.945 110.403 163.652 110.404Z" fill="#E0E0E0"/>
<path d="M163.652 115.342H141.721C141.427 115.342 141.146 115.225 140.938 115.018C140.73 114.81 140.613 114.528 140.613 114.234C140.615 113.941 140.732 113.66 140.939 113.453C141.147 113.245 141.428 113.128 141.721 113.127H163.652C163.945 113.128 164.226 113.245 164.434 113.453C164.641 113.66 164.758 113.941 164.76 114.234C164.76 114.528 164.643 114.81 164.435 115.018C164.228 115.225 163.946 115.342 163.652 115.342Z" fill="#E0E0E0"/>
<path d="M163.652 120.285H141.721C141.428 120.284 141.147 120.167 140.939 119.959C140.732 119.752 140.615 119.471 140.613 119.177C140.613 118.883 140.73 118.602 140.938 118.394C141.146 118.186 141.427 118.07 141.721 118.07H163.652C163.946 118.07 164.228 118.186 164.435 118.394C164.643 118.602 164.76 118.883 164.76 119.177C164.758 119.471 164.641 119.752 164.434 119.959C164.226 120.167 163.945 120.284 163.652 120.285Z" fill="#E0E0E0"/>
<path d="M133.248 106.089H121.082C119.943 106.089 119.019 107.012 119.019 108.152V120.317C119.019 121.456 119.943 122.38 121.082 122.38H133.248C134.387 122.38 135.311 121.456 135.311 120.317V108.152C135.311 107.012 134.387 106.089 133.248 106.089Z" fill="#EBEBEB"/>
<path d="M120.621 119.08L120.265 118.78L123.561 114.867C123.742 114.618 124.012 114.45 124.315 114.397C124.618 114.343 124.93 114.409 125.185 114.581L127.137 115.882L129.445 112.984C129.551 112.847 129.684 112.736 129.837 112.656C129.99 112.576 130.159 112.531 130.331 112.522C130.503 112.517 130.674 112.549 130.834 112.615C130.993 112.681 131.136 112.78 131.254 112.905L134.074 115.951L133.732 116.265L130.917 113.219C130.845 113.142 130.758 113.08 130.66 113.04C130.562 112.999 130.457 112.981 130.351 112.985C130.246 112.988 130.142 113.015 130.048 113.063C129.954 113.11 129.871 113.178 129.805 113.261L127.248 116.491L124.94 114.954C124.783 114.848 124.59 114.807 124.403 114.841C124.216 114.874 124.05 114.98 123.939 115.134L120.621 119.08Z" fill="white"/>
<path d="M127.165 110.312C127.165 110.6 127.079 110.882 126.919 111.122C126.758 111.362 126.53 111.549 126.264 111.659C125.997 111.77 125.703 111.798 125.42 111.742C125.137 111.685 124.878 111.546 124.674 111.341C124.47 111.137 124.332 110.876 124.276 110.593C124.22 110.31 124.25 110.017 124.361 109.75C124.472 109.484 124.659 109.256 124.9 109.097C125.14 108.937 125.423 108.852 125.711 108.853C125.903 108.853 126.092 108.891 126.269 108.964C126.445 109.038 126.606 109.145 126.741 109.281C126.876 109.416 126.983 109.577 127.056 109.754C127.129 109.931 127.166 110.12 127.165 110.312Z" fill="white"/>
<path d="M56.6229 97.9523H12.6593C11.8919 97.9523 11.1558 98.2571 10.6132 98.7998C10.0705 99.3425 9.76562 100.078 9.76562 100.846V126.423C9.76563 127.096 10.0331 127.742 10.5091 128.218C10.9851 128.694 11.6307 128.961 12.3039 128.961H48.1311L53.7662 134.596V128.961H55.843C56.6545 128.961 57.4328 128.639 58.0066 128.065C58.5804 127.491 58.9028 126.713 58.9028 125.901V100.246C58.8992 99.6411 58.6583 99.0619 58.2319 98.6329C57.8055 98.2039 57.2277 97.9595 56.6229 97.9523Z" fill="white"/>
<path d="M12.8485 97.9523H56.6921C57.2858 97.9523 57.8551 98.1881 58.2749 98.6078C58.6947 99.0276 58.9305 99.5969 58.9305 100.191V103.717C58.9305 103.785 58.9033 103.851 58.8548 103.899C58.8063 103.948 58.7406 103.975 58.672 103.975H10.0241C9.95553 103.975 9.88979 103.948 9.84132 103.899C9.79285 103.851 9.76562 103.785 9.76562 103.717V101.035C9.76562 100.219 10.0899 99.4358 10.6672 98.8585C11.2445 98.2812 12.0275 97.9569 12.8439 97.9569L12.8485 97.9523Z" fill="#E0E0E0"/>
<path d="M27.4323 108.918H16.8452C15.7058 108.918 14.7822 109.841 14.7822 110.981V121.568C14.7822 122.707 15.7058 123.631 16.8452 123.631H27.4323C28.5716 123.631 29.4952 122.707 29.4952 121.568V110.981C29.4952 109.841 28.5716 108.918 27.4323 108.918Z" fill="#FF5138"/>
<g opacity="0.3">
<path d="M28.2122 117.959C28.0352 117.82 27.8714 117.666 27.723 117.497L26.4538 116.182L25.5862 115.259C25.5123 115.183 25.4234 115.124 25.3253 115.084C25.2272 115.044 25.1219 115.025 25.0161 115.028C24.9103 115.031 24.8062 115.056 24.7106 115.102C24.6149 115.147 24.5296 115.211 24.4601 115.291L22.411 117.89L22.2495 118.093L22.1802 118.18L22.0879 118.116L20.5003 117.054L20.1311 116.805C20.0194 116.743 19.8944 116.708 19.7665 116.703C19.6428 116.7 19.52 116.726 19.409 116.781C19.298 116.836 19.202 116.917 19.1296 117.017L16.9421 119.542L16.3098 120.243C16.1621 120.405 16.0791 120.488 16.0698 120.479C16.1207 120.379 16.1843 120.286 16.259 120.202C16.416 119.999 16.6098 119.74 16.8452 119.463C17.3897 118.799 18.1097 117.913 18.9635 116.874C19.0545 116.745 19.1756 116.64 19.3162 116.567C19.4569 116.495 19.613 116.458 19.7711 116.459C19.9331 116.464 20.0915 116.508 20.2327 116.588C20.3757 116.676 20.4911 116.754 20.6203 116.842L22.2125 117.899L22.051 117.926L22.2125 117.723L24.2847 115.125C24.3772 115.021 24.491 114.938 24.6184 114.881C24.7458 114.825 24.8838 114.796 25.0232 114.797C25.1551 114.798 25.2855 114.825 25.4063 114.879C25.527 114.932 25.6354 115.009 25.7247 115.107L26.5692 116.03L27.783 117.414C27.9439 117.581 28.0877 117.763 28.2122 117.959Z" fill="black"/>
</g>
<g opacity="0.3">
<path d="M22.1526 112.739C22.1526 112.999 22.0755 113.254 21.9309 113.47C21.7864 113.686 21.581 113.855 21.3406 113.954C21.1003 114.054 20.8358 114.08 20.5807 114.029C20.3255 113.978 20.0912 113.853 19.9072 113.669C19.7233 113.485 19.598 113.251 19.5472 112.996C19.4965 112.741 19.5225 112.476 19.6221 112.236C19.7216 111.995 19.8902 111.79 20.1065 111.645C20.3228 111.501 20.5771 111.424 20.8373 111.424C21.01 111.424 21.181 111.458 21.3406 111.524C21.5002 111.59 21.6452 111.687 21.7673 111.809C21.8895 111.931 21.9864 112.076 22.0525 112.236C22.1186 112.395 22.1526 112.566 22.1526 112.739Z" fill="black"/>
</g>
<path d="M56.6229 97.9522C56.8427 97.9423 57.0625 97.9688 57.2736 98.0307C57.5834 98.1194 57.8711 98.272 58.1183 98.4787C58.3655 98.6854 58.5667 98.9415 58.7089 99.2306C58.9094 99.663 58.9938 100.14 58.9535 100.615C58.9535 101.132 58.9535 101.695 58.9535 102.3C58.9535 103.518 58.9535 104.921 58.9535 106.49C58.9535 109.633 58.9535 113.454 58.9766 117.857C58.9766 120.06 58.9766 122.402 58.9766 124.881C59.0253 125.518 58.9612 126.159 58.7874 126.774C58.5703 127.403 58.1721 127.953 57.6428 128.357C57.1033 128.777 56.4474 129.02 55.7645 129.054C55.0861 129.054 54.4169 129.054 53.7338 129.054L53.8354 128.952C53.8354 130.715 53.8354 132.644 53.8354 134.587V134.841L53.6554 134.661L48.0157 129.03L48.0942 129.063H15.9729H12.8485C12.4923 129.082 12.1351 129.065 11.7824 129.012C11.249 128.903 10.7621 128.632 10.3881 128.237C10.014 127.841 9.77085 127.34 9.69176 126.801C9.66053 126.453 9.64975 126.103 9.65946 125.754C9.65946 123.003 9.65946 120.297 9.65946 117.636C9.65946 112.31 9.65946 107.173 9.65946 102.281V101.358C9.65209 101.05 9.66288 100.742 9.69176 100.435C9.77185 99.8126 10.0464 99.2311 10.4763 98.7737C10.9018 98.3254 11.4541 98.0179 12.0593 97.8923C12.3566 97.8427 12.658 97.8226 12.9593 97.8323H13.8454H20.5881H32.6889L50.2263 97.8692H54.9891H56.2306C56.5075 97.8692 56.6506 97.8692 56.6506 97.8692H56.2306H54.9891H50.2263L32.6889 97.9107H20.5881H13.8454C13.2693 97.891 12.6926 97.9111 12.1193 97.9707C11.5537 98.0883 11.0385 98.3782 10.6443 98.8005C10.2501 99.2227 9.99636 99.7567 9.9179 100.329C9.88988 100.625 9.88063 100.923 9.89021 101.22V102.143C9.89021 107.035 9.89021 112.171 9.89021 117.497V125.615C9.88067 125.954 9.88991 126.293 9.9179 126.631C9.96581 126.957 10.0788 127.271 10.2502 127.554C10.4246 127.836 10.6551 128.079 10.9274 128.269C11.1997 128.459 11.5079 128.591 11.8332 128.657C12.1709 128.705 12.5124 128.72 12.8531 128.703H16.0145H48.1357H48.1818L48.2142 128.735L53.8446 134.375L53.6646 134.449V128.814V128.717H53.7615C54.44 128.717 55.123 128.717 55.7783 128.717C56.4228 128.684 57.0424 128.458 57.5552 128.066C58.0545 127.684 58.4314 127.164 58.6397 126.571C58.8101 125.971 58.8711 125.346 58.8197 124.725C58.8197 122.245 58.8197 119.903 58.8197 117.7C58.8197 113.298 58.8197 109.476 58.8197 106.333C58.8197 104.764 58.8197 103.361 58.8197 102.143C58.8197 101.538 58.8197 100.975 58.8197 100.458C58.8644 99.9959 58.7881 99.5299 58.5982 99.106C58.4624 98.822 58.2693 98.5692 58.031 98.3634C57.7928 98.1577 57.5144 98.0036 57.2136 97.9107C57.0159 97.9061 56.8181 97.92 56.6229 97.9522Z" fill="#263238"/>
<path d="M14.0068 100.86C14.0078 101.066 13.9475 101.267 13.8338 101.438C13.72 101.61 13.5579 101.744 13.368 101.823C13.178 101.902 12.9689 101.923 12.767 101.883C12.5651 101.843 12.3797 101.744 12.2342 101.599C12.0887 101.453 11.9897 101.268 11.9498 101.066C11.9099 100.864 11.9308 100.655 12.01 100.465C12.0891 100.275 12.223 100.113 12.3944 99.9991C12.5659 99.8853 12.7673 99.8251 12.9731 99.826C13.2469 99.8272 13.5091 99.9365 13.7027 100.13C13.8963 100.324 14.0056 100.586 14.0068 100.86Z" fill="white"/>
<path d="M17.1221 100.86C17.123 101.065 17.0629 101.267 16.9493 101.438C16.8358 101.609 16.6739 101.743 16.4843 101.822C16.2946 101.902 16.0857 101.923 15.8839 101.883C15.6822 101.844 15.4968 101.745 15.3511 101.6C15.2054 101.455 15.106 101.27 15.0656 101.069C15.0251 100.867 15.0454 100.658 15.1239 100.468C15.2023 100.278 15.3354 100.116 15.5063 100.001C15.6772 99.887 15.8781 99.826 16.0837 99.826C16.3583 99.826 16.6217 99.9348 16.8163 100.128C17.0109 100.322 17.1209 100.585 17.1221 100.86Z" fill="white"/>
<path d="M20.2327 100.86C20.2336 101.066 20.1733 101.267 20.0596 101.438C19.9459 101.61 19.7837 101.744 19.5938 101.823C19.4039 101.902 19.1947 101.923 18.9928 101.883C18.791 101.843 18.6055 101.744 18.46 101.599C18.3145 101.453 18.2155 101.268 18.1756 101.066C18.1357 100.864 18.1566 100.655 18.2358 100.465C18.315 100.275 18.4488 100.113 18.6203 99.9991C18.7917 99.8853 18.9931 99.8251 19.1989 99.826C19.3347 99.826 19.4691 99.8527 19.5945 99.9047C19.7199 99.9566 19.8339 100.033 19.9299 100.129C20.0259 100.225 20.102 100.339 20.154 100.464C20.2059 100.59 20.2327 100.724 20.2327 100.86Z" fill="white"/>
<path d="M52.3447 111.798C52.3447 111.862 48.3249 111.918 43.3683 111.918C38.4116 111.918 34.3965 111.862 34.3965 111.798C34.3965 111.733 38.4163 111.696 43.3821 111.696C48.348 111.696 52.3447 111.728 52.3447 111.798Z" fill="#263238"/>
<path d="M52.3447 115.194C52.3447 115.264 48.3249 115.314 43.3683 115.314C38.4116 115.314 34.3965 115.264 34.3965 115.194C34.3965 115.125 38.4163 115.074 43.3683 115.074C48.3203 115.074 52.3447 115.13 52.3447 115.194Z" fill="#263238"/>
<path d="M52.3447 118.619C52.3447 118.688 48.3249 118.739 43.3683 118.739C38.4116 118.739 34.3965 118.688 34.3965 118.619C34.3965 118.55 38.4163 118.499 43.3683 118.499C48.3203 118.499 52.3447 118.531 52.3447 118.619Z" fill="#263238"/>
<path d="M133.677 68.8401H180.77V92.6356H141.952L137.627 96.96V92.6356H133.677V68.8401Z" fill="white"/>
<path d="M133.677 68.8401C133.677 68.8401 133.677 68.9878 133.677 69.2647C133.677 69.5416 133.677 69.9616 133.677 70.5015C133.677 71.5907 133.677 73.1829 133.677 75.2366C133.677 79.3441 133.705 85.2791 133.728 92.6356L133.64 92.548H137.683V92.6449C137.683 93.9879 137.683 95.4555 137.683 96.9692L137.517 96.8954L141.836 92.571L141.864 92.5387H141.91H177.668H180.728L180.608 92.6587C180.608 84.2638 180.608 76.2427 180.608 68.8632L180.719 68.9739L146.858 68.9185L137.124 68.8862H134.531H133.608H133.825H134.485H137.06L146.751 68.8539L180.686 68.7986H180.797V68.9139C180.797 76.2981 180.797 84.3146 180.797 92.7095V92.7741H177.617H141.859L141.933 92.7418L137.604 97.0615L137.434 97.2277V96.9923C137.434 95.4786 137.434 94.011 137.434 92.6679L137.526 92.7603H133.483V92.6726C133.483 85.2884 133.515 79.3395 133.529 75.2182C133.529 73.1737 133.529 71.5861 133.552 70.5015C133.552 69.9708 133.552 69.5785 133.552 69.2831C133.552 68.9878 133.677 68.8401 133.677 68.8401Z" fill="#263238"/>
<path d="M172.841 76.0951C172.841 76.1643 165.798 76.215 157.117 76.215C148.436 76.215 141.393 76.1643 141.393 76.0951C141.393 76.0258 148.431 75.9751 157.117 75.9751C165.803 75.9751 172.841 76.0304 172.841 76.0951Z" fill="#263238"/>
<path d="M172.841 79.4964C172.841 79.5656 165.798 79.6164 157.117 79.6164C148.436 79.6164 141.393 79.5656 141.393 79.4964C141.393 79.4272 148.431 79.3764 157.117 79.3764C165.803 79.3764 172.841 79.4318 172.841 79.4964Z" fill="#263238"/>
<path d="M172.841 82.8977C172.841 82.9623 165.798 83.0177 157.117 83.0177C148.436 83.0177 141.393 82.9623 141.393 82.8977C141.393 82.8331 148.431 82.7777 157.117 82.7777C165.803 82.7777 172.841 82.8331 172.841 82.8977Z" fill="#263238"/>
<path d="M63.0472 23.9719H29.666V47.7674H54.7723L59.0966 52.0918V47.7674H63.0472V23.9719Z" fill="white"/>
<path d="M63.0471 23.9719C63.0471 23.9719 63.0471 24.1103 63.0471 24.3873C63.0471 24.6642 63.0471 25.0887 63.0471 25.6287C63.0471 26.7271 63.0471 28.3332 63.0702 30.3915C63.0702 34.5451 63.0979 40.494 63.121 47.7674V47.8644H59.0735L59.175 47.7674C59.175 49.1197 59.175 50.5827 59.175 52.0872V52.3456L58.9904 52.1656L54.6661 47.8459L54.7445 47.8782H32.6981H29.5367V47.7536C29.5367 39.1833 29.5367 31.1022 29.5367 23.958V23.8519H29.6475L53.8169 23.9073L60.6288 23.935H62.4195H63.0287H62.8671H62.4056H60.5919L53.7661 24.0088L29.666 24.0642L29.7721 23.9534C29.7721 31.0976 29.7721 39.1833 29.7721 47.749L29.6521 47.6336H32.7119H54.7584H54.8045L54.8368 47.6659L59.1566 51.9949L58.9766 52.0687C58.9766 50.5642 58.9766 49.1012 58.9766 47.749V47.6474H63.0287L62.9317 47.7397C62.9317 40.4894 62.9733 34.5544 62.9825 30.4192C62.9825 28.3563 62.9825 26.7271 63.0056 25.6379C63.0056 25.0934 63.0056 24.6734 63.0056 24.3826C63.0056 24.0919 63.0471 23.9719 63.0471 23.9719Z" fill="#263238"/>
<path d="M37.3824 31.2315C37.3824 31.1669 41.4022 31.1115 46.3542 31.1115C51.3063 31.1115 55.326 31.1669 55.326 31.2315C55.326 31.2961 51.3109 31.3515 46.3542 31.3515C41.3976 31.3515 37.3824 31.2961 37.3824 31.2315Z" fill="#263238"/>
<path d="M37.3824 34.6236C37.3824 34.559 41.4022 34.5036 46.3542 34.5036C51.3063 34.5036 55.326 34.559 55.326 34.6236C55.326 34.6882 51.3109 34.7436 46.3542 34.7436C41.3976 34.7436 37.3824 34.6974 37.3824 34.6236Z" fill="#263238"/>
<path d="M37.3824 38.0342C37.3824 37.965 41.4022 37.9142 46.3542 37.9142C51.3063 37.9142 55.326 37.965 55.326 38.0342C55.326 38.1034 51.3109 38.1542 46.3542 38.1542C41.3976 38.1542 37.3824 38.0988 37.3824 38.0342Z" fill="#263238"/>
<path d="M100.78 5.46988H77.7186V28.5316H79.9247V31.9699L83.3583 28.5316H100.78V5.46988Z" fill="white"/>
<path d="M100.78 5.4699C100.78 5.4699 100.78 5.60835 100.78 5.88065C100.78 6.15294 100.78 6.57291 100.78 7.09904C100.78 8.18359 100.78 9.75734 100.803 11.7603C100.803 15.8078 100.836 21.5813 100.859 28.5317V28.624H100.757H83.3352L83.4183 28.587L79.9846 32.0253L79.7816 32.2284V28.5317L79.9016 28.6516H77.594V28.5317C77.594 20.0629 77.594 12.1803 77.594 5.45605V5.35452H77.6955L94.4622 5.4099L99.1235 5.43298H100.347H100.757H100.323H99.082L94.3976 5.46067L77.6955 5.51605L77.7971 5.4099C77.7971 12.1203 77.7971 20.0029 77.7971 28.4855L77.6771 28.3655H79.9846V31.9238L79.7769 31.8361L83.2152 28.4024L83.2475 28.3701H83.2983H100.72L100.614 28.4717C100.637 21.549 100.656 15.7985 100.67 11.7649C100.67 9.75273 100.67 8.16974 100.697 7.08058C100.697 6.54984 100.697 6.13448 100.697 5.84372C100.697 5.55297 100.78 5.4699 100.78 5.4699Z" fill="#263238"/>
<path d="M90.4794 17.0031C91.1041 16.727 91.6343 16.2739 92.0042 15.6997C92.3741 15.1255 92.5676 14.4555 92.5608 13.7725C92.5865 13.3284 92.5215 12.8836 92.3697 12.4654C92.2179 12.0472 91.9826 11.6643 91.678 11.34C91.3735 11.0158 91.0061 10.7569 90.5982 10.5792C90.1904 10.4015 89.7506 10.3088 89.3057 10.3066C88.8608 10.3044 88.4202 10.3928 88.0106 10.5664C87.601 10.7401 87.231 10.9953 86.9233 11.3166C86.6155 11.6378 86.3764 12.0184 86.2205 12.4351C86.0647 12.8518 85.9953 13.2958 86.0166 13.7402C86.0034 14.4286 86.1945 15.1055 86.5658 15.6854C86.9371 16.2654 87.4718 16.7223 88.1026 16.9985C83.0675 17.7553 83.2983 23.2289 83.2983 23.2289L95.196 23.2796C95.196 23.2796 95.4683 17.7553 90.4794 17.0031Z" fill="#455A64"/>
<path d="M150.481 36.1789H173.542V59.2406H171.336V62.6743L167.903 59.2406H150.481V36.1789Z" fill="white"/>
<path d="M150.481 36.1789C150.481 36.1789 150.481 36.3312 150.481 36.6127C150.481 36.8942 150.481 37.3142 150.481 37.8496C150.481 38.9387 150.481 40.5217 150.508 42.5339C150.508 46.5629 150.541 52.3133 150.559 59.2406L150.458 59.1391H167.88H167.93L167.963 59.176L171.401 62.6097L171.193 62.6928V59.1391H173.501L173.381 59.2591C173.381 50.7904 173.381 42.9077 173.381 36.1835L173.482 36.285L156.78 36.2343L152.096 36.2066H150.854C150.573 36.2066 150.421 36.2066 150.421 36.2066H150.831H152.054L156.716 36.1789L173.529 36.0774H173.63V36.1789C173.63 42.8893 173.63 50.7719 173.63 59.2545V59.3745H171.322L171.442 59.2545V62.9789L171.239 62.7712L167.806 59.3376L167.889 59.3699H150.467H150.365V59.2683C150.388 52.3133 150.407 46.5398 150.421 42.497C150.421 40.494 150.421 38.9203 150.444 37.8357C150.444 37.3096 150.444 36.9035 150.444 36.6173C150.476 36.3127 150.481 36.1789 150.481 36.1789Z" fill="#263238"/>
<path d="M167.621 46.3137C167.622 45.4518 167.423 44.6014 167.042 43.8285C166.661 43.0557 166.106 42.3811 165.422 41.8573C164.737 41.3335 163.941 40.9745 163.096 40.8082C162.25 40.6419 161.377 40.6728 160.545 40.8985C159.714 41.1242 158.945 41.5386 158.299 42.1095C157.654 42.6804 157.148 43.3925 156.822 44.1904C156.497 44.9884 156.359 45.8506 156.421 46.7103C156.482 47.57 156.741 48.404 157.177 49.1474C157.394 49.5074 157.639 49.7704 157.934 50.1489L161.206 54.4686C161.301 54.593 161.423 54.6938 161.563 54.7631C161.703 54.8325 161.857 54.8686 162.014 54.8686C162.17 54.8686 162.324 54.8325 162.464 54.7631C162.604 54.6938 162.727 54.593 162.821 54.4686L166.024 50.2273C166.314 49.8822 166.585 49.5217 166.837 49.1474C167.349 48.2908 167.62 47.3117 167.621 46.3137ZM162.014 48.7597C161.525 48.7597 161.048 48.6149 160.642 48.3436C160.236 48.0723 159.919 47.6867 159.733 47.2355C159.546 46.7843 159.497 46.2879 159.592 45.8089C159.687 45.33 159.923 44.89 160.268 44.5447C160.613 44.1994 161.053 43.9642 161.532 43.869C162.011 43.7737 162.507 43.8226 162.959 44.0095C163.41 44.1964 163.795 44.5128 164.067 44.9189C164.338 45.3249 164.483 45.8023 164.483 46.2906C164.483 46.9455 164.223 47.5735 163.76 48.0365C163.297 48.4996 162.669 48.7597 162.014 48.7597Z" fill="#FF5138"/>
<path d="M138.788 36.7414C147.03 32.9332 150.624 23.1647 146.816 14.923C143.008 6.68124 133.239 3.08716 124.998 6.89538C116.756 10.7036 113.162 20.472 116.97 28.7138C120.778 36.9555 130.547 40.5496 138.788 36.7414Z" fill="white"/>
<path d="M148.33 21.812C148.33 21.812 148.33 21.7197 148.302 21.5444C148.275 21.369 148.275 21.0828 148.251 20.7644C148.251 20.5936 148.228 20.3998 148.219 20.1875C148.21 19.9752 148.15 19.7491 148.113 19.5045C148.04 18.9309 147.926 18.3633 147.771 17.8061C147.387 16.2702 146.772 14.8014 145.949 13.4494C144.872 11.6598 143.462 10.0932 141.795 8.83432C139.773 7.28976 137.416 6.24452 134.914 5.78372C134.232 5.65643 133.543 5.57625 132.851 5.54374C132.495 5.54374 132.14 5.49759 131.785 5.5022L130.705 5.55758C130.52 5.55758 130.34 5.55758 130.156 5.5945L129.611 5.67757C129.251 5.73757 128.877 5.77911 128.513 5.85756C127.771 6.01368 127.04 6.21873 126.325 6.47138C125.596 6.73204 124.886 7.04039 124.197 7.3944C123.851 7.58362 123.524 7.80053 123.182 8.00359C122.836 8.20463 122.506 8.43142 122.194 8.68202C121.546 9.16691 120.93 9.69256 120.348 10.2558C119.775 10.8501 119.241 11.4823 118.752 12.148C117.735 13.51 116.946 15.0281 116.416 16.6431C115.881 18.3085 115.596 20.0443 115.572 21.7936C115.594 23.543 115.879 25.2792 116.416 26.944L116.878 28.1532L117.432 29.307C117.517 29.5002 117.619 29.6855 117.736 29.8608L118.064 30.4008L118.392 30.9407L118.765 31.4438C119.258 32.1084 119.793 32.7405 120.367 33.336C120.947 33.9003 121.564 34.426 122.213 34.9097C122.525 35.1603 122.855 35.3871 123.201 35.5882C123.542 35.7912 123.87 36.0081 124.216 36.1974C124.904 36.5514 125.615 36.8597 126.343 37.1204C127.055 37.3805 127.782 37.5932 128.522 37.7573C128.891 37.8357 129.26 37.8773 129.62 37.9373L130.165 38.0203C130.349 38.0203 130.529 38.0203 130.714 38.0573L131.794 38.1126C132.149 38.1126 132.505 38.0849 132.86 38.0711C133.552 38.0386 134.242 37.9584 134.923 37.8311C137.425 37.3703 139.783 36.3251 141.804 34.7805C143.473 33.5148 144.883 31.9402 145.958 30.1423C146.782 28.7904 147.396 27.3215 147.781 25.7856C147.935 25.2285 148.049 24.6609 148.122 24.0873C148.159 23.8427 148.205 23.6258 148.228 23.4042C148.251 23.1827 148.228 23.0027 148.261 22.8274C148.261 22.4905 148.302 22.232 148.311 22.0474C148.321 21.8628 148.339 21.7843 148.339 21.7843C148.339 21.7843 148.339 21.872 148.339 22.0474C148.339 22.2228 148.339 22.5089 148.311 22.832C148.311 23.0027 148.311 23.1966 148.311 23.4089C148.311 23.6212 148.251 23.8473 148.215 24.1011C148.151 24.6777 148.043 25.2486 147.891 25.8087C147.521 27.3593 146.916 28.8441 146.096 30.2115C144.903 32.2291 143.294 33.9696 141.376 35.3176C139.459 36.6655 137.276 37.59 134.974 38.0296C134.283 38.1577 133.585 38.2409 132.883 38.2788C132.528 38.2788 132.168 38.3249 131.808 38.3203L130.709 38.2649C130.529 38.2649 130.34 38.2649 130.16 38.2326L129.606 38.1496C129.237 38.0896 128.863 38.048 128.494 37.9696C127.743 37.8068 127.005 37.5925 126.283 37.3281C125.544 37.0693 124.822 36.761 124.124 36.405C123.773 36.2158 123.436 35.9943 123.09 35.7912C122.743 35.5844 122.41 35.3546 122.093 35.1036C121.432 34.614 120.803 34.0821 120.21 33.5114C119.628 32.9066 119.086 32.2654 118.585 31.5915L118.207 31.0838L117.87 30.5392L117.506 30.0085C117.388 29.8275 117.285 29.6377 117.196 29.4408C117.012 29.0532 116.823 28.6655 116.633 28.2732C116.444 27.8809 116.333 27.4563 116.172 27.0456C115.623 25.3576 115.333 23.5961 115.313 21.8213C115.338 20.0468 115.627 18.2859 116.172 16.5969C116.713 14.9495 117.518 13.4005 118.553 12.0095C119.053 11.3358 119.596 10.6945 120.178 10.0896C120.77 9.51888 121.399 8.98703 122.061 8.49741C122.377 8.24634 122.71 8.01661 123.058 7.80976C123.404 7.6067 123.741 7.38517 124.091 7.19595C125.473 6.4787 126.942 5.94499 128.462 5.60835C128.831 5.52989 129.205 5.48836 129.574 5.42836L130.123 5.34529C130.308 5.32221 130.492 5.32221 130.677 5.31298L131.771 5.2576C132.135 5.2576 132.495 5.28991 132.851 5.30375C133.552 5.3378 134.251 5.41952 134.941 5.54835C137.246 5.99111 139.43 6.91983 141.348 8.27265C143.266 9.62547 144.874 11.3714 146.064 13.3941C146.883 14.7615 147.489 16.2463 147.859 17.7969C148.011 18.3584 148.119 18.9309 148.182 19.5091C148.219 19.7583 148.261 19.9706 148.279 20.1967C148.298 20.4229 148.279 20.6029 148.279 20.7736C148.279 21.1105 148.279 21.3736 148.307 21.5582C148.335 21.7428 148.33 21.812 148.33 21.812Z" fill="#263238"/>
<path d="M128.886 28.1624C129.409 28.1685 129.924 28.0296 130.373 27.7609C130.576 27.5671 130.677 27.041 130.677 26.1826V20.9398C130.694 20.6076 130.661 20.2748 130.58 19.9521C130.535 19.8075 130.442 19.6826 130.316 19.5986C130.19 19.5145 130.039 19.4764 129.888 19.4906C129.809 19.4887 129.73 19.4964 129.653 19.5137C129.574 19.5137 129.353 19.5829 128.983 19.6891V19.3476L129.445 19.1907C130.728 18.7753 131.622 18.4676 132.126 18.2676C132.252 18.2057 132.385 18.1622 132.523 18.1384C132.538 18.1925 132.546 18.2484 132.546 18.3046V26.1872C132.546 27.0225 132.648 27.5717 132.851 27.7609C133.255 28.0445 133.742 28.1872 134.235 28.1671V28.4763H128.886V28.1624ZM130.636 13.4541C130.768 13.3196 130.932 13.2199 131.112 13.164C131.292 13.108 131.483 13.0975 131.669 13.1334C131.854 13.1693 132.028 13.2504 132.174 13.3696C132.32 13.4888 132.435 13.6423 132.508 13.8165C132.58 13.9907 132.609 14.1802 132.59 14.368C132.572 14.5559 132.508 14.7363 132.403 14.8932C132.298 15.0501 132.156 15.1786 131.989 15.2673C131.823 15.356 131.637 15.4022 131.448 15.4016C131.298 15.4029 131.149 15.3744 131.011 15.3179C130.872 15.2614 130.746 15.1779 130.639 15.0724C130.533 14.9669 130.448 14.8413 130.391 14.7029C130.333 14.5646 130.303 14.4162 130.303 14.2663C130.302 14.1163 130.331 13.9676 130.388 13.8288C130.445 13.6901 130.529 13.5642 130.636 13.4587V13.4541Z" fill="#263238"/>
<path d="M120.824 39.991C120.825 40.5033 120.674 41.0043 120.39 41.4307C120.106 41.857 119.702 42.1896 119.229 42.3863C118.756 42.5829 118.235 42.6349 117.732 42.5355C117.23 42.4361 116.768 42.1899 116.406 41.828C116.043 41.4661 115.796 41.0048 115.696 40.5024C115.595 40.0001 115.646 39.4792 115.842 39.0059C116.038 38.5325 116.37 38.1279 116.796 37.8432C117.222 37.5585 117.722 37.4065 118.235 37.4065C118.921 37.4065 119.578 37.6787 120.064 38.1632C120.549 38.6478 120.823 39.3051 120.824 39.991Z" fill="white"/>
<path d="M120.824 39.991C120.796 39.991 120.824 39.7602 120.695 39.3725C120.548 38.8217 120.224 38.3349 119.772 37.988C119.402 37.7123 118.964 37.5446 118.505 37.5039C118.046 37.4632 117.585 37.5509 117.173 37.7574C116.761 37.9638 116.415 38.2807 116.173 38.6727C115.931 39.0648 115.803 39.5164 115.803 39.9771C115.803 40.4378 115.931 40.8895 116.173 41.2815C116.415 41.6735 116.761 41.9905 117.173 42.1969C117.585 42.4033 118.046 42.4911 118.505 42.4503C118.964 42.4096 119.402 42.242 119.772 41.9662C120.224 41.6193 120.548 41.1325 120.695 40.5817C120.805 40.194 120.796 39.9633 120.824 39.9633C120.851 39.9633 120.824 40.0187 120.824 40.1294C120.826 40.2848 120.809 40.4398 120.773 40.5909C120.646 41.1767 120.32 41.7003 119.85 42.0724C119.495 42.3484 119.077 42.5307 118.633 42.6025C118.19 42.6743 117.735 42.6332 117.312 42.4831C116.81 42.3088 116.372 41.9871 116.056 41.5601C115.712 41.099 115.526 40.5389 115.526 39.9633C115.526 39.3877 115.712 38.8275 116.056 38.3664C116.372 37.9395 116.81 37.6178 117.312 37.4434C117.735 37.2933 118.19 37.2523 118.633 37.324C119.077 37.3958 119.495 37.5781 119.85 37.8542C120.321 38.2255 120.647 38.7494 120.773 39.3356C120.809 39.4867 120.826 39.6418 120.824 39.7971C120.833 39.9264 120.833 39.991 120.824 39.991Z" fill="#263238"/>
<path d="M101.929 115.342H77.9309C77.3519 115.342 76.7967 115.572 76.3873 115.981C75.9779 116.391 75.7479 116.946 75.7479 117.525V139.654C75.7479 139.941 75.8044 140.225 75.9141 140.49C76.0238 140.755 76.1846 140.995 76.3873 141.198C76.59 141.401 76.8306 141.562 77.0955 141.671C77.3603 141.781 77.6442 141.837 77.9309 141.837H97.6328L101.579 145.788V141.837H101.929C102.216 141.837 102.5 141.781 102.765 141.671C103.03 141.562 103.27 141.401 103.473 141.198C103.676 140.995 103.837 140.755 103.946 140.49C104.056 140.225 104.112 139.941 104.112 139.654V117.525C104.112 116.946 103.882 116.391 103.473 115.981C103.064 115.572 102.508 115.342 101.929 115.342Z" fill="white"/>
<path d="M101.93 115.342C102.106 115.331 102.284 115.347 102.456 115.388C102.978 115.512 103.437 115.824 103.743 116.265C103.967 116.587 104.101 116.963 104.131 117.354C104.131 117.783 104.131 118.24 104.131 118.739C104.131 119.736 104.131 120.885 104.131 122.168C104.131 124.743 104.131 127.858 104.131 131.43C104.131 133.216 104.131 135.122 104.131 137.121C104.131 137.619 104.131 138.127 104.131 138.639V139.414C104.143 139.684 104.118 139.954 104.057 140.218C103.92 140.757 103.592 141.23 103.134 141.547C102.898 141.706 102.633 141.819 102.354 141.879C102.078 141.925 101.798 141.942 101.519 141.93L101.625 141.824C101.625 143.06 101.625 144.403 101.625 145.774V146.037L101.436 145.853L97.4852 141.907L97.5683 141.939H77.8525C77.3509 141.92 76.8691 141.738 76.4802 141.421C76.0912 141.104 75.8164 140.668 75.6972 140.181C75.6429 139.943 75.6196 139.7 75.628 139.456V134.638C75.628 131.006 75.628 127.503 75.628 124.166C75.628 122.495 75.628 120.869 75.628 119.288V117.53C75.6311 117.329 75.6574 117.129 75.7065 116.934C75.8096 116.551 76.0113 116.201 76.2914 115.919C76.5714 115.637 76.9203 115.434 77.3033 115.328C77.6715 115.249 78.0489 115.221 78.4248 115.245H81.6138H85.5782L97.5267 115.282L100.757 115.305H101.602C101.791 115.305 101.888 115.305 101.888 115.305H101.602H100.757H97.5267L85.5782 115.347H78.4571C78.0981 115.325 77.7377 115.353 77.3864 115.43C77.0385 115.527 76.7218 115.712 76.4677 115.969C76.2136 116.226 76.0307 116.544 75.9372 116.893C75.8647 117.263 75.8414 117.642 75.868 118.019V119.196C75.868 120.78 75.868 122.406 75.868 124.074C75.868 127.411 75.868 130.913 75.868 134.546V138.699C75.8445 139.162 75.8646 139.625 75.928 140.084C76.0329 140.522 76.2789 140.914 76.6283 141.199C76.9777 141.485 77.411 141.647 77.8617 141.662H80.7277H97.6329H97.679L97.7114 141.694L101.657 145.645L101.468 145.723C101.468 144.339 101.468 143.01 101.468 141.773V141.671H101.574C101.84 141.683 102.106 141.666 102.368 141.621C102.621 141.57 102.861 141.469 103.074 141.325C103.501 141.042 103.808 140.612 103.937 140.116C103.995 139.87 104.019 139.616 104.006 139.364V137.056C104.006 135.053 104.006 133.152 104.006 131.366C104.006 127.794 104.006 124.678 104.034 122.103C104.034 120.82 104.034 119.671 104.034 118.674C104.034 118.176 104.034 117.71 104.034 117.29C104.002 116.839 103.83 116.411 103.542 116.063C103.254 115.715 102.864 115.467 102.428 115.351C102.262 115.339 102.096 115.335 101.93 115.342Z" fill="#263238"/>
<path d="M96.2344 120.654H83.9998C82.0448 120.654 80.46 122.239 80.46 124.194V133.369C80.46 135.324 82.0448 136.908 83.9998 136.908H96.2344C98.1894 136.908 99.7742 135.324 99.7742 133.369V124.194C99.7742 122.239 98.1894 120.654 96.2344 120.654Z" fill="#455A64"/>
<path d="M88.8457 132.353C88.7313 132.42 88.6014 132.455 88.4691 132.455C88.3368 132.456 88.2067 132.421 88.092 132.355C87.9773 132.289 87.8821 132.194 87.8159 132.08C87.7497 131.965 87.7149 131.835 87.715 131.703V125.86C87.7149 125.728 87.7497 125.598 87.8159 125.483C87.8821 125.368 87.9773 125.273 88.092 125.207C88.2067 125.141 88.3368 125.107 88.4691 125.107C88.6014 125.107 88.7313 125.143 88.8457 125.209L91.3748 126.668L93.9038 128.131C94.019 128.196 94.1149 128.29 94.1815 128.405C94.2482 128.519 94.2833 128.649 94.2833 128.781C94.2833 128.914 94.2482 129.044 94.1815 129.158C94.1149 129.272 94.019 129.367 93.9038 129.432L91.3794 130.895L88.8457 132.353Z" fill="white"/>
</svg>
